<svg version="1.1" viewBox="0.0 0.0 600.0 371.0" fill="none" stroke="none" stroke-linecap="square" stroke-miterlimit="10" width="600" height="371" xmlns:xlink="http://www.w3.org/1999/xlink" xmlns="http://www.w3.org/2000/svg"><path fill="#efefef" d="M0 0L600.0 0L600.0 371.0L0 371.0L0 0Z" fill-rule="nonzero"/><path stroke="#000000" stroke-width="1.0" stroke-linecap="butt" d="M96.5 294.5L96.5 61.5" fill-rule="nonzero"/><clipPath id="id_0"><path d="M96.55 61.916668L581.45 61.916668L581.45 294.45L96.55 294.45L96.55 61.916668Z" clip-rule="nonzero"/></clipPath><path fill="#310b1f" clip-path="url(#id_0)" d="M217.0 99.0L217.0 271.0L199.0 289.0L199.0 117.0Z" fill-rule="nonzero"/><path fill="#704159" clip-path="url(#id_0)" d="M199.0 117.0L127.0 117.0L145.0 99.0L217.0 99.0Z" fill-rule="nonzero"/><path stroke="#000000" stroke-width="2.0" stroke-linecap="butt" stroke-opacity="0.0" clip-path="url(#id_0)" d="M199.0 289.0L127.0 289.0L127.0 117.0L199.0 117.0Z" fill-rule="nonzero"/><path fill="#4c1130" clip-path="url(#id_0)" d="M199.0 289.0L127.0 289.0L127.0 117.0L199.0 117.0Z" fill-rule="nonzero"/><path fill="#4b122e" clip-path="url(#id_0)" d="M328.0 108.0L328.0 271.0L310.0 289.0L310.0 126.0Z" fill-rule="nonzero"/><path fill="#90496c" clip-path="url(#id_0)" d="M310.0 126.0L238.0 126.0L256.0 108.0L328.0 108.0Z" fill-rule="nonzero"/><path stroke="#000000" stroke-width="2.0" stroke-linecap="butt" stroke-opacity="0.0" clip-path="url(#id_0)" d="M310.0 289.0L238.0 289.0L238.0 126.0L310.0 126.0Z" fill-rule="nonzero"/><path fill="#741b47" clip-path="url(#id_0)" d="M310.0 289.0L238.0 289.0L238.0 126.0L310.0 126.0Z" fill-rule="nonzero"/><path fill="#6c324f" clip-path="url(#id_0)" d="M440.0 112.0L440.0 271.0L422.0 289.0L422.0 130.0Z" fill-rule="nonzero"/><path fill="#b87194" clip-path="url(#id_0)" d="M422.0 130.0L350.0 130.0L368.0 112.0L440.0 112.0Z" fill-rule="nonzero"/><path stroke="#000000" stroke-width="2.0" stroke-linecap="butt" stroke-opacity="0.0" clip-path="url(#id_0)" d="M422.0 289.0L350.0 289.0L350.0 130.0L422.0 130.0Z" fill-rule="nonzero"/><path fill="#a64d79" clip-path="url(#id_0)" d="M422.0 289.0L350.0 289.0L350.0 130.0L422.0 130.0Z" fill-rule="nonzero"/><path fill="#7e5068" clip-path="url(#id_0)" d="M551.0 123.0L551.0 271.0L533.0 289.0L533.0 141.0Z" fill-rule="nonzero"/><path fill="#ce95b3" clip-path="url(#id_0)" d="M533.0 141.0L461.0 141.0L479.0 123.0L551.0 123.0Z" fill-rule="nonzero"/><path stroke="#000000" stroke-width="2.0" stroke-linecap="butt" stroke-opacity="0.0" clip-path="url(#id_0)" d="M533.0 289.0L461.0 289.0L461.0 141.0L533.0 141.0Z" fill-rule="nonzero"/><path fill="#c27ba0" clip-path="url(#id_0)" d="M533.0 289.0L461.0 289.0L461.0 141.0L533.0 141.0Z" fill-rule="nonzero"/><path stroke="#000000" stroke-width="1.0" stroke-linecap="butt" d="M90.5 271.5L102.5 271.5" fill-rule="nonzero"/><path stroke="#000000" stroke-width="1.0" stroke-linecap="butt" d="M90.5 219.5L102.5 219.5" fill-rule="nonzero"/><path stroke="#000000" stroke-width="1.0" stroke-linecap="butt" d="M90.5 166.5L102.5 166.5" fill-rule="nonzero"/><path stroke="#000000" stroke-width="1.0" stroke-linecap="butt" d="M90.5 114.5L102.5 114.5" fill-rule="nonzero"/><path stroke="#000000" stroke-width="1.0" stroke-linecap="butt" d="M90.5 61.5L102.5 61.5" fill-rule="nonzero"/><path stroke="#4c1130" stroke-width="3.0" stroke-linejoin="round" stroke-linecap="round" d="M153.96875 125.14186L153.96875 126.04811L153.76562 126.04811Q152.5 126.07936 151.75 126.813736Q151.0 127.532486 150.875 128.84499Q151.5625 128.07936 152.71875 128.07936Q153.82812 128.07936 154.5 128.86061Q155.17188 129.64186 155.17188 130.89186Q155.17188 132.20436 154.45312 133.00124Q153.73438 133.79811 152.51562 133.79811Q151.29688 133.79811 150.53125 132.86061Q149.78125 131.90749 149.78125 130.42311L149.78125 130.01686Q149.78125 127.657486 150.78125 126.407486Q151.78125 125.157486 153.76562 125.14186L153.96875 125.14186ZM152.54688 128.98561Q151.98438 128.98561 151.51562 129.31374Q151.04688 129.64186 150.85938 130.15749L150.85938 130.54811Q150.85938 131.61061 151.32812 132.25124Q151.8125 132.89186 152.51562 132.89186Q153.25 132.89186 153.67188 132.36061Q154.09375 131.81374 154.09375 130.93874Q154.09375 130.06374 153.67188 129.53249Q153.25 128.98561 152.54688 128.98561ZM157.20312 129.39186L157.64062 125.14186L162.01562 125.14186L162.01562 126.14186L158.5625 126.14186L158.29688 128.46999Q158.9375 128.09499 159.73438 128.09499Q160.89062 128.09499 161.57812 128.87624Q162.26562 129.64186 162.26562 130.95436Q162.26562 132.26686 161.54688 133.03249Q160.84375 133.79811 159.5625 133.79811Q158.4375 133.79811 157.71875 133.17311Q157.0 132.53249 156.90625 131.42311L157.92188 131.42311Q158.03125 132.15749 158.45312 132.53249Q158.875 132.90749 159.5625 132.90749Q160.3125 132.90749 160.75 132.39186Q161.1875 131.87624 161.1875 130.96999Q161.1875 130.11061 160.71875 129.59499Q160.25 129.07936 159.46875 129.07936Q158.76562 129.07936 158.35938 129.37624L158.07812 129.61061L157.20312 129.39186ZM168.89062 127.36061Q168.89062 128.00124 168.54688 128.50124Q168.20312 129.00124 167.64062 129.28249Q168.29688 129.56374 168.6875 130.12624Q169.07812 130.67311 169.07812 131.37624Q169.07812 132.46999 168.32812 133.14186Q167.59375 133.79811 166.375 133.79811Q165.14062 133.79811 164.39062 133.14186Q163.65625 132.46999 163.65625 131.37624Q163.65625 130.67311 164.03125 130.12624Q164.40625 129.56374 165.07812 129.28249Q164.51562 129.00124 164.1875 128.50124Q163.85938 128.00124 163.85938 127.36061Q163.85938 126.282486 164.54688 125.657486Q165.23438 125.01686 166.375 125.01686Q167.5 125.01686 168.1875 125.657486Q168.89062 126.282486 168.89062 127.36061ZM168.0 131.34499Q168.0 130.62624 167.54688 130.18874Q167.09375 129.73561 166.35938 129.73561Q165.625 129.73561 165.17188 130.18874Q164.73438 130.62624 164.73438 131.36061Q164.73438 132.07936 165.17188 132.50124Q165.60938 132.90749 166.375 132.90749Q167.125 132.90749 167.5625 132.48561Q168.0 132.06374 168.0 131.34499ZM166.375 125.907486Q165.73438 125.907486 165.32812 126.313736Q164.9375 126.70436 164.9375 127.39186Q164.9375 128.03249 165.32812 128.43874Q165.71875 128.84499 166.35938 128.84499Q167.01562 128.84499 167.40625 128.43874Q167.79688 128.03249 167.79688 127.39186Q167.79688 126.73561 167.39062 126.32936Q166.98438 125.907486 166.375 125.907486ZM174.85938 129.92311Q174.53125 130.32936 174.04688 130.57936Q173.57812 130.81374 173.01562 130.81374Q172.28125 130.81374 171.73438 130.45436Q171.1875 130.09499 170.89062 129.43874Q170.59375 128.76686 170.59375 127.969986Q170.59375 127.126236 170.90625 126.438736Q171.23438 125.751236 171.82812 125.39186Q172.4375 125.01686 173.23438 125.01686Q174.5 125.01686 175.21875 125.969986Q175.95312 126.92311 175.95312 128.54811L175.95312 128.86061Q175.95312 131.36061 174.96875 132.50124Q173.98438 133.64186 172.0 133.67311L171.78125 133.67311L171.78125 132.76686L172.01562 132.76686Q173.35938 132.73561 174.07812 132.06374Q174.79688 131.39186 174.85938 129.92311ZM173.1875 129.92311Q173.73438 129.92311 174.1875 129.59499Q174.65625 129.25124 174.875 128.76686L174.875 128.32936Q174.875 127.26686 174.40625 126.594986Q173.9375 125.92311 173.23438 125.92311Q172.51562 125.92311 172.07812 126.469986Q171.65625 127.01686 171.65625 127.92311Q171.65625 128.79811 172.0625 129.36061Q172.48438 129.92311 173.1875 129.92311Z" fill-rule="nonzero"/><path fill="#ffffff" d="M153.96875 125.14186L153.96875 126.04811L153.76562 126.04811Q152.5 126.07936 151.75 126.813736Q151.0 127.532486 150.875 128.84499Q151.5625 128.07936 152.71875 128.07936Q153.82812 128.07936 154.5 128.86061Q155.17188 129.64186 155.17188 130.89186Q155.17188 132.20436 154.45312 133.00124Q153.73438 133.79811 152.51562 133.79811Q151.29688 133.79811 150.53125 132.86061Q149.78125 131.90749 149.78125 130.42311L149.78125 130.01686Q149.78125 127.657486 150.78125 126.407486Q151.78125 125.157486 153.76562 125.14186L153.96875 125.14186ZM152.54688 128.98561Q151.98438 128.98561 151.51562 129.31374Q151.04688 129.64186 150.85938 130.15749L150.85938 130.54811Q150.85938 131.61061 151.32812 132.25124Q151.8125 132.89186 152.51562 132.89186Q153.25 132.89186 153.67188 132.36061Q154.09375 131.81374 154.09375 130.93874Q154.09375 130.06374 153.67188 129.53249Q153.25 128.98561 152.54688 128.98561ZM157.20312 129.39186L157.64062 125.14186L162.01562 125.14186L162.01562 126.14186L158.5625 126.14186L158.29688 128.46999Q158.9375 128.09499 159.73438 128.09499Q160.89062 128.09499 161.57812 128.87624Q162.26562 129.64186 162.26562 130.95436Q162.26562 132.26686 161.54688 133.03249Q160.84375 133.79811 159.5625 133.79811Q158.4375 133.79811 157.71875 133.17311Q157.0 132.53249 156.90625 131.42311L157.92188 131.42311Q158.03125 132.15749 158.45312 132.53249Q158.875 132.90749 159.5625 132.90749Q160.3125 132.90749 160.75 132.39186Q161.1875 131.87624 161.1875 130.96999Q161.1875 130.11061 160.71875 129.59499Q160.25 129.07936 159.46875 129.07936Q158.76562 129.07936 158.35938 129.37624L158.07812 129.61061L157.20312 129.39186ZM168.89062 127.36061Q168.89062 128.00124 168.54688 128.50124Q168.20312 129.00124 167.64062 129.28249Q168.29688 129.56374 168.6875 130.12624Q169.07812 130.67311 169.07812 131.37624Q169.07812 132.46999 168.32812 133.14186Q167.59375 133.79811 166.375 133.79811Q165.14062 133.79811 164.39062 133.14186Q163.65625 132.46999 163.65625 131.37624Q163.65625 130.67311 164.03125 130.12624Q164.40625 129.56374 165.07812 129.28249Q164.51562 129.00124 164.1875 128.50124Q163.85938 128.00124 163.85938 127.36061Q163.85938 126.282486 164.54688 125.657486Q165.23438 125.01686 166.375 125.01686Q167.5 125.01686 168.1875 125.657486Q168.89062 126.282486 168.89062 127.36061ZM168.0 131.34499Q168.0 130.62624 167.54688 130.18874Q167.09375 129.73561 166.35938 129.73561Q165.625 129.73561 165.17188 130.18874Q164.73438 130.62624 164.73438 131.36061Q164.73438 132.07936 165.17188 132.50124Q165.60938 132.90749 166.375 132.90749Q167.125 132.90749 167.5625 132.48561Q168.0 132.06374 168.0 131.34499ZM166.375 125.907486Q165.73438 125.907486 165.32812 126.313736Q164.9375 126.70436 164.9375 127.39186Q164.9375 128.03249 165.32812 128.43874Q165.71875 128.84499 166.35938 128.84499Q167.01562 128.84499 167.40625 128.43874Q167.79688 128.03249 167.79688 127.39186Q167.79688 126.73561 167.39062 126.32936Q166.98438 125.907486 166.375 125.907486ZM174.85938 129.92311Q174.53125 130.32936 174.04688 130.57936Q173.57812 130.81374 173.01562 130.81374Q172.28125 130.81374 171.73438 130.45436Q171.1875 130.09499 170.89062 129.43874Q170.59375 128.76686 170.59375 127.969986Q170.59375 127.126236 170.90625 126.438736Q171.23438 125.751236 171.82812 125.39186Q172.4375 125.01686 173.23438 125.01686Q174.5 125.01686 175.21875 125.969986Q175.95312 126.92311 175.95312 128.54811L175.95312 128.86061Q175.95312 131.36061 174.96875 132.50124Q173.98438 133.64186 172.0 133.67311L171.78125 133.67311L171.78125 132.76686L172.01562 132.76686Q173.35938 132.73561 174.07812 132.06374Q174.79688 131.39186 174.85938 129.92311ZM173.1875 129.92311Q173.73438 129.92311 174.1875 129.59499Q174.65625 129.25124 174.875 128.76686L174.875 128.32936Q174.875 127.26686 174.40625 126.594986Q173.9375 125.92311 173.23438 125.92311Q172.51562 125.92311 172.07812 126.469986Q171.65625 127.01686 171.65625 127.92311Q171.65625 128.79811 172.0625 129.36061Q172.48438 129.92311 173.1875 129.92311Z" fill-rule="nonzero"/><path stroke="#741b47" stroke-width="3.0" stroke-linejoin="round" stroke-linecap="round" d="M264.96875 134.1518L264.96875 135.05804L264.76562 135.05804Q263.5 135.0893 262.75 135.82367Q262.0 136.54242 261.875 137.85492Q262.5625 137.0893 263.71875 137.0893Q264.82812 137.0893 265.5 137.87054Q266.17188 138.6518 266.17188 139.9018Q266.17188 141.2143 265.45312 142.01117Q264.73438 142.80804 263.51562 142.80804Q262.29688 142.80804 261.53125 141.87054Q260.78125 140.91742 260.78125 139.43304L260.78125 139.0268Q260.78125 136.66742 261.78125 135.41742Q262.78125 134.16742 264.76562 134.1518L264.96875 134.1518ZM263.54688 137.99554Q262.98438 137.99554 262.51562 138.32367Q262.04688 138.6518 261.85938 139.16742L261.85938 139.55804Q261.85938 140.62054 262.32812 141.26117Q262.8125 141.9018 263.51562 141.9018Q264.25 141.9018 264.67188 141.37054Q265.09375 140.82367 265.09375 139.94867Q265.09375 139.07367 264.67188 138.54242Q264.25 137.99554 263.54688 137.99554ZM273.29688 142.68304L267.70312 142.68304L267.70312 141.9018L270.65625 138.62054Q271.3125 137.87054 271.5625 137.41742Q271.8125 136.94867 271.8125 136.44867Q271.8125 135.7768 271.40625 135.35492Q271.01562 134.91742 270.32812 134.91742Q269.53125 134.91742 269.07812 135.38617Q268.625 135.8393 268.625 136.66742L267.54688 136.66742Q267.54688 135.47992 268.29688 134.76117Q269.0625 134.0268 270.32812 134.0268Q271.53125 134.0268 272.21875 134.6518Q272.90625 135.2768 272.90625 136.32367Q272.90625 137.57367 271.29688 139.32367L269.01562 141.79242L273.29688 141.79242L273.29688 142.68304ZM279.28125 139.82367L280.46875 139.82367L280.46875 140.69867L279.28125 140.69867L279.28125 142.68304L278.20312 142.68304L278.20312 140.69867L274.3125 140.69867L274.3125 140.05804L278.125 134.1518L279.28125 134.1518L279.28125 139.82367ZM275.54688 139.82367L278.20312 139.82367L278.20312 135.63617L278.0625 135.87054L275.54688 139.82367ZM282.20312 138.4018L282.64062 134.1518L287.01562 134.1518L287.01562 135.1518L283.5625 135.1518L283.29688 137.47992Q283.9375 137.10492 284.73438 137.10492Q285.89062 137.10492 286.57812 137.88617Q287.26562 138.6518 287.26562 139.9643Q287.26562 141.2768 286.54688 142.04242Q285.84375 142.80804 284.5625 142.80804Q283.4375 142.80804 282.71875 142.18304Q282.0 141.54242 281.90625 140.43304L282.92188 140.43304Q283.03125 141.16742 283.45312 141.54242Q283.875 141.91742 284.5625 141.91742Q285.3125 141.91742 285.75 141.4018Q286.1875 140.88617 286.1875 139.97992Q286.1875 139.12054 285.71875 138.60492Q285.25 138.0893 284.46875 138.0893Q283.76562 138.0893 283.35938 138.38617L283.07812 138.62054L282.20312 138.4018Z" fill-rule="nonzero"/><path fill="#ffffff" d="M264.96875 134.1518L264.96875 135.05804L264.76562 135.05804Q263.5 135.0893 262.75 135.82367Q262.0 136.54242 261.875 137.85492Q262.5625 137.0893 263.71875 137.0893Q264.82812 137.0893 265.5 137.87054Q266.17188 138.6518 266.17188 139.9018Q266.17188 141.2143 265.45312 142.01117Q264.73438 142.80804 263.51562 142.80804Q262.29688 142.80804 261.53125 141.87054Q260.78125 140.91742 260.78125 139.43304L260.78125 139.0268Q260.78125 136.66742 261.78125 135.41742Q262.78125 134.16742 264.76562 134.1518L264.96875 134.1518ZM263.54688 137.99554Q262.98438 137.99554 262.51562 138.32367Q262.04688 138.6518 261.85938 139.16742L261.85938 139.55804Q261.85938 140.62054 262.32812 141.26117Q262.8125 141.9018 263.51562 141.9018Q264.25 141.9018 264.67188 141.37054Q265.09375 140.82367 265.09375 139.94867Q265.09375 139.07367 264.67188 138.54242Q264.25 137.99554 263.54688 137.99554ZM273.29688 142.68304L267.70312 142.68304L267.70312 141.9018L270.65625 138.62054Q271.3125 137.87054 271.5625 137.41742Q271.8125 136.94867 271.8125 136.44867Q271.8125 135.7768 271.40625 135.35492Q271.01562 134.91742 270.32812 134.91742Q269.53125 134.91742 269.07812 135.38617Q268.625 135.8393 268.625 136.66742L267.54688 136.66742Q267.54688 135.47992 268.29688 134.76117Q269.0625 134.0268 270.32812 134.0268Q271.53125 134.0268 272.21875 134.6518Q272.90625 135.2768 272.90625 136.32367Q272.90625 137.57367 271.29688 139.32367L269.01562 141.79242L273.29688 141.79242L273.29688 142.68304ZM279.28125 139.82367L280.46875 139.82367L280.46875 140.69867L279.28125 140.69867L279.28125 142.68304L278.20312 142.68304L278.20312 140.69867L274.3125 140.69867L274.3125 140.05804L278.125 134.1518L279.28125 134.1518L279.28125 139.82367ZM275.54688 139.82367L278.20312 139.82367L278.20312 135.63617L278.0625 135.87054L275.54688 139.82367ZM282.20312 138.4018L282.64062 134.1518L287.01562 134.1518L287.01562 135.1518L283.5625 135.1518L283.29688 137.47992Q283.9375 137.10492 284.73438 137.10492Q285.89062 137.10492 286.57812 137.88617Q287.26562 138.6518 287.26562 139.9643Q287.26562 141.2768 286.54688 142.04242Q285.84375 142.80804 284.5625 142.80804Q283.4375 142.80804 282.71875 142.18304Q282.0 141.54242 281.90625 140.43304L282.92188 140.43304Q283.03125 141.16742 283.45312 141.54242Q283.875 141.91742 284.5625 141.91742Q285.3125 141.91742 285.75 141.4018Q286.1875 140.88617 286.1875 139.97992Q286.1875 139.12054 285.71875 138.60492Q285.25 138.0893 284.46875 138.0893Q283.76562 138.0893 283.35938 138.38617L283.07812 138.62054L282.20312 138.4018Z" fill-rule="nonzero"/><path stroke="#a64d79" stroke-width="3.0" stroke-linejoin="round" stroke-linecap="round" d="M376.96875 138.4996L376.96875 139.40585L376.76562 139.40585Q375.5 139.4371 374.75 140.17148Q374.0 140.89023 373.875 142.20273Q374.5625 141.4371 375.71875 141.4371Q376.82812 141.4371 377.5 142.21835Q378.17188 142.9996 378.17188 144.2496Q378.17188 145.5621 377.45312 146.35898Q376.73438 147.15585 375.51562 147.15585Q374.29688 147.15585 373.53125 146.21835Q372.78125 145.26523 372.78125 143.78085L372.78125 143.3746Q372.78125 141.01523 373.78125 139.76523Q374.78125 138.51523 376.76562 138.4996L376.96875 138.4996ZM375.54688 142.34335Q374.98438 142.34335 374.51562 142.67148Q374.04688 142.9996 373.85938 143.51523L373.85938 143.90585Q373.85938 144.96835 374.32812 145.60898Q374.8125 146.2496 375.51562 146.2496Q376.25 146.2496 376.67188 145.71835Q377.09375 145.17148 377.09375 144.29648Q377.09375 143.42148 376.67188 142.89023Q376.25 142.34335 375.54688 142.34335ZM385.0625 143.39023Q385.0625 145.29648 384.40625 146.23398Q383.76562 147.15585 382.375 147.15585Q381.01562 147.15585 380.35938 146.2496Q379.70312 145.34335 379.67188 143.53085L379.67188 142.09335Q379.67188 140.20273 380.3125 139.29648Q380.96875 138.3746 382.35938 138.3746Q383.73438 138.3746 384.39062 139.26523Q385.04688 140.14023 385.0625 141.98398L385.0625 143.39023ZM383.96875 141.90585Q383.96875 140.53085 383.57812 139.90585Q383.20312 139.26523 382.35938 139.26523Q381.53125 139.26523 381.14062 139.90585Q380.76562 140.53085 380.76562 141.82773L380.76562 143.5621Q380.76562 144.9371 381.15625 145.60898Q381.5625 146.26523 382.375 146.26523Q383.17188 146.26523 383.5625 145.64023Q383.95312 145.01523 383.96875 143.6871L383.96875 141.90585ZM392.21875 139.10898L388.6875 147.03085L387.54688 147.03085L391.0625 139.39023L386.45312 139.39023L386.45312 138.4996L392.21875 138.4996L392.21875 139.10898ZM397.85938 143.28085Q397.53125 143.6871 397.04688 143.9371Q396.57812 144.17148 396.01562 144.17148Q395.28125 144.17148 394.73438 143.8121Q394.1875 143.45273 393.89062 142.79648Q393.59375 142.1246 393.59375 141.32773Q393.59375 140.48398 393.90625 139.79648Q394.23438 139.10898 394.82812 138.7496Q395.4375 138.3746 396.23438 138.3746Q397.5 138.3746 398.21875 139.32773Q398.95312 140.28085 398.95312 141.90585L398.95312 142.21835Q398.95312 144.71835 397.96875 145.85898Q396.98438 146.9996 395.0 147.03085L394.78125 147.03085L394.78125 146.1246L395.01562 146.1246Q396.35938 146.09335 397.07812 145.42148Q397.79688 144.7496 397.85938 143.28085ZM396.1875 143.28085Q396.73438 143.28085 397.1875 142.95273Q397.65625 142.60898 397.875 142.1246L397.875 141.6871Q397.875 140.6246 397.40625 139.95273Q396.9375 139.28085 396.23438 139.28085Q395.51562 139.28085 395.07812 139.82773Q394.65625 140.3746 394.65625 141.28085Q394.65625 142.15585 395.0625 142.71835Q395.48438 143.28085 396.1875 143.28085Z" fill-rule="nonzero"/><path fill="#ffffff" d="M376.96875 138.4996L376.96875 139.40585L376.76562 139.40585Q375.5 139.4371 374.75 140.17148Q374.0 140.89023 373.875 142.20273Q374.5625 141.4371 375.71875 141.4371Q376.82812 141.4371 377.5 142.21835Q378.17188 142.9996 378.17188 144.2496Q378.17188 145.5621 377.45312 146.35898Q376.73438 147.15585 375.51562 147.15585Q374.29688 147.15585 373.53125 146.21835Q372.78125 145.26523 372.78125 143.78085L372.78125 143.3746Q372.78125 141.01523 373.78125 139.76523Q374.78125 138.51523 376.76562 138.4996L376.96875 138.4996ZM375.54688 142.34335Q374.98438 142.34335 374.51562 142.67148Q374.04688 142.9996 373.85938 143.51523L373.85938 143.90585Q373.85938 144.96835 374.32812 145.60898Q374.8125 146.2496 375.51562 146.2496Q376.25 146.2496 376.67188 145.71835Q377.09375 145.17148 377.09375 144.29648Q377.09375 143.42148 376.67188 142.89023Q376.25 142.34335 375.54688 142.34335ZM385.0625 143.39023Q385.0625 145.29648 384.40625 146.23398Q383.76562 147.15585 382.375 147.15585Q381.01562 147.15585 380.35938 146.2496Q379.70312 145.34335 379.67188 143.53085L379.67188 142.09335Q379.67188 140.20273 380.3125 139.29648Q380.96875 138.3746 382.35938 138.3746Q383.73438 138.3746 384.39062 139.26523Q385.04688 140.14023 385.0625 141.98398L385.0625 143.39023ZM383.96875 141.90585Q383.96875 140.53085 383.57812 139.90585Q383.20312 139.26523 382.35938 139.26523Q381.53125 139.26523 381.14062 139.90585Q380.76562 140.53085 380.76562 141.82773L380.76562 143.5621Q380.76562 144.9371 381.15625 145.60898Q381.5625 146.26523 382.375 146.26523Q383.17188 146.26523 383.5625 145.64023Q383.95312 145.01523 383.96875 143.6871L383.96875 141.90585ZM392.21875 139.10898L388.6875 147.03085L387.54688 147.03085L391.0625 139.39023L386.45312 139.39023L386.45312 138.4996L392.21875 138.4996L392.21875 139.10898ZM397.85938 143.28085Q397.53125 143.6871 397.04688 143.9371Q396.57812 144.17148 396.01562 144.17148Q395.28125 144.17148 394.73438 143.8121Q394.1875 143.45273 393.89062 142.79648Q393.59375 142.1246 393.59375 141.32773Q393.59375 140.48398 393.90625 139.79648Q394.23438 139.10898 394.82812 138.7496Q395.4375 138.3746 396.23438 138.3746Q397.5 138.3746 398.21875 139.32773Q398.95312 140.28085 398.95312 141.90585L398.95312 142.21835Q398.95312 144.71835 397.96875 145.85898Q396.98438 146.9996 395.0 147.03085L394.78125 147.03085L394.78125 146.1246L395.01562 146.1246Q396.35938 146.09335 397.07812 145.42148Q397.79688 144.7496 397.85938 143.28085ZM396.1875 143.28085Q396.73438 143.28085 397.1875 142.95273Q397.65625 142.60898 397.875 142.1246L397.875 141.6871Q397.875 140.6246 397.40625 139.95273Q396.9375 139.28085 396.23438 139.28085Q395.51562 139.28085 395.07812 139.82773Q394.65625 140.3746 394.65625 141.28085Q394.65625 142.15585 395.0625 142.71835Q395.48438 143.28085 396.1875 143.28085Z" fill-rule="nonzero"/><path stroke="#c27ba0" stroke-width="3.0" stroke-linejoin="round" stroke-linecap="round" d="M484.20312 153.72392L484.64062 149.47392L489.01562 149.47392L489.01562 150.47392L485.5625 150.47392L485.29688 152.80205Q485.9375 152.42705 486.73438 152.42705Q487.89062 152.42705 488.57812 153.2083Q489.26562 153.97392 489.26562 155.28642Q489.26562 156.59892 488.54688 157.36455Q487.84375 158.13017 486.5625 158.13017Q485.4375 158.13017 484.71875 157.50517Q484.0 156.86455 483.90625 155.75517L484.92188 155.75517Q485.03125 156.48955 485.45312 156.86455Q485.875 157.23955 486.5625 157.23955Q487.3125 157.23955 487.75 156.72392Q488.1875 156.2083 488.1875 155.30205Q488.1875 154.44267 487.71875 153.92705Q487.25 153.41142 486.46875 153.41142Q485.76562 153.41142 485.35938 153.7083L485.07812 153.94267L484.20312 153.72392ZM494.96875 149.47392L494.96875 150.38017L494.76562 150.38017Q493.5 150.41142 492.75 151.1458Q492.0 151.86455 491.875 153.17705Q492.5625 152.41142 493.71875 152.41142Q494.82812 152.41142 495.5 153.19267Q496.17188 153.97392 496.17188 155.22392Q496.17188 156.53642 495.45312 157.3333Q494.73438 158.13017 493.51562 158.13017Q492.29688 158.13017 491.53125 157.19267Q490.78125 156.23955 490.78125 154.75517L490.78125 154.34892Q490.78125 151.98955 491.78125 150.73955Q492.78125 149.48955 494.76562 149.47392L494.96875 149.47392ZM493.54688 153.31767Q492.98438 153.31767 492.51562 153.6458Q492.04688 153.97392 491.85938 154.48955L491.85938 154.88017Q491.85938 155.94267 492.32812 156.5833Q492.8125 157.22392 493.51562 157.22392Q494.25 157.22392 494.67188 156.69267Q495.09375 156.1458 495.09375 155.2708Q495.09375 154.3958 494.67188 153.86455Q494.25 153.31767 493.54688 153.31767ZM501.96875 149.47392L501.96875 150.38017L501.76562 150.38017Q500.5 150.41142 499.75 151.1458Q499.0 151.86455 498.875 153.17705Q499.5625 152.41142 500.71875 152.41142Q501.82812 152.41142 502.5 153.19267Q503.17188 153.97392 503.17188 155.22392Q503.17188 156.53642 502.45312 157.3333Q501.73438 158.13017 500.51562 158.13017Q499.29688 158.13017 498.53125 157.19267Q497.78125 156.23955 497.78125 154.75517L497.78125 154.34892Q497.78125 151.98955 498.78125 150.73955Q499.78125 149.48955 501.76562 149.47392L501.96875 149.47392ZM500.54688 153.31767Q499.98438 153.31767 499.51562 153.6458Q499.04688 153.97392 498.85938 154.48955L498.85938 154.88017Q498.85938 155.94267 499.32812 156.5833Q499.8125 157.22392 500.51562 157.22392Q501.25 157.22392 501.67188 156.69267Q502.09375 156.1458 502.09375 155.2708Q502.09375 154.3958 501.67188 153.86455Q501.25 153.31767 500.54688 153.31767ZM510.0625 154.36455Q510.0625 156.2708 509.40625 157.2083Q508.76562 158.13017 507.375 158.13017Q506.01562 158.13017 505.35938 157.22392Q504.70312 156.31767 504.67188 154.50517L504.67188 153.06767Q504.67188 151.17705 505.3125 150.2708Q505.96875 149.34892 507.35938 149.34892Q508.73438 149.34892 509.39062 150.23955Q510.04688 151.11455 510.0625 152.9583L510.0625 154.36455ZM508.96875 152.88017Q508.96875 151.50517 508.57812 150.88017Q508.20312 150.23955 507.35938 150.23955Q506.53125 150.23955 506.14062 150.88017Q505.76562 151.50517 505.76562 152.80205L505.76562 154.53642Q505.76562 155.91142 506.15625 156.5833Q506.5625 157.23955 507.375 157.23955Q508.17188 157.23955 508.5625 156.61455Q508.95312 155.98955 508.96875 154.66142L508.96875 152.88017Z" fill-rule="nonzero"/><path fill="#000000" d="M484.20312 153.72392L484.64062 149.47392L489.01562 149.47392L489.01562 150.47392L485.5625 150.47392L485.29688 152.80205Q485.9375 152.42705 486.73438 152.42705Q487.89062 152.42705 488.57812 153.2083Q489.26562 153.97392 489.26562 155.28642Q489.26562 156.59892 488.54688 157.36455Q487.84375 158.13017 486.5625 158.13017Q485.4375 158.13017 484.71875 157.50517Q484.0 156.86455 483.90625 155.75517L484.92188 155.75517Q485.03125 156.48955 485.45312 156.86455Q485.875 157.23955 486.5625 157.23955Q487.3125 157.23955 487.75 156.72392Q488.1875 156.2083 488.1875 155.30205Q488.1875 154.44267 487.71875 153.92705Q487.25 153.41142 486.46875 153.41142Q485.76562 153.41142 485.35938 153.7083L485.07812 153.94267L484.20312 153.72392ZM494.96875 149.47392L494.96875 150.38017L494.76562 150.38017Q493.5 150.41142 492.75 151.1458Q492.0 151.86455 491.875 153.17705Q492.5625 152.41142 493.71875 152.41142Q494.82812 152.41142 495.5 153.19267Q496.17188 153.97392 496.17188 155.22392Q496.17188 156.53642 495.45312 157.3333Q494.73438 158.13017 493.51562 158.13017Q492.29688 158.13017 491.53125 157.19267Q490.78125 156.23955 490.78125 154.75517L490.78125 154.34892Q490.78125 151.98955 491.78125 150.73955Q492.78125 149.48955 494.76562 149.47392L494.96875 149.47392ZM493.54688 153.31767Q492.98438 153.31767 492.51562 153.6458Q492.04688 153.97392 491.85938 154.48955L491.85938 154.88017Q491.85938 155.94267 492.32812 156.5833Q492.8125 157.22392 493.51562 157.22392Q494.25 157.22392 494.67188 156.69267Q495.09375 156.1458 495.09375 155.2708Q495.09375 154.3958 494.67188 153.86455Q494.25 153.31767 493.54688 153.31767ZM501.96875 149.47392L501.96875 150.38017L501.76562 150.38017Q500.5 150.41142 499.75 151.1458Q499.0 151.86455 498.875 153.17705Q499.5625 152.41142 500.71875 152.41142Q501.82812 152.41142 502.5 153.19267Q503.17188 153.97392 503.17188 155.22392Q503.17188 156.53642 502.45312 157.3333Q501.73438 158.13017 500.51562 158.13017Q499.29688 158.13017 498.53125 157.19267Q497.78125 156.23955 497.78125 154.75517L497.78125 154.34892Q497.78125 151.98955 498.78125 150.73955Q499.78125 149.48955 501.76562 149.47392L501.96875 149.47392ZM500.54688 153.31767Q499.98438 153.31767 499.51562 153.6458Q499.04688 153.97392 498.85938 154.48955L498.85938 154.88017Q498.85938 155.94267 499.32812 156.5833Q499.8125 157.22392 500.51562 157.22392Q501.25 157.22392 501.67188 156.69267Q502.09375 156.1458 502.09375 155.2708Q502.09375 154.3958 501.67188 153.86455Q501.25 153.31767 500.54688 153.31767ZM510.0625 154.36455Q510.0625 156.2708 509.40625 157.2083Q508.76562 158.13017 507.375 158.13017Q506.01562 158.13017 505.35938 157.22392Q504.70312 156.31767 504.67188 154.50517L504.67188 153.06767Q504.67188 151.17705 505.3125 150.2708Q505.96875 149.34892 507.35938 149.34892Q508.73438 149.34892 509.39062 150.23955Q510.04688 151.11455 510.0625 152.9583L510.0625 154.36455ZM508.96875 152.88017Q508.96875 151.50517 508.57812 150.88017Q508.20312 150.23955 507.35938 150.23955Q506.53125 150.23955 506.14062 150.88017Q505.76562 151.50517 505.76562 152.80205L505.76562 154.53642Q505.76562 155.91142 506.15625 156.5833Q506.5625 157.23955 507.375 157.23955Q508.17188 157.23955 508.5625 156.61455Q508.95312 155.98955 508.96875 154.66142L508.96875 152.88017Z" fill-rule="nonzero"/><path fill="#741b47" d="M296.26562 343.71564L299.51562 344.7Q299.1875 346.15314 298.5625 346.98126Q297.9375 347.79376 297.0 348.21564Q296.0625 348.6219 294.65625 348.6219Q292.95312 348.6219 291.85938 348.1219Q290.76562 347.6219 289.95312 346.35626Q289.15625 345.075 289.15625 343.1375Q289.15625 340.54376 290.5625 339.1219Q291.98438 337.7 294.51562 337.7Q296.5 337.7 297.65625 338.52814Q298.8125 339.34064 299.45312 341.29376L296.17188 342.02814Q295.96875 341.3719 295.82812 341.2Q295.60938 340.8875 295.29688 340.73126Q294.98438 340.575 294.57812 340.575Q293.6875 340.575 293.20312 341.29376Q292.82812 341.85626 292.82812 343.1219Q292.82812 344.6844 293.26562 345.21564Q293.70312 345.7469 294.46875 345.7469Q295.23438 345.7469 295.625 345.325Q296.01562 344.8875 296.26562 343.71564ZM300.0 344.5594Q300.0 342.77814 301.20312 341.6219Q302.40625 340.46564 304.4375 340.46564Q306.73438 340.46564 307.92188 341.825Q308.90625 342.91876 308.90625 344.5125Q308.90625 346.325 307.70312 347.48126Q306.51562 348.6219 304.4375 348.6219Q302.59375 348.6219 301.42188 347.66876Q300.0 346.46564 300.0 344.5594ZM303.34375 344.5594Q303.34375 345.41876 303.65625 345.79376Q303.98438 346.16876 304.45312 346.16876Q304.92188 346.16876 305.23438 345.8094Q305.54688 345.4344 305.54688 344.52814Q305.54688 343.6844 305.23438 343.3094Q304.92188 342.9344 304.46875 342.9344Q303.98438 342.9344 303.65625 343.325Q303.34375 343.7 303.34375 344.5594ZM309.34375 340.6219L312.5 340.6219L312.5 341.29376Q312.60938 341.15314 313.26562 340.8094Q313.92188 340.46564 314.84375 340.46564Q316.125 340.46564 316.84375 341.2469Q317.57812 342.0125 317.57812 343.5594L317.57812 348.45L314.21875 348.45L314.21875 344.16876Q314.21875 343.60626 314.04688 343.40314Q313.875 343.2 313.54688 343.2Q313.17188 343.2 312.92188 343.4969Q312.6875 343.77814 312.6875 344.6844L312.6875 348.45L309.34375 348.45L309.34375 340.6219ZM322.26562 337.7L322.26562 340.6219L323.79688 340.6219L323.79688 343.21564L322.26562 343.21564L322.26562 345.5125Q322.26562 345.91876 322.3125 345.9969Q322.35938 346.075 322.54688 346.075Q322.8125 346.075 323.65625 345.8094L323.92188 348.325Q322.60938 348.6219 321.6875 348.6219Q320.5625 348.6219 320.0 348.3094Q319.4375 347.9969 319.17188 347.3875Q318.90625 346.77814 318.90625 345.4969L318.90625 343.21564L317.89062 343.21564L317.89062 340.6219L318.90625 340.6219L318.90625 339.40314L322.26562 337.7ZM332.96875 345.5125L327.42188 345.5125Q327.4375 345.77814 327.67188 346.04376Q328.0 346.41876 328.51562 346.41876Q328.84375 346.41876 329.15625 346.2469Q329.34375 346.1375 329.65625 345.73126L333.0 346.0594Q332.09375 347.59064 331.14062 348.10626Q330.20312 348.6219 328.45312 348.6219Q326.95312 348.6219 326.04688 348.1844Q325.15625 347.73126 324.57812 346.77814Q324.0 345.825 324.0 344.5594Q324.0 342.73126 325.17188 341.60626Q326.34375 340.46564 328.375 340.46564Q330.0 340.46564 330.96875 340.98126Q331.9375 341.48126 332.45312 342.45Q332.96875 343.41876 332.96875 344.91876L332.96875 345.5125ZM329.54688 343.6219Q329.5 343.21564 329.21875 342.95Q328.95312 342.66876 328.48438 342.66876Q327.96875 342.66876 327.65625 343.09064Q327.4375 343.35626 327.42188 343.6219L329.54688 343.6219ZM333.34375 340.6219L336.5 340.6219L336.5 341.29376Q336.60938 341.15314 337.26562 340.8094Q337.92188 340.46564 338.84375 340.46564Q340.125 340.46564 340.84375 341.2469Q341.57812 342.0125 341.57812 343.5594L341.57812 348.45L338.21875 348.45L338.21875 344.16876Q338.21875 343.60626 338.04688 343.40314Q337.875 343.2 337.54688 343.2Q337.17188 343.2 336.92188 343.4969Q336.6875 343.77814 336.6875 344.6844L336.6875 348.45L333.34375 348.45L333.34375 340.6219ZM346.26562 337.7L346.26562 340.6219L347.79688 340.6219L347.79688 343.21564L346.26562 343.21564L346.26562 345.5125Q346.26562 345.91876 346.3125 345.9969Q346.35938 346.075 346.54688 346.075Q346.8125 346.075 347.65625 345.8094L347.92188 348.325Q346.60938 348.6219 345.6875 348.6219Q344.5625 348.6219 344.0 348.3094Q343.4375 347.9969 343.17188 347.3875Q342.90625 346.77814 342.90625 345.4969L342.90625 343.21564L341.89062 343.21564L341.89062 340.6219L342.90625 340.6219L342.90625 339.40314L346.26562 337.7ZM352.82812 337.8719L362.79688 337.8719L362.79688 340.90314L359.64062 340.90314L359.64062 348.45L355.98438 348.45L355.98438 340.90314L352.82812 340.90314L352.82812 337.8719ZM362.39062 340.6219L365.95312 340.6219L367.23438 344.7625L368.42188 340.6219L371.78125 340.6219L368.76562 348.7625Q368.25 350.15314 367.6875 350.66876Q366.89062 351.40314 365.29688 351.40314Q364.67188 351.40314 363.1875 351.2L362.89062 348.60626Q363.85938 348.91876 364.54688 348.91876Q364.95312 348.91876 365.1875 348.7469Q365.42188 348.575 365.5625 348.1844L362.39062 340.6219ZM372.35938 351.21564L372.35938 340.6219L375.51562 340.6219L375.51562 341.1844Q375.59375 341.09064 376.10938 340.8094Q376.78125 340.46564 377.57812 340.46564Q379.17188 340.46564 380.03125 341.66876Q380.90625 342.8719 380.90625 344.60626Q380.90625 346.52814 379.95312 347.575Q379.01562 348.6219 377.5625 348.6219Q376.85938 348.6219 376.28125 348.3719Q375.70312 348.1219 375.6875 348.04376L375.73438 351.21564L372.35938 351.21564ZM375.70312 344.5594Q375.70312 345.3094 375.98438 345.6375Q376.28125 345.96564 376.70312 345.96564Q377.0625 345.96564 377.3125 345.66876Q377.5625 345.35626 377.5625 344.4969Q377.5625 343.71564 377.29688 343.40314Q377.03125 343.075 376.67188 343.075Q376.26562 343.075 375.98438 343.40314Q375.70312 343.73126 375.70312 344.5594ZM389.96875 345.5125L384.42188 345.5125Q384.4375 345.77814 384.67188 346.04376Q385.0 346.41876 385.51562 346.41876Q385.84375 346.41876 386.15625 346.2469Q386.34375 346.1375 386.65625 345.73126L390.0 346.0594Q389.09375 347.59064 388.14062 348.10626Q387.20312 348.6219 385.45312 348.6219Q383.95312 348.6219 383.04688 348.1844Q382.15625 347.73126 381.57812 346.77814Q381.0 345.825 381.0 344.5594Q381.0 342.73126 382.17188 341.60626Q383.34375 340.46564 385.375 340.46564Q387.0 340.46564 387.96875 340.98126Q388.9375 341.48126 389.45312 342.45Q389.96875 343.41876 389.96875 344.91876L389.96875 345.5125ZM386.54688 343.6219Q386.5 343.21564 386.21875 342.95Q385.95312 342.66876 385.48438 342.66876Q384.96875 342.66876 384.65625 343.09064Q384.4375 343.35626 384.42188 343.6219L386.54688 343.6219Z" fill-rule="nonzero"/><path fill="#741b47" d="M20.971888 254.66771L20.971888 245.80833L23.675013 245.80833L23.675013 250.99583L24.690638 250.99583L24.690638 246.18333L27.300013 246.18333L27.300013 250.99583L28.721888 250.99583L28.721888 245.65208L31.550013 245.65208L31.550013 254.66771L20.971888 254.66771ZM23.721888 244.83958L23.721888 241.68333L24.393763 241.68333Q24.253138 241.57396 23.909388 240.91771Q23.565638 240.26146 23.565638 239.33958Q23.565638 238.05833 24.346888 237.33958Q25.112513 236.60521 26.659388 236.60521L31.550013 236.60521L31.550013 239.96458L27.268763 239.96458Q26.706263 239.96458 26.503138 240.13646Q26.300013 240.30833 26.300013 240.63646Q26.300013 241.01146 26.596888 241.26146Q26.878138 241.49583 27.784388 241.49583L31.550013 241.49583L31.550013 244.83958L23.721888 244.83958ZM23.721888 230.79271L23.721888 227.62083L30.862513 227.62083L31.190638 227.62083Q31.940638 227.62083 32.61251 227.94896Q33.284386 228.26146 33.70626 228.79271Q34.14376 229.32396 34.315636 230.12083Q34.503136 230.90208 34.503136 231.88646Q34.503136 234.16771 33.76876 235.07396Q33.05001 235.98021 31.800013 235.98021Q31.643763 235.98021 31.128138 235.94896L31.471888 232.77708Q31.940638 232.65208 32.01876 232.52708Q32.190636 232.27708 32.190636 231.90208Q32.190636 231.43333 31.956263 231.21458Q31.721888 230.99583 31.034388 230.99583L30.550013 230.94896Q30.628138 230.93333 30.878138 231.38646Q31.253138 232.08958 31.253138 232.91771Q31.253138 234.51146 29.862513 235.49583Q28.893763 236.18333 27.315638 236.18333Q25.518763 236.18333 24.550013 235.29271Q23.565638 234.38646 23.565638 232.93333Q23.565638 232.02708 23.893763 231.41771Q24.206263 230.79271 24.206263 230.79271L23.721888 230.79271ZM27.534388 232.83958Q28.206263 232.83958 28.503138 232.58958Q28.800013 232.33958 28.800013 231.91771Q28.800013 231.51146 28.487513 231.24583Q28.175013 230.96458 27.487513 230.96458Q26.815638 230.96458 26.487513 231.26146Q26.143763 231.54271 26.143763 231.96458Q26.143763 232.35521 26.440638 232.60521Q26.721888 232.83958 27.534388 232.83958ZM26.659388 223.83958L26.331263 227.02708Q25.268763 226.79271 24.815638 226.48021Q24.362513 226.15208 24.034388 225.57396Q23.815638 225.13646 23.690638 224.44896Q23.565638 223.74583 23.565638 222.93333Q23.565638 221.65208 23.721888 220.85521Q23.862513 220.04271 24.346888 219.46458Q24.721888 219.07396 25.346888 218.83958Q25.956263 218.60521 26.518763 218.60521L29.721888 218.60521Q30.206263 218.60521 30.471888 218.55833Q30.721888 218.49583 31.550013 218.08958L31.550013 221.32396Q31.096888 221.57396 30.925013 221.63646Q30.753138 221.68333 30.706263 221.55833Q31.143763 221.83958 31.393763 222.43333Q31.721888 223.21458 31.721888 224.26146Q31.721888 225.66771 31.034388 226.43333Q30.346888 227.18333 29.346888 227.18333Q28.409388 227.18333 27.800013 226.62083Q27.206263 226.07396 26.909388 224.68333Q26.596888 223.12083 26.487513 222.68333Q26.362513 222.23021 26.237513 221.88646Q26.034388 221.88646 25.909388 222.02708Q25.784388 222.15208 25.784388 222.57396Q25.784388 223.16771 25.956263 223.43333Q26.081263 223.62083 26.659388 223.83958ZM28.221888 221.88646Q28.300013 222.10521 28.456263 222.74583Q28.659388 223.51146 28.831263 223.68333Q28.971888 223.83958 29.143763 223.83958Q29.346888 223.83958 29.487513 223.69896Q29.612513 223.54271 29.612513 223.21458Q29.612513 222.82396 29.425013 222.49583Q29.237513 222.15208 28.987513 222.02708Q28.721888 221.88646 28.268763 221.88646L28.221888 221.88646ZM23.721888 212.79271L23.721888 209.62083L30.862513 209.62083L31.190638 209.62083Q31.940638 209.62083 32.61251 209.94896Q33.284386 210.26146 33.70626 210.79271Q34.14376 211.32396 34.315636 212.12083Q34.503136 212.90208 34.503136 213.88646Q34.503136 216.16771 33.76876 217.07396Q33.05001 217.98021 31.800013 217.98021Q31.643763 217.98021 31.128138 217.94896L31.471888 214.77708Q31.940638 214.65208 32.01876 214.52708Q32.190636 214.27708 32.190636 213.90208Q32.190636 213.43333 31.956263 213.21458Q31.721888 212.99583 31.034388 212.99583L30.550013 212.94896Q30.628138 212.93333 30.878138 213.38646Q31.253138 214.08958 31.253138 214.91771Q31.253138 216.51146 29.862513 217.49583Q28.893763 218.18333 27.315638 218.18333Q25.518763 218.18333 24.550013 217.29271Q23.565638 216.38646 23.565638 214.93333Q23.565638 214.02708 23.893763 213.41771Q24.206263 212.79271 24.206263 212.79271L23.721888 212.79271ZM27.534388 214.83958Q28.206263 214.83958 28.503138 214.58958Q28.800013 214.33958 28.800013 213.91771Q28.800013 213.51146 28.487513 213.24583Q28.175013 212.96458 27.487513 212.96458Q26.815638 212.96458 26.487513 213.26146Q26.143763 213.54271 26.143763 213.96458Q26.143763 214.35521 26.440638 214.60521Q26.721888 214.83958 27.534388 214.83958ZM28.612513 200.21458L28.612513 205.76146Q28.878138 205.74583 29.143763 205.51146Q29.518763 205.18333 29.518763 204.66771Q29.518763 204.33958 29.346888 204.02708Q29.237513 203.83958 28.831263 203.52708L29.159388 200.18333Q30.690638 201.08958 31.206263 202.04271Q31.721888 202.98021 31.721888 204.73021Q31.721888 206.23021 31.284388 207.13646Q30.831263 208.02708 29.878138 208.60521Q28.925013 209.18333 27.659388 209.18333Q25.831263 209.18333 24.706263 208.01146Q23.565638 206.83958 23.565638 204.80833Q23.565638 203.18333 24.081263 202.21458Q24.581263 201.24583 25.550013 200.73021Q26.518763 200.21458 28.018763 200.21458L28.612513 200.21458ZM26.721888 203.63646Q26.315638 203.68333 26.050013 203.96458Q25.768763 204.23021 25.768763 204.69896Q25.768763 205.21458 26.190638 205.52708Q26.456263 205.74583 26.721888 205.76146L26.721888 203.63646ZM23.721888 199.82396L23.721888 196.66771L24.300013 196.66771Q24.175013 196.55833 23.878138 195.93333Q23.565638 195.30833 23.565638 194.43333Q23.565638 193.48021 23.909388 192.91771Q24.253138 192.33958 24.581263 192.16771Q24.128138 191.74583 23.846888 191.15208Q23.565638 190.55833 23.565638 189.69896Q23.565638 188.40208 24.346888 187.66771Q25.128138 186.93333 26.706263 186.93333L31.550013 186.93333L31.550013 190.29271L27.128138 190.29271Q26.737513 190.29271 26.565638 190.41771Q26.300013 190.62083 26.300013 190.90208Q26.300013 191.26146 26.581263 191.49583Q26.846888 191.71458 27.518763 191.71458L31.550013 191.71458L31.550013 195.05833L27.268763 195.05833Q26.831263 195.05833 26.706263 195.10521Q26.518763 195.16771 26.409388 195.32396Q26.300013 195.46458 26.300013 195.65208Q26.300013 196.01146 26.581263 196.24583Q26.846888 196.46458 27.565638 196.46458L31.550013 196.46458L31.550013 199.82396L23.721888 199.82396ZM28.612513 177.21458L28.612513 182.76146Q28.878138 182.74583 29.143763 182.51146Q29.518763 182.18333 29.518763 181.66771Q29.518763 181.33958 29.346888 181.02708Q29.237513 180.83958 28.831263 180.52708L29.159388 177.18333Q30.690638 178.08958 31.206263 179.04271Q31.721888 179.98021 31.721888 181.73021Q31.721888 183.23021 31.284388 184.13646Q30.831263 185.02708 29.878138 185.60521Q28.925013 186.18333 27.659388 186.18333Q25.831263 186.18333 24.706263 185.01146Q23.565638 183.83958 23.565638 181.80833Q23.565638 180.18333 24.081263 179.21458Q24.581263 178.24583 25.550013 177.73021Q26.518763 177.21458 28.018763 177.21458L28.612513 177.21458ZM26.721888 180.63646Q26.315638 180.68333 26.050013 180.96458Q25.768763 181.23021 25.768763 181.69896Q25.768763 182.21458 26.190638 182.52708Q26.456263 182.74583 26.721888 182.76146L26.721888 180.63646ZM23.721888 176.83958L23.721888 173.68333L24.393763 173.68333Q24.253138 173.57396 23.909388 172.91771Q23.565638 172.26146 23.565638 171.33958Q23.565638 170.05833 24.346888 169.33958Q25.112513 168.60521 26.659388 168.60521L31.550013 168.60521L31.550013 171.96458L27.268763 171.96458Q26.706263 171.96458 26.503138 172.13646Q26.300013 172.30833 26.300013 172.63646Q26.300013 173.01146 26.596888 173.26146Q26.878138 173.49583 27.784388 173.49583L31.550013 173.49583L31.550013 176.83958L23.721888 176.83958ZM20.800013 163.91771L23.721888 163.91771L23.721888 162.38646L26.315638 162.38646L26.315638 163.91771L28.612513 163.91771Q29.018763 163.91771 29.096888 163.87083Q29.175013 163.82396 29.175013 163.63646Q29.175013 163.37083 28.909388 162.52708L31.425013 162.26146Q31.721888 163.57396 31.721888 164.49583Q31.721888 165.62083 31.409388 166.18333Q31.096888 166.74583 30.487513 167.01146Q29.878138 167.27708 28.596888 167.27708L26.315638 167.27708L26.315638 168.29271L23.721888 168.29271L23.721888 167.27708L22.503138 167.27708L20.800013 163.91771ZM26.815638 149.91771L27.800013 146.66771Q29.253138 146.99583 30.081263 147.62083Q30.893763 148.24583 31.315638 149.18333Q31.721888 150.12083 31.721888 151.52708Q31.721888 153.23021 31.221888 154.32396Q30.721888 155.41771 29.456263 156.23021Q28.175013 157.02708 26.237513 157.02708Q23.643763 157.02708 22.221888 155.62083Q20.800013 154.19896 20.800013 151.66771Q20.800013 149.68333 21.628138 148.52708Q22.440638 147.37083 24.393763 146.73021L25.128138 150.01146Q24.471888 150.21458 24.300013 150.35521Q23.987513 150.57396 23.831263 150.88646Q23.675013 151.19896 23.675013 151.60521Q23.675013 152.49583 24.393763 152.98021Q24.956263 153.35521 26.221888 153.35521Q27.784388 153.35521 28.315638 152.91771Q28.846888 152.48021 28.846888 151.71458Q28.846888 150.94896 28.425013 150.55833Q27.987513 150.16771 26.815638 149.91771ZM27.659388 146.18333Q25.878138 146.18333 24.721888 144.98021Q23.565638 143.77708 23.565638 141.74583Q23.565638 139.44896 24.925013 138.26146Q26.018763 137.27708 27.612513 137.27708Q29.425013 137.27708 30.581263 138.48021Q31.721888 139.66771 31.721888 141.74583Q31.721888 143.58958 30.768763 144.76146Q29.565638 146.18333 27.659388 146.18333ZM27.659388 142.83958Q28.518763 142.83958 28.893763 142.52708Q29.268763 142.19896 29.268763 141.73021Q29.268763 141.26146 28.909388 140.94896Q28.534388 140.63646 27.628138 140.63646Q26.784388 140.63646 26.409388 140.94896Q26.034388 141.26146 26.034388 141.71458Q26.034388 142.19896 26.425013 142.52708Q26.800013 142.83958 27.659388 142.83958ZM31.550013 128.63646L31.550013 131.79271L30.893763 131.79271Q31.034388 131.90208 31.378138 132.55833Q31.721888 133.21458 31.721888 134.13646Q31.721888 135.40208 30.956263 136.13646Q30.175013 136.87083 28.628138 136.87083L23.721888 136.87083L23.721888 133.51146L28.003138 133.51146Q28.581263 133.51146 28.784388 133.33958Q28.971888 133.16771 28.971888 132.82396Q28.971888 132.46458 28.690638 132.23021Q28.393763 131.98021 27.503138 131.98021L23.721888 131.98021L23.721888 128.63646L31.550013 128.63646ZM23.721888 127.839584L23.721888 124.683334L24.393763 124.683334Q24.253138 124.57396 23.909388 123.91771Q23.565638 123.26146 23.565638 122.339584Q23.565638 121.058334 24.346888 120.339584Q25.112513 119.60521 26.659388 119.60521L31.550013 119.60521L31.550013 122.964584L27.268763 122.964584Q26.706263 122.964584 26.503138 123.13646Q26.300013 123.308334 26.300013 123.63646Q26.300013 124.01146 26.596888 124.26146Q26.878138 124.495834 27.784388 124.495834L31.550013 124.495834L31.550013 127.839584L23.721888 127.839584ZM20.800013 114.91771L23.721888 114.91771L23.721888 113.38646L26.315638 113.38646L26.315638 114.91771L28.612513 114.91771Q29.018763 114.91771 29.096888 114.870834Q29.175013 114.82396 29.175013 114.63646Q29.175013 114.370834 28.909388 113.527084L31.425013 113.26146Q31.721888 114.57396 31.721888 115.495834Q31.721888 116.620834 31.409388 117.183334Q31.096888 117.745834 30.487513 118.01146Q29.878138 118.277084 28.596888 118.277084L26.315638 118.277084L26.315638 119.29271L23.721888 119.29271L23.721888 118.277084L22.503138 118.277084L20.800013 114.91771Z" fill-rule="nonzero"/><path fill="#000000" d="M78.05 271.21564Q78.05 269.6844 78.3625 268.7625Q78.675 267.825 79.28438 267.325Q79.90938 266.825 80.84688 266.825Q81.53438 266.825 82.05 267.10626Q82.58125 267.3875 82.925 267.91876Q83.26875 268.4344 83.45625 269.1844Q83.64375 269.9344 83.64375 271.21564Q83.64375 272.73126 83.33125 273.65314Q83.03438 274.575 82.40938 275.09064Q81.8 275.59064 80.84688 275.59064Q79.6125 275.59064 78.89375 274.7Q78.05 273.6375 78.05 271.21564ZM79.12813 271.21564Q79.12813 273.325 79.62813 274.02814Q80.12813 274.73126 80.84688 274.73126Q81.58125 274.73126 82.06563 274.02814Q82.56563 273.325 82.56563 271.21564Q82.56563 269.09064 82.06563 268.40314Q81.58125 267.7 80.83125 267.7Q80.1125 267.7 79.675 268.3094Q79.12813 269.09064 79.12813 271.21564Z" fill-rule="nonzero"/><path fill="#000000" d="M62.596874 222.05104L62.596874 223.06667L56.909374 223.06667Q56.909374 222.69167 57.034374 222.33229Q57.253124 221.75417 57.721874 221.19167Q58.20625 220.62917 59.1125 219.89479Q60.51875 218.73854 61.003124 218.06667Q61.503124 217.39479 61.503124 216.80104Q61.503124 216.17604 61.05 215.75417Q60.596874 215.31667 59.878124 215.31667Q59.1125 215.31667 58.659374 215.76979Q58.20625 216.22292 58.190624 217.03542L57.1125 216.92604Q57.221874 215.70729 57.940624 215.08229Q58.675 214.44167 59.909374 214.44167Q61.14375 214.44167 61.8625 215.12917Q62.58125 215.81667 62.58125 216.83229Q62.58125 217.34792 62.3625 217.84792Q62.159374 218.33229 61.659374 218.89479Q61.175 219.44167 60.05 220.39479Q59.096874 221.19167 58.815624 221.48854Q58.55 221.76979 58.378124 222.05104L62.596874 222.05104ZM64.05 218.83229Q64.05 217.30104 64.3625 216.37917Q64.675 215.44167 65.28438 214.94167Q65.90938 214.44167 66.84688 214.44167Q67.53438 214.44167 68.05 214.72292Q68.58125 215.00417 68.925 215.53542Q69.26875 216.05104 69.45625 216.80104Q69.64375 217.55104 69.64375 218.83229Q69.64375 220.34792 69.33125 221.26979Q69.03438 222.19167 68.40938 222.70729Q67.8 223.20729 66.84688 223.20729Q65.6125 223.20729 64.89375 222.31667Q64.05 221.25417 64.05 218.83229ZM65.12813 218.83229Q65.12813 220.94167 65.62813 221.64479Q66.12813 222.34792 66.84688 222.34792Q67.58125 222.34792 68.06563 221.64479Q68.56563 220.94167 68.56563 218.83229Q68.56563 216.70729 68.06563 216.01979Q67.58125 215.31667 66.83125 215.31667Q66.1125 215.31667 65.675 215.92604Q65.12813 216.70729 65.12813 218.83229ZM71.05 218.83229Q71.05 217.30104 71.3625 216.37917Q71.675 215.44167 72.28438 214.94167Q72.90938 214.44167 73.84688 214.44167Q74.53438 214.44167 75.05 214.72292Q75.58125 215.00417 75.925 215.53542Q76.26875 216.05104 76.45625 216.80104Q76.64375 217.55104 76.64375 218.83229Q76.64375 220.34792 76.33125 221.26979Q76.03438 222.19167 75.40938 222.70729Q74.8 223.20729 73.84688 223.20729Q72.6125 223.20729 71.89375 222.31667Q71.05 221.25417 71.05 218.83229ZM72.12813 218.83229Q72.12813 220.94167 72.62813 221.64479Q73.12813 222.34792 73.84688 222.34792Q74.58125 222.34792 75.06563 221.64479Q75.56563 220.94167 75.56563 218.83229Q75.56563 216.70729 75.06563 216.01979Q74.58125 215.31667 73.83125 215.31667Q73.1125 215.31667 72.675 215.92604Q72.12813 216.70729 72.12813 218.83229ZM78.05 218.83229Q78.05 217.30104 78.3625 216.37917Q78.675 215.44167 79.28438 214.94167Q79.90938 214.44167 80.84688 214.44167Q81.53438 214.44167 82.05 214.72292Q82.58125 215.00417 82.925 215.53542Q83.26875 216.05104 83.45625 216.80104Q83.64375 217.55104 83.64375 218.83229Q83.64375 220.34792 83.33125 221.26979Q83.03438 222.19167 82.40938 222.70729Q81.8 223.20729 80.84688 223.20729Q79.6125 223.20729 78.89375 222.31667Q78.05 221.25417 78.05 218.83229ZM79.12813 218.83229Q79.12813 220.94167 79.62813 221.64479Q80.12813 222.34792 80.84688 222.34792Q81.58125 222.34792 82.06563 221.64479Q82.56563 220.94167 82.56563 218.83229Q82.56563 216.70729 82.06563 216.01979Q81.58125 215.31667 80.83125 215.31667Q80.1125 215.31667 79.675 215.92604Q79.12813 216.70729 79.12813 218.83229Z" fill-rule="nonzero"/><path fill="#000000" d="M60.425 170.68333L60.425 168.62083L56.70625 168.62083L56.70625 167.65208L60.628124 162.08958L61.4875 162.08958L61.4875 167.65208L62.64375 167.65208L62.64375 168.62083L61.4875 168.62083L61.4875 170.68333L60.425 170.68333ZM60.425 167.65208L60.425 163.79271L57.7375 167.65208L60.425 167.65208ZM64.05 166.44896Q64.05 164.91771 64.3625 163.99583Q64.675 163.05833 65.28438 162.55833Q65.90938 162.05833 66.84688 162.05833Q67.53438 162.05833 68.05 162.33958Q68.58125 162.62083 68.925 163.15208Q69.26875 163.66771 69.45625 164.41771Q69.64375 165.16771 69.64375 166.44896Q69.64375 167.96458 69.33125 168.88646Q69.03438 169.80833 68.40938 170.32396Q67.8 170.82396 66.84688 170.82396Q65.6125 170.82396 64.89375 169.93333Q64.05 168.87083 64.05 166.44896ZM65.12813 166.44896Q65.12813 168.55833 65.62813 169.26146Q66.12813 169.96458 66.84688 169.96458Q67.58125 169.96458 68.06563 169.26146Q68.56563 168.55833 68.56563 166.44896Q68.56563 164.32396 68.06563 163.63646Q67.58125 162.93333 66.83125 162.93333Q66.1125 162.93333 65.675 163.54271Q65.12813 164.32396 65.12813 166.44896ZM71.05 166.44896Q71.05 164.91771 71.3625 163.99583Q71.675 163.05833 72.28438 162.55833Q72.90938 162.05833 73.84688 162.05833Q74.53438 162.05833 75.05 162.33958Q75.58125 162.62083 75.925 163.15208Q76.26875 163.66771 76.45625 164.41771Q76.64375 165.16771 76.64375 166.44896Q76.64375 167.96458 76.33125 168.88646Q76.03438 169.80833 75.40938 170.32396Q74.8 170.82396 73.84688 170.82396Q72.6125 170.82396 71.89375 169.93333Q71.05 168.87083 71.05 166.44896ZM72.12813 166.44896Q72.12813 168.55833 72.62813 169.26146Q73.12813 169.96458 73.84688 169.96458Q74.58125 169.96458 75.06563 169.26146Q75.56563 168.55833 75.56563 166.44896Q75.56563 164.32396 75.06563 163.63646Q74.58125 162.93333 73.83125 162.93333Q73.1125 162.93333 72.675 163.54271Q72.12813 164.32396 72.12813 166.44896ZM78.05 166.44896Q78.05 164.91771 78.3625 163.99583Q78.675 163.05833 79.28438 162.55833Q79.90938 162.05833 80.84688 162.05833Q81.53438 162.05833 82.05 162.33958Q82.58125 162.62083 82.925 163.15208Q83.26875 163.66771 83.45625 164.41771Q83.64375 165.16771 83.64375 166.44896Q83.64375 167.96458 83.33125 168.88646Q83.03438 169.80833 82.40938 170.32396Q81.8 170.82396 80.84688 170.82396Q79.6125 170.82396 78.89375 169.93333Q78.05 168.87083 78.05 166.44896ZM79.12813 166.44896Q79.12813 168.55833 79.62813 169.26146Q80.12813 169.96458 80.84688 169.96458Q81.58125 169.96458 82.06563 169.26146Q82.56563 168.55833 82.56563 166.44896Q82.56563 164.32396 82.06563 163.63646Q81.58125 162.93333 80.83125 162.93333Q80.1125 162.93333 79.675 163.54271Q79.12813 164.32396 79.12813 166.44896Z" fill-rule="nonzero"/><path fill="#000000" d="M62.51875 111.81563L61.471874 111.89375Q61.33125 111.26875 61.08125 110.9875Q60.64375 110.53438 60.01875 110.53438Q59.51875 110.53438 59.128124 110.81563Q58.64375 111.19063 58.346874 111.89375Q58.065624 112.58125 58.05 113.8625Q58.425 113.28438 58.971874 113.00313Q59.534374 112.72188 60.14375 112.72188Q61.190624 112.72188 61.925 113.50313Q62.675 114.28438 62.675 115.50313Q62.675 116.31563 62.315624 117.01875Q61.971874 117.70625 61.3625 118.08125Q60.753124 118.44063 59.9875 118.44063Q58.659374 118.44063 57.83125 117.47188Q57.003124 116.50313 57.003124 114.28438Q57.003124 111.78438 57.925 110.65938Q58.721874 109.675 60.08125 109.675Q61.096874 109.675 61.7375 110.25313Q62.39375 110.81563 62.51875 111.81563ZM58.221874 115.51875Q58.221874 116.06563 58.440624 116.56563Q58.675 117.05 59.08125 117.31563Q59.503124 117.58125 59.971874 117.58125Q60.628124 117.58125 61.1125 117.05Q61.596874 116.50313 61.596874 115.58125Q61.596874 114.69063 61.1125 114.175Q60.64375 113.65938 59.925 113.65938Q59.20625 113.65938 58.70625 114.175Q58.221874 114.69063 58.221874 115.51875ZM64.05 114.06563Q64.05 112.53438 64.3625 111.6125Q64.675 110.675 65.28438 110.175Q65.90938 109.675 66.84688 109.675Q67.53438 109.675 68.05 109.95625Q68.58125 110.2375 68.925 110.76875Q69.26875 111.28438 69.45625 112.03438Q69.64375 112.78438 69.64375 114.06563Q69.64375 115.58125 69.33125 116.50313Q69.03438 117.425 68.40938 117.94063Q67.8 118.44063 66.84688 118.44063Q65.6125 118.44063 64.89375 117.55Q64.05 116.4875 64.05 114.06563ZM65.12813 114.06563Q65.12813 116.175 65.62813 116.87813Q66.12813 117.58125 66.84688 117.58125Q67.58125 117.58125 68.06563 116.87813Q68.56563 116.175 68.56563 114.06563Q68.56563 111.94063 68.06563 111.25313Q67.58125 110.55 66.83125 110.55Q66.1125 110.55 65.675 111.15938Q65.12813 111.94063 65.12813 114.06563ZM71.05 114.06563Q71.05 112.53438 71.3625 111.6125Q71.675 110.675 72.28438 110.175Q72.90938 109.675 73.84688 109.675Q74.53438 109.675 75.05 109.95625Q75.58125 110.2375 75.925 110.76875Q76.26875 111.28438 76.45625 112.03438Q76.64375 112.78438 76.64375 114.06563Q76.64375 115.58125 76.33125 116.50313Q76.03438 117.425 75.40938 117.94063Q74.8 118.44063 73.84688 118.44063Q72.6125 118.44063 71.89375 117.55Q71.05 116.4875 71.05 114.06563ZM72.12813 114.06563Q72.12813 116.175 72.62813 116.87813Q73.12813 117.58125 73.84688 117.58125Q74.58125 117.58125 75.06563 116.87813Q75.56563 116.175 75.56563 114.06563Q75.56563 111.94063 75.06563 111.25313Q74.58125 110.55 73.83125 110.55Q73.1125 110.55 72.675 111.15938Q72.12813 111.94063 72.12813 114.06563ZM78.05 114.06563Q78.05 112.53438 78.3625 111.6125Q78.675 110.675 79.28438 110.175Q79.90938 109.675 80.84688 109.675Q81.53438 109.675 82.05 109.95625Q82.58125 110.2375 82.925 110.76875Q83.26875 111.28438 83.45625 112.03438Q83.64375 112.78438 83.64375 114.06563Q83.64375 115.58125 83.33125 116.50313Q83.03438 117.425 82.40938 117.94063Q81.8 118.44063 80.84688 118.44063Q79.6125 118.44063 78.89375 117.55Q78.05 116.4875 78.05 114.06563ZM79.12813 114.06563Q79.12813 116.175 79.62813 116.87813Q80.12813 117.58125 80.84688 117.58125Q81.58125 117.58125 82.06563 116.87813Q82.56563 116.175 82.56563 114.06563Q82.56563 111.94063 82.06563 111.25313Q81.58125 110.55 80.83125 110.55Q80.1125 110.55 79.675 111.15938Q79.12813 111.94063 79.12813 114.06563Z" fill-rule="nonzero"/><path fill="#000000" d="M58.675 61.260414Q58.01875 61.010414 57.690624 60.572914Q57.378124 60.11979 57.378124 59.510414Q57.378124 58.572914 58.05 57.93229Q58.7375 57.291664 59.846874 57.291664Q60.971874 57.291664 61.659374 57.947914Q62.346874 58.604164 62.346874 59.541664Q62.346874 60.135414 62.034374 60.572914Q61.721874 61.010414 61.08125 61.260414Q61.878124 61.510414 62.284374 62.08854Q62.690624 62.666664 62.690624 63.46354Q62.690624 64.55729 61.909374 65.30729Q61.14375 66.05729 59.8625 66.05729Q58.596874 66.05729 57.815624 65.30729Q57.034374 64.55729 57.034374 63.43229Q57.034374 62.58854 57.45625 62.02604Q57.89375 61.46354 58.675 61.260414ZM58.45625 59.46354Q58.45625 60.072914 58.846874 60.46354Q59.253124 60.854164 59.878124 60.854164Q60.4875 60.854164 60.878124 60.479164Q61.26875 60.08854 61.26875 59.52604Q61.26875 58.947914 60.8625 58.55729Q60.45625 58.15104 59.8625 58.15104Q59.253124 58.15104 58.846874 58.541664Q58.45625 58.93229 58.45625 59.46354ZM58.128124 63.43229Q58.128124 63.885414 58.33125 64.30729Q58.55 64.729164 58.971874 64.96354Q59.39375 65.197914 59.878124 65.197914Q60.628124 65.197914 61.1125 64.71354Q61.6125 64.229164 61.6125 63.479164Q61.6125 62.71354 61.1125 62.21354Q60.6125 61.71354 59.846874 61.71354Q59.096874 61.71354 58.6125 62.21354Q58.128124 62.697914 58.128124 63.43229ZM64.05 61.68229Q64.05 60.15104 64.3625 59.229164Q64.675 58.291664 65.28438 57.791664Q65.90938 57.291664 66.84688 57.291664Q67.53438 57.291664 68.05 57.572914Q68.58125 57.854164 68.925 58.385414Q69.26875 58.90104 69.45625 59.65104Q69.64375 60.40104 69.64375 61.68229Q69.64375 63.197914 69.33125 64.11979Q69.03438 65.041664 68.40938 65.55729Q67.8 66.05729 66.84688 66.05729Q65.6125 66.05729 64.89375 65.166664Q64.05 64.104164 64.05 61.68229ZM65.12813 61.68229Q65.12813 63.791664 65.62813 64.49479Q66.12813 65.197914 66.84688 65.197914Q67.58125 65.197914 68.06563 64.49479Q68.56563 63.791664 68.56563 61.68229Q68.56563 59.55729 68.06563 58.86979Q67.58125 58.166664 66.83125 58.166664Q66.1125 58.166664 65.675 58.77604Q65.12813 59.55729 65.12813 61.68229ZM71.05 61.68229Q71.05 60.15104 71.3625 59.229164Q71.675 58.291664 72.28438 57.791664Q72.90938 57.291664 73.84688 57.291664Q74.53438 57.291664 75.05 57.572914Q75.58125 57.854164 75.925 58.385414Q76.26875 58.90104 76.45625 59.65104Q76.64375 60.40104 76.64375 61.68229Q76.64375 63.197914 76.33125 64.11979Q76.03438 65.041664 75.40938 65.55729Q74.8 66.05729 73.84688 66.05729Q72.6125 66.05729 71.89375 65.166664Q71.05 64.104164 71.05 61.68229ZM72.12813 61.68229Q72.12813 63.791664 72.62813 64.49479Q73.12813 65.197914 73.84688 65.197914Q74.58125 65.197914 75.06563 64.49479Q75.56563 63.791664 75.56563 61.68229Q75.56563 59.55729 75.06563 58.86979Q74.58125 58.166664 73.83125 58.166664Q73.1125 58.166664 72.675 58.77604Q72.12813 59.55729 72.12813 61.68229ZM78.05 61.68229Q78.05 60.15104 78.3625 59.229164Q78.675 58.291664 79.28438 57.791664Q79.90938 57.291664 80.84688 57.291664Q81.53438 57.291664 82.05 57.572914Q82.58125 57.854164 82.925 58.385414Q83.26875 58.90104 83.45625 59.65104Q83.64375 60.40104 83.64375 61.68229Q83.64375 63.197914 83.33125 64.11979Q83.03438 65.041664 82.40938 65.55729Q81.8 66.05729 80.84688 66.05729Q79.6125 66.05729 78.89375 65.166664Q78.05 64.104164 78.05 61.68229ZM79.12813 61.68229Q79.12813 63.791664 79.62813 64.49479Q80.12813 65.197914 80.84688 65.197914Q81.58125 65.197914 82.06563 64.49479Q82.56563 63.791664 82.56563 61.68229Q82.56563 59.55729 82.06563 58.86979Q81.58125 58.166664 80.83125 58.166664Q80.1125 58.166664 79.675 58.77604Q79.12813 59.55729 79.12813 61.68229Z" fill-rule="nonzero"/><path fill="#000000" d="M147.1681 311.45L147.1681 302.85626L149.94936 302.85626Q151.52748 302.85626 152.01186 302.98126Q152.74623 303.1844 153.24623 303.84064Q153.74623 304.48126 153.74623 305.4969Q153.74623 306.29376 153.44936 306.84064Q153.1681 307.3719 152.7306 307.6844Q152.2931 307.98126 151.82436 308.09064Q151.21498 308.21564 150.02748 308.21564L148.90248 308.21564L148.90248 311.45L147.1681 311.45ZM148.90248 304.3094L148.90248 306.7469L149.8556 306.7469Q150.87123 306.7469 151.21498 306.6219Q151.57436 306.48126 151.76186 306.2Q151.96498 305.90314 151.96498 305.52814Q151.96498 305.0594 151.68373 304.7625Q151.40248 304.45 150.9806 304.3719Q150.68373 304.3094 149.74623 304.3094L148.90248 304.3094ZM156.7931 302.85626L156.7931 306.0125Q157.58998 305.09064 158.69936 305.09064Q159.26186 305.09064 159.71498 305.3094Q160.18373 305.5125 160.4181 305.84064Q160.65248 306.16876 160.7306 306.575Q160.80873 306.96564 160.80873 307.79376L160.80873 311.45L159.1681 311.45L159.1681 308.16876Q159.1681 307.1844 159.07436 306.91876Q158.9806 306.65314 158.74623 306.4969Q158.51186 306.34064 158.15248 306.34064Q157.74623 306.34064 157.4181 306.54376Q157.08998 306.7469 156.93373 307.15314Q156.7931 307.54376 156.7931 308.325L156.7931 311.45L155.15248 311.45L155.15248 302.85626L156.7931 302.85626ZM161.77748 308.2469Q161.77748 307.4344 162.18373 306.66876Q162.58998 305.8875 163.32436 305.4969Q164.05873 305.09064 164.9806 305.09064Q166.38686 305.09064 167.2931 306.0125Q168.19936 306.91876 168.19936 308.325Q168.19936 309.73126 167.27748 310.66876Q166.37123 311.59064 164.99623 311.59064Q164.13686 311.59064 163.3556 311.2Q162.58998 310.8094 162.18373 310.075Q161.77748 309.325 161.77748 308.2469ZM163.46498 308.34064Q163.46498 309.2625 163.90248 309.7625Q164.33998 310.2469 164.9806 310.2469Q165.63686 310.2469 166.05873 309.7625Q166.49623 309.2625 166.49623 308.325Q166.49623 307.41876 166.05873 306.9344Q165.63686 306.4344 164.9806 306.4344Q164.33998 306.4344 163.90248 306.9344Q163.46498 307.41876 163.46498 308.34064ZM172.01186 305.23126L172.01186 306.54376L170.88686 306.54376L170.88686 309.04376Q170.88686 309.8094 170.9181 309.9344Q170.94936 310.0594 171.05873 310.15314Q171.18373 310.23126 171.33998 310.23126Q171.57436 310.23126 171.99623 310.0594L172.13686 311.34064Q171.57436 311.59064 170.83998 311.59064Q170.40248 311.59064 170.0431 311.45Q169.68373 311.29376 169.51186 311.0594Q169.3556 310.8094 169.27748 310.41876Q169.2306 310.1219 169.2306 309.2469L169.2306 306.54376L168.4806 306.54376L168.4806 305.23126L169.2306 305.23126L169.2306 303.9969L170.88686 303.02814L170.88686 305.23126L172.01186 305.23126ZM172.77748 308.2469Q172.77748 307.4344 173.18373 306.66876Q173.58998 305.8875 174.32436 305.4969Q175.05873 305.09064 175.9806 305.09064Q177.38686 305.09064 178.2931 306.0125Q179.19936 306.91876 179.19936 308.325Q179.19936 309.73126 178.27748 310.66876Q177.37123 311.59064 175.99623 311.59064Q175.13686 311.59064 174.3556 311.2Q173.58998 310.8094 173.18373 310.075Q172.77748 309.325 172.77748 308.2469ZM174.46498 308.34064Q174.46498 309.2625 174.90248 309.7625Q175.33998 310.2469 175.9806 310.2469Q176.63686 310.2469 177.05873 309.7625Q177.49623 309.2625 177.49623 308.325Q177.49623 307.41876 177.05873 306.9344Q176.63686 306.4344 175.9806 306.4344Q175.33998 306.4344 174.90248 306.9344Q174.46498 307.41876 174.46498 308.34064Z" fill-rule="nonzero"/><path fill="#000000" d="M261.32687 311.45L258.26437 302.85626L260.13937 302.85626L262.31125 309.21564L264.42062 302.85626L266.26437 302.85626L263.18625 311.45L261.32687 311.45ZM267.12375 304.3875L267.12375 302.85626L268.78 302.85626L268.78 304.3875L267.12375 304.3875ZM267.12375 311.45L267.12375 305.23126L268.78 305.23126L268.78 311.45L267.12375 311.45ZM275.82687 311.45L274.31125 311.45L274.31125 310.52814Q273.92062 311.075 273.405 311.34064Q272.88937 311.59064 272.35812 311.59064Q271.28 311.59064 270.51437 310.73126Q269.76437 309.85626 269.76437 308.3094Q269.76437 306.73126 270.49875 305.91876Q271.24875 305.09064 272.38937 305.09064Q273.42062 305.09064 274.18625 305.95L274.18625 302.85626L275.82687 302.85626L275.82687 311.45ZM271.43625 308.2Q271.43625 309.2 271.7175 309.6375Q272.10812 310.29376 272.82687 310.29376Q273.38937 310.29376 273.78 309.8094Q274.18625 309.325 274.18625 308.35626Q274.18625 307.29376 273.79562 306.825Q273.42062 306.34064 272.81125 306.34064Q272.23312 306.34064 271.82687 306.8094Q271.43625 307.27814 271.43625 308.2ZM280.73312 309.46564L282.37375 309.7469Q282.06125 310.65314 281.37375 311.1219Q280.68625 311.59064 279.67062 311.59064Q278.04562 311.59064 277.26437 310.52814Q276.63937 309.6844 276.63937 308.3875Q276.63937 306.84064 277.45187 305.96564Q278.26437 305.09064 279.49875 305.09064Q280.88937 305.09064 281.68625 306.0125Q282.49875 306.91876 282.45187 308.8094L278.32687 308.8094Q278.35812 309.54376 278.73312 309.95Q279.10812 310.35626 279.68625 310.35626Q280.06125 310.35626 280.32687 310.15314Q280.5925 309.9344 280.73312 309.46564ZM280.82687 307.8094Q280.81125 307.09064 280.45187 306.71564Q280.10812 306.34064 279.5925 306.34064Q279.06125 306.34064 278.70187 306.73126Q278.35812 307.1375 278.35812 307.8094L280.82687 307.8094ZM283.74875 308.2469Q283.74875 307.4344 284.155 306.66876Q284.56125 305.8875 285.29562 305.4969Q286.03 305.09064 286.95187 305.09064Q288.35812 305.09064 289.26437 306.0125Q290.17062 306.91876 290.17062 308.325Q290.17062 309.73126 289.24875 310.66876Q288.3425 311.59064 286.9675 311.59064Q286.10812 311.59064 285.32687 311.2Q284.56125 310.8094 284.155 310.075Q283.74875 309.325 283.74875 308.2469ZM285.43625 308.34064Q285.43625 309.2625 285.87375 309.7625Q286.31125 310.2469 286.95187 310.2469Q287.60812 310.2469 288.03 309.7625Q288.4675 309.2625 288.4675 308.325Q288.4675 307.41876 288.03 306.9344Q287.60812 306.4344 286.95187 306.4344Q286.31125 306.4344 285.87375 306.9344Q285.43625 307.41876 285.43625 308.34064Z" fill-rule="nonzero"/><path fill="#000000" d="M382.11063 308.29376L382.11063 306.84064L385.845 306.84064L385.845 310.2625Q385.29813 310.79376 384.26688 311.2Q383.23563 311.59064 382.17313 311.59064Q380.82938 311.59064 379.81375 311.02814Q378.81375 310.46564 378.31375 309.41876Q377.81375 308.35626 377.81375 307.1219Q377.81375 305.77814 378.37625 304.7469Q378.93875 303.7 380.01688 303.1375Q380.845 302.71564 382.07938 302.71564Q383.67313 302.71564 384.56375 303.3875Q385.47 304.0594 385.73563 305.23126L384.01688 305.5594Q383.82938 304.9344 383.32938 304.575Q382.82938 304.2 382.07938 304.2Q380.93875 304.2 380.26688 304.91876Q379.595 305.6375 379.595 307.0594Q379.595 308.59064 380.26688 309.35626Q380.95438 310.10626 382.06375 310.10626Q382.61063 310.10626 383.1575 309.90314Q383.70438 309.6844 384.095 309.3875L384.095 308.29376L382.11063 308.29376ZM386.06375 311.45L386.06375 302.85626L387.79813 302.85626L387.79813 311.45L386.06375 311.45ZM389.12625 311.45L389.12625 302.85626L395.01688 302.85626L395.01688 304.3094L390.86063 304.3094L390.86063 306.34064L394.43875 306.34064L394.43875 307.79376L390.86063 307.79376L390.86063 311.45L389.12625 311.45Z" fill-rule="nonzero"/><path fill="#000000" d="M489.8319 311.45L487.94128 311.45L487.19128 309.4969L483.75378 309.4969L483.05066 311.45L481.2069 311.45L484.55066 302.85626L486.3944 302.85626L489.8319 311.45ZM486.62878 308.04376L485.4569 304.85626L484.28503 308.04376L486.62878 308.04376ZM494.16003 311.45L494.16003 310.5125Q493.8319 311.0125 493.2694 311.3094Q492.72253 311.59064 492.09753 311.59064Q491.47253 311.59064 490.97253 311.325Q490.47253 311.04376 490.25378 310.54376Q490.03503 310.04376 490.03503 309.16876L490.03503 305.23126L491.67566 305.23126L491.67566 308.09064Q491.67566 309.40314 491.7694 309.7Q491.86316 309.9969 492.09753 310.16876Q492.34753 310.34064 492.7069 310.34064Q493.12878 310.34064 493.4569 310.10626Q493.80066 309.8719 493.92566 309.52814Q494.05066 309.1844 494.05066 307.85626L494.05066 305.23126L495.69128 305.23126L495.69128 311.45L494.16003 311.45ZM502.7694 311.45L501.25378 311.45L501.25378 310.52814Q500.86316 311.075 500.34753 311.34064Q499.8319 311.59064 499.30066 311.59064Q498.22253 311.59064 497.4569 310.73126Q496.7069 309.85626 496.7069 308.3094Q496.7069 306.73126 497.44128 305.91876Q498.19128 305.09064 499.3319 305.09064Q500.36316 305.09064 501.12878 305.95L501.12878 302.85626L502.7694 302.85626L502.7694 311.45ZM498.37878 308.2Q498.37878 309.2 498.66003 309.6375Q499.05066 310.29376 499.7694 310.29376Q500.3319 310.29376 500.72253 309.8094Q501.12878 309.325 501.12878 308.35626Q501.12878 307.29376 500.73816 306.825Q500.36316 306.34064 499.75378 306.34064Q499.17566 306.34064 498.7694 306.8094Q498.37878 307.27814 498.37878 308.2ZM504.06628 304.3875L504.06628 302.85626L505.72253 302.85626L505.72253 304.3875L504.06628 304.3875ZM504.06628 311.45L504.06628 305.23126L505.72253 305.23126L505.72253 311.45L504.06628 311.45ZM506.69128 308.2469Q506.69128 307.4344 507.09753 306.66876Q507.50378 305.8875 508.23816 305.4969Q508.97253 305.09064 509.8944 305.09064Q511.30066 305.09064 512.2069 306.0125Q513.11316 306.91876 513.11316 308.325Q513.11316 309.73126 512.1913 310.66876Q511.28503 311.59064 509.91003 311.59064Q509.05066 311.59064 508.2694 311.2Q507.50378 310.8094 507.09753 310.075Q506.69128 309.325 506.69128 308.2469ZM508.37878 308.34064Q508.37878 309.2625 508.81628 309.7625Q509.25378 310.2469 509.8944 310.2469Q510.55066 310.2469 510.97253 309.7625Q511.41003 309.2625 511.41003 308.325Q511.41003 307.41876 510.97253 306.9344Q510.55066 306.4344 509.8944 306.4344Q509.25378 306.4344 508.81628 306.9344Q508.37878 307.41876 508.37878 308.34064Z" fill-rule="nonzero"/><path fill="#741b47" d="M77.453125 22.425L90.125 22.425L90.125 26.284374L82.703125 26.284374L82.703125 27.753124L89.59375 27.753124L89.59375 31.4875L82.703125 31.4875L82.703125 33.4875L90.34375 33.4875L90.34375 37.55L77.453125 37.55L77.453125 22.425ZM91.203125 26.3625L95.71875 26.3625L95.71875 27.3Q95.875 27.096874 96.8125 26.6125Q97.75 26.128124 99.0625 26.128124Q100.875 26.128124 101.921875 27.2375Q102.984375 28.346874 102.984375 30.55L102.984375 37.55L98.171875 37.55L98.171875 31.440624Q98.171875 30.6125 97.921875 30.346874Q97.671875 30.065624 97.203125 30.065624Q96.671875 30.065624 96.328125 30.4875Q95.984375 30.89375 95.984375 32.159374L95.984375 37.55L91.203125 37.55L91.203125 26.3625ZM111.421875 26.3625L115.953125 26.3625L115.953125 36.565624L115.96875 37.01875Q115.96875 38.096874 115.5 39.065624Q115.046875 40.034374 114.28125 40.628124Q113.53125 41.2375 112.40625 41.4875Q111.28125 41.753124 109.859375 41.753124Q106.59375 41.753124 105.296875 40.70625Q104.0 39.659374 104.0 37.909374Q104.0 37.690624 104.03125 36.925L108.609375 37.440624Q108.78125 38.1125 108.953125 38.221874Q109.296875 38.45625 109.828125 38.45625Q110.515625 38.45625 110.828125 38.1125Q111.140625 37.784374 111.140625 36.8L111.203125 36.14375Q111.21875 36.253124 110.5625 36.596874Q109.546875 37.128124 108.390625 37.128124Q106.109375 37.128124 104.703125 35.14375Q103.71875 33.7375 103.71875 31.503124Q103.71875 28.925 105.0 27.534374Q106.296875 26.128124 108.359375 26.128124Q109.65625 26.128124 110.53125 26.596874Q111.40625 27.05 111.453125 27.14375L111.421875 26.3625ZM108.484375 31.8Q108.484375 32.76875 108.859375 33.190624Q109.234375 33.596874 109.828125 33.596874Q110.375 33.596874 110.765625 33.159374Q111.171875 32.721874 111.171875 31.753124Q111.171875 30.76875 110.75 30.3Q110.328125 29.83125 109.75 29.83125Q109.1875 29.83125 108.828125 30.253124Q108.484375 30.659374 108.484375 31.8ZM121.515625 30.565624L116.953125 30.096874Q117.265625 28.565624 117.71875 27.925Q118.171875 27.284374 119.015625 26.815624Q119.625 26.471874 120.640625 26.3Q121.65625 26.128124 122.796875 26.128124Q124.609375 26.128124 125.765625 26.346874Q126.9375 26.565624 127.734375 27.253124Q128.32812 27.784374 128.64062 28.675Q128.96875 29.55 128.96875 30.3625L128.96875 34.940624Q128.96875 35.628124 129.04688 36.003124Q129.14062 36.3625 129.71875 37.55L125.078125 37.55Q124.734375 36.89375 124.65625 36.659374Q124.578125 36.409374 124.75 36.346874Q124.34375 36.971874 123.5 37.315624Q122.375 37.784374 120.90625 37.784374Q118.890625 37.784374 117.796875 36.815624Q116.71875 35.846874 116.71875 34.39375Q116.71875 33.065624 117.515625 32.190624Q118.28125 31.315624 120.296875 30.909374Q122.515625 30.4875 123.15625 30.315624Q123.8125 30.128124 124.265625 29.940624Q124.265625 29.659374 124.078125 29.4875Q123.90625 29.3 123.3125 29.3Q122.453125 29.3 122.0625 29.55Q121.8125 29.721874 121.515625 30.565624ZM124.265625 32.8Q123.984375 32.909374 123.078125 33.128124Q121.96875 33.425 121.71875 33.675Q121.515625 33.8625 121.515625 34.1125Q121.515625 34.39375 121.71875 34.58125Q121.921875 34.76875 122.390625 34.76875Q122.953125 34.76875 123.421875 34.503124Q123.890625 34.221874 124.078125 33.8625Q124.265625 33.503124 124.265625 32.8625L124.265625 32.8ZM137.42188 26.3625L141.95312 26.3625L141.95312 36.565624L141.96875 37.01875Q141.96875 38.096874 141.5 39.065624Q141.04688 40.034374 140.28125 40.628124Q139.53125 41.2375 138.40625 41.4875Q137.28125 41.753124 135.85938 41.753124Q132.59375 41.753124 131.29688 40.70625Q130.0 39.659374 130.0 37.909374Q130.0 37.690624 130.03125 36.925L134.60938 37.440624Q134.78125 38.1125 134.95312 38.221874Q135.29688 38.45625 135.82812 38.45625Q136.51562 38.45625 136.82812 38.1125Q137.14062 37.784374 137.14062 36.8L137.20312 36.14375Q137.21875 36.253124 136.5625 36.596874Q135.54688 37.128124 134.39062 37.128124Q132.10938 37.128124 130.70312 35.14375Q129.71875 33.7375 129.71875 31.503124Q129.71875 28.925 131.0 27.534374Q132.29688 26.128124 134.35938 26.128124Q135.65625 26.128124 136.53125 26.596874Q137.40625 27.05 137.45312 27.14375L137.42188 26.3625ZM134.48438 31.8Q134.48438 32.76875 134.85938 33.190624Q135.23438 33.596874 135.82812 33.596874Q136.375 33.596874 136.76562 33.159374Q137.17188 32.721874 137.17188 31.753124Q137.17188 30.76875 136.75 30.3Q136.32812 29.83125 135.75 29.83125Q135.1875 29.83125 134.82812 30.253124Q134.48438 30.659374 134.48438 31.8ZM155.53125 33.346874L147.60938 33.346874Q147.65625 33.721874 147.98438 34.096874Q148.4375 34.64375 149.17188 34.64375Q149.65625 34.64375 150.07812 34.39375Q150.34375 34.253124 150.79688 33.675L155.5625 34.1125Q154.29688 36.315624 152.92188 37.05Q151.5625 37.784374 149.09375 37.784374Q146.9375 37.784374 145.65625 37.159374Q144.375 36.534374 143.53125 35.175Q142.70312 33.8 142.70312 31.971874Q142.70312 29.378124 144.375 27.753124Q146.04688 26.128124 148.96875 26.128124Q151.29688 26.128124 152.6875 26.8625Q154.07812 27.58125 154.79688 28.971874Q155.53125 30.346874 155.53125 32.4875L155.53125 33.346874ZM150.625 30.628124Q150.57812 30.08125 150.17188 29.690624Q149.78125 29.3 149.14062 29.3Q148.39062 29.3 147.95312 29.89375Q147.65625 30.26875 147.60938 30.628124L150.625 30.628124ZM156.23438 26.3625L160.75 26.3625L160.75 27.175Q160.90625 27.003124 161.79688 26.565624Q162.6875 26.128124 163.9375 26.128124Q165.28125 26.128124 166.10938 26.628124Q166.9375 27.128124 167.17188 27.58125Q167.76562 26.940624 168.60938 26.534374Q169.46875 26.128124 170.6875 26.128124Q172.53125 26.128124 173.57812 27.253124Q174.64062 28.3625 174.64062 30.628124L174.64062 37.55L169.84375 37.55L169.84375 31.2375Q169.84375 30.675 169.65625 30.440624Q169.375 30.065624 168.98438 30.065624Q168.46875 30.065624 168.14062 30.45625Q167.82812 30.83125 167.82812 31.784374L167.82812 37.55L163.03125 37.55L163.03125 31.425Q163.03125 30.815624 162.96875 30.628124Q162.89062 30.3625 162.67188 30.20625Q162.46875 30.034374 162.1875 30.034374Q161.6875 30.034374 161.35938 30.425Q161.03125 30.815624 161.03125 31.846874L161.03125 37.55L156.23438 37.55L156.23438 26.3625ZM188.53125 33.346874L180.60938 33.346874Q180.65625 33.721874 180.98438 34.096874Q181.4375 34.64375 182.17188 34.64375Q182.65625 34.64375 183.07812 34.39375Q183.34375 34.253124 183.79688 33.675L188.5625 34.1125Q187.29688 36.315624 185.92188 37.05Q184.5625 37.784374 182.09375 37.784374Q179.9375 37.784374 178.65625 37.159374Q177.375 36.534374 176.53125 35.175Q175.70312 33.8 175.70312 31.971874Q175.70312 29.378124 177.375 27.753124Q179.04688 26.128124 181.96875 26.128124Q184.29688 26.128124 185.6875 26.8625Q187.07812 27.58125 187.79688 28.971874Q188.53125 30.346874 188.53125 32.4875L188.53125 33.346874ZM183.625 30.628124Q183.57812 30.08125 183.17188 29.690624Q182.78125 29.3 182.14062 29.3Q181.39062 29.3 180.95312 29.89375Q180.65625 30.26875 180.60938 30.628124L183.625 30.628124ZM189.20312 26.3625L193.71875 26.3625L193.71875 27.3Q193.875 27.096874 194.8125 26.6125Q195.75 26.128124 197.0625 26.128124Q198.875 26.128124 199.92188 27.2375Q200.98438 28.346874 200.98438 30.55L200.98438 37.55L196.17188 37.55L196.17188 31.440624Q196.17188 30.6125 195.92188 30.346874Q195.67188 30.065624 195.20312 30.065624Q194.67188 30.065624 194.32812 30.4875Q193.98438 30.89375 193.98438 32.159374L193.98438 37.55L189.20312 37.55L189.20312 26.3625ZM207.8125 22.175L207.8125 26.3625L210.0 26.3625L210.0 30.08125L207.8125 30.08125L207.8125 33.346874Q207.8125 33.909374 207.89062 34.034374Q207.95312 34.159374 208.21875 34.159374Q208.59375 34.159374 209.78125 33.784374L210.17188 37.3625Q208.3125 37.784374 206.98438 37.784374Q205.39062 37.784374 204.57812 37.346874Q203.78125 36.909374 203.39062 36.034374Q203.01562 35.14375 203.01562 33.33125L203.01562 30.08125L201.54688 30.08125L201.54688 26.3625L203.01562 26.3625L203.01562 24.6125L207.8125 22.175ZM218.46875 22.425L223.70312 22.425L223.70312 33.20625L230.60938 33.20625L230.60938 37.55L218.46875 37.55L218.46875 22.425ZM243.53125 33.346874L235.60938 33.346874Q235.65625 33.721874 235.98438 34.096874Q236.4375 34.64375 237.17188 34.64375Q237.65625 34.64375 238.07812 34.39375Q238.34375 34.253124 238.79688 33.675L243.5625 34.1125Q242.29688 36.315624 240.92188 37.05Q239.5625 37.784374 237.09375 37.784374Q234.9375 37.784374 233.65625 37.159374Q232.375 36.534374 231.53125 35.175Q230.70312 33.8 230.70312 31.971874Q230.70312 29.378124 232.375 27.753124Q234.04688 26.128124 236.96875 26.128124Q239.29688 26.128124 240.6875 26.8625Q242.07812 27.58125 242.79688 28.971874Q243.53125 30.346874 243.53125 32.4875L243.53125 33.346874ZM238.625 30.628124Q238.57812 30.08125 238.17188 29.690624Q237.78125 29.3 237.14062 29.3Q236.39062 29.3 235.95312 29.89375Q235.65625 30.26875 235.60938 30.628124L238.625 30.628124ZM242.8125 26.3625L247.85938 26.3625L249.57812 31.971874L251.35938 26.3625L256.28125 26.3625L251.53125 37.55L247.48438 37.55L242.8125 26.3625ZM268.53125 33.346874L260.60938 33.346874Q260.65625 33.721874 260.98438 34.096874Q261.4375 34.64375 262.17188 34.64375Q262.65625 34.64375 263.07812 34.39375Q263.34375 34.253124 263.79688 33.675L268.5625 34.1125Q267.29688 36.315624 265.92188 37.05Q264.5625 37.784374 262.09375 37.784374Q259.9375 37.784374 258.65625 37.159374Q257.375 36.534374 256.53125 35.175Q255.70312 33.8 255.70312 31.971874Q255.70312 29.378124 257.375 27.753124Q259.04688 26.128124 261.96875 26.128124Q264.29688 26.128124 265.6875 26.8625Q267.07812 27.58125 267.79688 28.971874Q268.53125 30.346874 268.53125 32.4875L268.53125 33.346874ZM263.625 30.628124Q263.57812 30.08125 263.17188 29.690624Q262.78125 29.3 262.14062 29.3Q261.39062 29.3 260.95312 29.89375Q260.65625 30.26875 260.60938 30.628124L263.625 30.628124ZM269.34375 22.425L274.14062 22.425L274.14062 37.55L269.34375 37.55L269.34375 22.425ZM288.4375 26.3625L290.32812 26.3625L290.32812 30.08125L288.4375 30.08125L288.4375 37.55L283.64062 37.55L283.64062 30.08125L282.15625 30.08125L282.15625 26.3625L283.64062 26.3625L283.64062 26.3Q283.64062 25.64375 283.79688 24.815624Q283.95312 23.971874 284.39062 23.409374Q284.82812 22.846874 285.59375 22.51875Q286.35938 22.175 287.73438 22.175Q288.8125 22.175 291.26562 22.4875L290.67188 25.675Q289.59375 25.51875 289.1875 25.51875Q288.78125 25.51875 288.65625 25.6125Q288.53125 25.70625 288.46875 25.95625Q288.4375 26.128124 288.4375 26.3625ZM290.71875 31.9875Q290.71875 29.440624 292.4375 27.784374Q294.17188 26.128124 297.04688 26.128124Q300.34375 26.128124 302.0625 28.08125Q303.4375 29.64375 303.4375 31.925Q303.4375 34.4875 301.73438 36.14375Q300.03125 37.784374 297.0625 37.784374Q294.42188 37.784374 292.75 36.425Q290.71875 34.721874 290.71875 31.9875ZM295.51562 31.971874Q295.51562 33.20625 295.96875 33.753124Q296.42188 34.284374 297.07812 34.284374Q297.75 34.284374 298.1875 33.753124Q298.64062 33.221874 298.64062 31.940624Q298.64062 30.753124 298.1875 30.221874Q297.73438 29.675 297.10938 29.675Q296.42188 29.675 295.96875 30.221874Q295.51562 30.753124 295.51562 31.971874ZM304.23438 26.3625L308.78125 26.3625L308.65625 27.2375Q308.57812 27.096874 309.25 26.6125Q309.92188 26.128124 310.89062 26.128124Q311.85938 26.128124 313.34375 26.89375L311.79688 30.440624Q310.79688 30.034374 310.46875 30.034374Q309.90625 30.034374 309.59375 30.503124Q309.04688 31.3 309.04688 33.659374L309.04688 37.55L304.23438 37.55L304.23438 26.3625ZM320.45312 22.425L333.125 22.425L333.125 26.284374L325.70312 26.284374L325.70312 27.753124L332.59375 27.753124L332.59375 31.4875L325.70312 31.4875L325.70312 33.4875L333.34375 33.4875L333.34375 37.55L320.45312 37.55L320.45312 22.425ZM338.51562 30.565624L333.95312 30.096874Q334.26562 28.565624 334.71875 27.925Q335.17188 27.284374 336.01562 26.815624Q336.625 26.471874 337.64062 26.3Q338.65625 26.128124 339.79688 26.128124Q341.60938 26.128124 342.76562 26.346874Q343.9375 26.565624 344.73438 27.253124Q345.32812 27.784374 345.64062 28.675Q345.96875 29.55 345.96875 30.3625L345.96875 34.940624Q345.96875 35.628124 346.04688 36.003124Q346.14062 36.3625 346.71875 37.55L342.07812 37.55Q341.73438 36.89375 341.65625 36.659374Q341.57812 36.409374 341.75 36.346874Q341.34375 36.971874 340.5 37.315624Q339.375 37.784374 337.90625 37.784374Q335.89062 37.784374 334.79688 36.815624Q333.71875 35.846874 333.71875 34.39375Q333.71875 33.065624 334.51562 32.190624Q335.28125 31.315624 337.29688 30.909374Q339.51562 30.4875 340.15625 30.315624Q340.8125 30.128124 341.26562 29.940624Q341.26562 29.659374 341.07812 29.4875Q340.90625 29.3 340.3125 29.3Q339.45312 29.3 339.0625 29.55Q338.8125 29.721874 338.51562 30.565624ZM341.26562 32.8Q340.98438 32.909374 340.07812 33.128124Q338.96875 33.425 338.71875 33.675Q338.51562 33.8625 338.51562 34.1125Q338.51562 34.39375 338.71875 34.58125Q338.92188 34.76875 339.39062 34.76875Q339.95312 34.76875 340.42188 34.503124Q340.89062 34.221874 341.07812 33.8625Q341.26562 33.503124 341.26562 32.8625L341.26562 32.8ZM355.0625 32.659374L359.64062 33.159374Q359.1875 34.89375 358.40625 35.83125Q357.64062 36.753124 356.4375 37.284374Q355.25 37.8 353.45312 37.8Q351.75 37.8 350.57812 37.471874Q349.40625 37.128124 348.54688 36.39375Q347.70312 35.64375 347.20312 34.64375Q346.71875 33.628124 346.71875 32.003124Q346.71875 30.315624 347.3125 29.159374Q347.75 28.315624 348.5 27.64375Q349.25 26.971874 350.04688 26.64375Q351.28125 26.128124 353.17188 26.128124Q355.84375 26.128124 357.28125 27.1125Q358.71875 28.096874 359.45312 30.440624L354.875 31.05Q354.64062 30.190624 354.29688 29.940624Q353.95312 29.675 353.29688 29.675Q352.5 29.675 351.98438 30.253124Q351.48438 30.83125 351.48438 32.1125Q351.48438 33.2375 351.96875 33.784374Q352.46875 34.315624 353.23438 34.315624Q353.875 34.315624 354.29688 34.003124Q354.73438 33.675 355.0625 32.659374ZM360.20312 22.425L364.98438 22.425L364.98438 27.096874Q365.15625 26.909374 366.03125 26.51875Q366.90625 26.128124 368.09375 26.128124Q369.875 26.128124 370.92188 27.2375Q371.98438 28.346874 371.98438 30.55L371.98438 37.55L367.17188 37.55L367.17188 31.440624Q367.17188 30.6125 366.92188 30.346874Q366.67188 30.065624 366.20312 30.065624Q365.67188 30.065624 365.32812 30.4875Q364.98438 30.89375 364.98438 32.159374L364.98438 37.55L360.20312 37.55L360.20312 22.425ZM390.10938 30.784374L394.76562 32.190624Q394.26562 34.26875 393.35938 35.440624Q392.46875 36.6125 391.14062 37.20625Q389.8125 37.8 387.79688 37.8Q385.375 37.8 383.79688 37.08125Q382.21875 36.346874 381.07812 34.55Q379.95312 32.7375 379.95312 29.95625Q379.95312 26.221874 381.95312 24.20625Q383.96875 22.175 387.59375 22.175Q390.42188 22.175 392.07812 23.346874Q393.73438 24.51875 394.67188 27.33125L389.95312 28.39375Q389.65625 27.440624 389.48438 27.175Q389.17188 26.753124 388.71875 26.534374Q388.26562 26.3 387.70312 26.3Q386.40625 26.3 385.73438 27.315624Q385.1875 28.128124 385.1875 29.925Q385.1875 32.175 385.79688 32.925Q386.42188 33.675 387.54688 33.675Q388.625 33.675 389.17188 33.065624Q389.73438 32.45625 390.10938 30.784374ZM395.71875 31.9875Q395.71875 29.440624 397.4375 27.784374Q399.17188 26.128124 402.04688 26.128124Q405.34375 26.128124 407.0625 28.08125Q408.4375 29.64375 408.4375 31.925Q408.4375 34.4875 406.73438 36.14375Q405.03125 37.784374 402.0625 37.784374Q399.42188 37.784374 397.75 36.425Q395.71875 34.721874 395.71875 31.9875ZM400.51562 31.971874Q400.51562 33.20625 400.96875 33.753124Q401.42188 34.284374 402.07812 34.284374Q402.75 34.284374 403.1875 33.753124Q403.64062 33.221874 403.64062 31.940624Q403.64062 30.753124 403.1875 30.221874Q402.73438 29.675 402.10938 29.675Q401.42188 29.675 400.96875 30.221874Q400.51562 30.753124 400.51562 31.971874ZM409.20312 26.3625L413.71875 26.3625L413.71875 27.3Q413.875 27.096874 414.8125 26.6125Q415.75 26.128124 417.0625 26.128124Q418.875 26.128124 419.92188 27.2375Q420.98438 28.346874 420.98438 30.55L420.98438 37.55L416.17188 37.55L416.17188 31.440624Q416.17188 30.6125 415.92188 30.346874Q415.67188 30.065624 415.20312 30.065624Q414.67188 30.065624 414.32812 30.4875Q413.98438 30.89375 413.98438 32.159374L413.98438 37.55L409.20312 37.55L409.20312 26.3625ZM427.8125 22.175L427.8125 26.3625L430.0 26.3625L430.0 30.08125L427.8125 30.08125L427.8125 33.346874Q427.8125 33.909374 427.89062 34.034374Q427.95312 34.159374 428.21875 34.159374Q428.59375 34.159374 429.78125 33.784374L430.17188 37.3625Q428.3125 37.784374 426.98438 37.784374Q425.39062 37.784374 424.57812 37.346874Q423.78125 36.909374 423.39062 36.034374Q423.01562 35.14375 423.01562 33.33125L423.01562 30.08125L421.54688 30.08125L421.54688 26.3625L423.01562 26.3625L423.01562 24.6125L427.8125 22.175ZM443.53125 33.346874L435.60938 33.346874Q435.65625 33.721874 435.98438 34.096874Q436.4375 34.64375 437.17188 34.64375Q437.65625 34.64375 438.07812 34.39375Q438.34375 34.253124 438.79688 33.675L443.5625 34.1125Q442.29688 36.315624 440.92188 37.05Q439.5625 37.784374 437.09375 37.784374Q434.9375 37.784374 433.65625 37.159374Q432.375 36.534374 431.53125 35.175Q430.70312 33.8 430.70312 31.971874Q430.70312 29.378124 432.375 27.753124Q434.04688 26.128124 436.96875 26.128124Q439.29688 26.128124 440.6875 26.8625Q442.07812 27.58125 442.79688 28.971874Q443.53125 30.346874 443.53125 32.4875L443.53125 33.346874ZM438.625 30.628124Q438.57812 30.08125 438.17188 29.690624Q437.78125 29.3 437.14062 29.3Q436.39062 29.3 435.95312 29.89375Q435.65625 30.26875 435.60938 30.628124L438.625 30.628124ZM444.20312 26.3625L448.71875 26.3625L448.71875 27.3Q448.875 27.096874 449.8125 26.6125Q450.75 26.128124 452.0625 26.128124Q453.875 26.128124 454.92188 27.2375Q455.98438 28.346874 455.98438 30.55L455.98438 37.55L451.17188 37.55L451.17188 31.440624Q451.17188 30.6125 450.92188 30.346874Q450.67188 30.065624 450.20312 30.065624Q449.67188 30.065624 449.32812 30.4875Q448.98438 30.89375 448.98438 32.159374L448.98438 37.55L444.20312 37.55L444.20312 26.3625ZM462.8125 22.175L462.8125 26.3625L465.0 26.3625L465.0 30.08125L462.8125 30.08125L462.8125 33.346874Q462.8125 33.909374 462.89062 34.034374Q462.95312 34.159374 463.21875 34.159374Q463.59375 34.159374 464.78125 33.784374L465.17188 37.3625Q463.3125 37.784374 461.98438 37.784374Q460.39062 37.784374 459.57812 37.346874Q458.78125 36.909374 458.39062 36.034374Q458.01562 35.14375 458.01562 33.33125L458.01562 30.08125L456.54688 30.08125L456.54688 26.3625L458.01562 26.3625L458.01562 24.6125L462.8125 22.175ZM472.45312 22.425L486.71875 22.425L486.71875 26.76875L482.20312 26.76875L482.20312 37.55L476.96875 37.55L476.96875 26.76875L472.45312 26.76875L472.45312 22.425ZM485.84375 26.3625L490.95312 26.3625L492.78125 32.253124L494.46875 26.3625L499.26562 26.3625L494.95312 38.003124Q494.21875 39.9875 493.40625 40.70625Q492.26562 41.753124 489.98438 41.753124Q489.09375 41.753124 486.95312 41.471874L486.54688 37.76875Q487.9375 38.20625 488.9375 38.20625Q489.5 38.20625 489.82812 37.95625Q490.17188 37.721874 490.375 37.159374L485.84375 26.3625ZM499.21875 41.503124L499.21875 26.3625L503.75 26.3625L503.75 27.14375Q503.85938 27.003124 504.57812 26.64375Q505.53125 26.128124 506.6875 26.128124Q508.96875 26.128124 510.20312 27.8625Q511.45312 29.596874 511.45312 32.065624Q511.45312 34.815624 510.09375 36.3Q508.73438 37.784374 506.67188 37.784374Q505.67188 37.784374 504.82812 37.440624Q504.0 37.096874 503.98438 36.9875L504.04688 41.503124L499.21875 41.503124ZM504.01562 31.9875Q504.01562 33.065624 504.42188 33.534374Q504.82812 34.003124 505.4375 34.003124Q505.9375 34.003124 506.29688 33.565624Q506.65625 33.128124 506.65625 31.89375Q506.65625 30.784374 506.28125 30.33125Q505.90625 29.8625 505.39062 29.8625Q504.8125 29.8625 504.40625 30.33125Q504.01562 30.8 504.01562 31.9875ZM524.53125 33.346874L516.6094 33.346874Q516.65625 33.721874 516.9844 34.096874Q517.4375 34.64375 518.1719 34.64375Q518.65625 34.64375 519.0781 34.39375Q519.34375 34.253124 519.7969 33.675L524.5625 34.1125Q523.2969 36.315624 521.9219 37.05Q520.5625 37.784374 518.09375 37.784374Q515.9375 37.784374 514.65625 37.159374Q513.375 36.534374 512.53125 35.175Q511.70312 33.8 511.70312 31.971874Q511.70312 29.378124 513.375 27.753124Q515.0469 26.128124 517.96875 26.128124Q520.2969 26.128124 521.6875 26.8625Q523.0781 27.58125 523.7969 28.971874Q524.53125 30.346874 524.53125 32.4875L524.53125 33.346874ZM519.625 30.628124Q519.5781 30.08125 519.1719 29.690624Q518.78125 29.3 518.1406 29.3Q517.3906 29.3 516.9531 29.89375Q516.65625 30.26875 516.6094 30.628124L519.625 30.628124Z" fill-rule="nonzero"/></svg>