<svg version="1.1" viewBox="0.0 0.0 600.0 371.0" fill="none" stroke="none" stroke-linecap="square" stroke-miterlimit="10" width="600" height="371" xmlns:xlink="http://www.w3.org/1999/xlink" xmlns="http://www.w3.org/2000/svg"><path fill="#efefef" d="M0 0L600.0 0L600.0 371.0L0 371.0L0 0Z" fill-rule="nonzero"/><path stroke="#000000" stroke-width="1.0" stroke-linecap="butt" d="M99.5 294.5L99.5 61.5" fill-rule="nonzero"/><clipPath id="id_0"><path d="M99.55 61.916668L581.45 61.916668L581.45 294.45L99.55 294.45L99.55 61.916668Z" clip-rule="nonzero"/></clipPath><path fill="#310b1f" clip-path="url(#id_0)" d="M219.0 91.0L219.0 271.0L201.0 289.0L201.0 109.0Z" fill-rule="nonzero"/><path fill="#704159" clip-path="url(#id_0)" d="M201.0 109.0L129.0 109.0L147.0 91.0L219.0 91.0Z" fill-rule="nonzero"/><path stroke="#000000" stroke-width="2.0" stroke-linecap="butt" stroke-opacity="0.0" clip-path="url(#id_0)" d="M201.0 289.0L129.0 289.0L129.0 109.0L201.0 109.0Z" fill-rule="nonzero"/><path fill="#4c1130" clip-path="url(#id_0)" d="M201.0 289.0L129.0 289.0L129.0 109.0L201.0 109.0Z" fill-rule="nonzero"/><path fill="#4b122e" clip-path="url(#id_0)" d="M330.0 96.0L330.0 271.0L312.0 289.0L312.0 114.0Z" fill-rule="nonzero"/><path fill="#90496c" clip-path="url(#id_0)" d="M312.0 114.0L240.0 114.0L258.0 96.0L330.0 96.0Z" fill-rule="nonzero"/><path stroke="#000000" stroke-width="2.0" stroke-linecap="butt" stroke-opacity="0.0" clip-path="url(#id_0)" d="M312.0 289.0L240.0 289.0L240.0 114.0L312.0 114.0Z" fill-rule="nonzero"/><path fill="#741b47" clip-path="url(#id_0)" d="M312.0 289.0L240.0 289.0L240.0 114.0L312.0 114.0Z" fill-rule="nonzero"/><path fill="#6c324f" clip-path="url(#id_0)" d="M441.0 87.0L441.0 271.0L423.0 289.0L423.0 105.0Z" fill-rule="nonzero"/><path fill="#b87194" clip-path="url(#id_0)" d="M423.0 105.0L351.0 105.0L369.0 87.0L441.0 87.0Z" fill-rule="nonzero"/><path stroke="#000000" stroke-width="2.0" stroke-linecap="butt" stroke-opacity="0.0" clip-path="url(#id_0)" d="M423.0 289.0L351.0 289.0L351.0 105.0L423.0 105.0Z" fill-rule="nonzero"/><path fill="#a64d79" clip-path="url(#id_0)" d="M423.0 289.0L351.0 289.0L351.0 105.0L423.0 105.0Z" fill-rule="nonzero"/><path fill="#7e5068" clip-path="url(#id_0)" d="M552.0 99.0L552.0 271.0L534.0 289.0L534.0 117.0Z" fill-rule="nonzero"/><path fill="#ce95b3" clip-path="url(#id_0)" d="M534.0 117.0L462.0 117.0L480.0 99.0L552.0 99.0Z" fill-rule="nonzero"/><path stroke="#000000" stroke-width="2.0" stroke-linecap="butt" stroke-opacity="0.0" clip-path="url(#id_0)" d="M534.0 289.0L462.0 289.0L462.0 117.0L534.0 117.0Z" fill-rule="nonzero"/><path fill="#c27ba0" clip-path="url(#id_0)" d="M534.0 289.0L462.0 289.0L462.0 117.0L534.0 117.0Z" fill-rule="nonzero"/><path stroke="#000000" stroke-width="1.0" stroke-linecap="butt" d="M93.5 271.5L105.5 271.5" fill-rule="nonzero"/><path stroke="#000000" stroke-width="1.0" stroke-linecap="butt" d="M93.5 201.5L105.5 201.5" fill-rule="nonzero"/><path stroke="#000000" stroke-width="1.0" stroke-linecap="butt" d="M93.5 131.5L105.5 131.5" fill-rule="nonzero"/><path stroke="#000000" stroke-width="1.0" stroke-linecap="butt" d="M93.5 61.5L105.5 61.5" fill-rule="nonzero"/><path stroke="#4c1130" stroke-width="3.0" stroke-linejoin="round" stroke-linecap="round" d="M155.79688 125.777435L150.20312 125.777435L150.20312 124.996185L153.15625 121.714935Q153.8125 120.964935 154.0625 120.51181Q154.3125 120.04306 154.3125 119.54306Q154.3125 118.871185 153.90625 118.44931Q153.51562 118.01181 152.82812 118.01181Q152.03125 118.01181 151.57812 118.48056Q151.125 118.933685 151.125 119.76181L150.04688 119.76181Q150.04688 118.57431 150.79688 117.85556Q151.5625 117.121185 152.82812 117.121185Q154.03125 117.121185 154.71875 117.746185Q155.40625 118.371185 155.40625 119.41806Q155.40625 120.66806 153.79688 122.41806L151.51562 124.88681L155.79688 124.88681L155.79688 125.777435ZM157.70312 121.496185L158.14062 117.246185L162.51562 117.246185L162.51562 118.246185L159.0625 118.246185L158.79688 120.57431Q159.4375 120.19931 160.23438 120.19931Q161.39062 120.19931 162.07812 120.98056Q162.76562 121.746185 162.76562 123.058685Q162.76562 124.371185 162.04688 125.13681Q161.34375 125.902435 160.0625 125.902435Q158.9375 125.902435 158.21875 125.277435Q157.5 124.63681 157.40625 123.527435L158.42188 123.527435Q158.53125 124.26181 158.95312 124.63681Q159.375 125.01181 160.0625 125.01181Q160.8125 125.01181 161.25 124.496185Q161.6875 123.98056 161.6875 123.07431Q161.6875 122.214935 161.21875 121.69931Q160.75 121.183685 159.96875 121.183685Q159.26562 121.183685 158.85938 121.48056L158.57812 121.714935L157.70312 121.496185ZM164.34375 125.214935Q164.34375 124.933685 164.5 124.746185Q164.67188 124.558685 165.0 124.558685Q165.34375 124.558685 165.51562 124.746185Q165.6875 124.933685 165.6875 125.214935Q165.6875 125.48056 165.51562 125.66806Q165.34375 125.839935 165.0 125.839935Q164.67188 125.839935 164.5 125.66806Q164.34375 125.48056 164.34375 125.214935ZM172.39062 119.464935Q172.39062 120.10556 172.04688 120.60556Q171.70312 121.10556 171.14062 121.38681Q171.79688 121.66806 172.1875 122.23056Q172.57812 122.777435 172.57812 123.48056Q172.57812 124.57431 171.82812 125.246185Q171.09375 125.902435 169.875 125.902435Q168.64062 125.902435 167.89062 125.246185Q167.15625 124.57431 167.15625 123.48056Q167.15625 122.777435 167.53125 122.23056Q167.90625 121.66806 168.57812 121.38681Q168.01562 121.10556 167.6875 120.60556Q167.35938 120.10556 167.35938 119.464935Q167.35938 118.38681 168.04688 117.76181Q168.73438 117.121185 169.875 117.121185Q171.0 117.121185 171.6875 117.76181Q172.39062 118.38681 172.39062 119.464935ZM171.5 123.44931Q171.5 122.73056 171.04688 122.29306Q170.59375 121.839935 169.85938 121.839935Q169.125 121.839935 168.67188 122.29306Q168.23438 122.73056 168.23438 123.464935Q168.23438 124.183685 168.67188 124.60556Q169.10938 125.01181 169.875 125.01181Q170.625 125.01181 171.0625 124.589935Q171.5 124.16806 171.5 123.44931ZM169.875 118.01181Q169.23438 118.01181 168.82812 118.41806Q168.4375 118.808685 168.4375 119.496185Q168.4375 120.13681 168.82812 120.54306Q169.21875 120.94931 169.85938 120.94931Q170.51562 120.94931 170.90625 120.54306Q171.29688 120.13681 171.29688 119.496185Q171.29688 118.839935 170.89062 118.433685Q170.48438 118.01181 169.875 118.01181ZM178.78125 122.91806L179.96875 122.91806L179.96875 123.79306L178.78125 123.79306L178.78125 125.777435L177.70312 125.777435L177.70312 123.79306L173.8125 123.79306L173.8125 123.152435L177.625 117.246185L178.78125 117.246185L178.78125 122.91806ZM175.04688 122.91806L177.70312 122.91806L177.70312 118.73056L177.5625 118.964935L175.04688 122.91806Z" fill-rule="nonzero"/><path fill="#ffffff" d="M155.79688 125.777435L150.20312 125.777435L150.20312 124.996185L153.15625 121.714935Q153.8125 120.964935 154.0625 120.51181Q154.3125 120.04306 154.3125 119.54306Q154.3125 118.871185 153.90625 118.44931Q153.51562 118.01181 152.82812 118.01181Q152.03125 118.01181 151.57812 118.48056Q151.125 118.933685 151.125 119.76181L150.04688 119.76181Q150.04688 118.57431 150.79688 117.85556Q151.5625 117.121185 152.82812 117.121185Q154.03125 117.121185 154.71875 117.746185Q155.40625 118.371185 155.40625 119.41806Q155.40625 120.66806 153.79688 122.41806L151.51562 124.88681L155.79688 124.88681L155.79688 125.777435ZM157.70312 121.496185L158.14062 117.246185L162.51562 117.246185L162.51562 118.246185L159.0625 118.246185L158.79688 120.57431Q159.4375 120.19931 160.23438 120.19931Q161.39062 120.19931 162.07812 120.98056Q162.76562 121.746185 162.76562 123.058685Q162.76562 124.371185 162.04688 125.13681Q161.34375 125.902435 160.0625 125.902435Q158.9375 125.902435 158.21875 125.277435Q157.5 124.63681 157.40625 123.527435L158.42188 123.527435Q158.53125 124.26181 158.95312 124.63681Q159.375 125.01181 160.0625 125.01181Q160.8125 125.01181 161.25 124.496185Q161.6875 123.98056 161.6875 123.07431Q161.6875 122.214935 161.21875 121.69931Q160.75 121.183685 159.96875 121.183685Q159.26562 121.183685 158.85938 121.48056L158.57812 121.714935L157.70312 121.496185ZM164.34375 125.214935Q164.34375 124.933685 164.5 124.746185Q164.67188 124.558685 165.0 124.558685Q165.34375 124.558685 165.51562 124.746185Q165.6875 124.933685 165.6875 125.214935Q165.6875 125.48056 165.51562 125.66806Q165.34375 125.839935 165.0 125.839935Q164.67188 125.839935 164.5 125.66806Q164.34375 125.48056 164.34375 125.214935ZM172.39062 119.464935Q172.39062 120.10556 172.04688 120.60556Q171.70312 121.10556 171.14062 121.38681Q171.79688 121.66806 172.1875 122.23056Q172.57812 122.777435 172.57812 123.48056Q172.57812 124.57431 171.82812 125.246185Q171.09375 125.902435 169.875 125.902435Q168.64062 125.902435 167.89062 125.246185Q167.15625 124.57431 167.15625 123.48056Q167.15625 122.777435 167.53125 122.23056Q167.90625 121.66806 168.57812 121.38681Q168.01562 121.10556 167.6875 120.60556Q167.35938 120.10556 167.35938 119.464935Q167.35938 118.38681 168.04688 117.76181Q168.73438 117.121185 169.875 117.121185Q171.0 117.121185 171.6875 117.76181Q172.39062 118.38681 172.39062 119.464935ZM171.5 123.44931Q171.5 122.73056 171.04688 122.29306Q170.59375 121.839935 169.85938 121.839935Q169.125 121.839935 168.67188 122.29306Q168.23438 122.73056 168.23438 123.464935Q168.23438 124.183685 168.67188 124.60556Q169.10938 125.01181 169.875 125.01181Q170.625 125.01181 171.0625 124.589935Q171.5 124.16806 171.5 123.44931ZM169.875 118.01181Q169.23438 118.01181 168.82812 118.41806Q168.4375 118.808685 168.4375 119.496185Q168.4375 120.13681 168.82812 120.54306Q169.21875 120.94931 169.85938 120.94931Q170.51562 120.94931 170.90625 120.54306Q171.29688 120.13681 171.29688 119.496185Q171.29688 118.839935 170.89062 118.433685Q170.48438 118.01181 169.875 118.01181ZM178.78125 122.91806L179.96875 122.91806L179.96875 123.79306L178.78125 123.79306L178.78125 125.777435L177.70312 125.777435L177.70312 123.79306L173.8125 123.79306L173.8125 123.152435L177.625 117.246185L178.78125 117.246185L178.78125 122.91806ZM175.04688 122.91806L177.70312 122.91806L177.70312 118.73056L177.5625 118.964935L175.04688 122.91806Z" fill-rule="nonzero"/><path stroke="#741b47" stroke-width="3.0" stroke-linejoin="round" stroke-linecap="round" d="M266.79688 130.37155L261.20312 130.37155L261.20312 129.5903L264.15625 126.30905Q264.8125 125.55905 265.0625 125.10593Q265.3125 124.63718 265.3125 124.13718Q265.3125 123.4653 264.90625 123.04343Q264.51562 122.60593 263.82812 122.60593Q263.03125 122.60593 262.57812 123.07468Q262.125 123.5278 262.125 124.35593L261.04688 124.35593Q261.04688 123.16843 261.79688 122.44968Q262.5625 121.7153 263.82812 121.7153Q265.03125 121.7153 265.71875 122.3403Q266.40625 122.9653 266.40625 124.01218Q266.40625 125.26218 264.79688 127.01218L262.51562 129.48093L266.79688 129.48093L266.79688 130.37155ZM268.70312 126.0903L269.14062 121.8403L273.51562 121.8403L273.51562 122.8403L270.0625 122.8403L269.79688 125.16843Q270.4375 124.79343 271.23438 124.79343Q272.39062 124.79343 273.07812 125.57468Q273.76562 126.3403 273.76562 127.6528Q273.76562 128.9653 273.04688 129.73093Q272.34375 130.49655 271.0625 130.49655Q269.9375 130.49655 269.21875 129.87155Q268.5 129.23093 268.40625 128.12155L269.42188 128.12155Q269.53125 128.85593 269.95312 129.23093Q270.375 129.60593 271.0625 129.60593Q271.8125 129.60593 272.25 129.0903Q272.6875 128.57468 272.6875 127.66843Q272.6875 126.80905 272.21875 126.29343Q271.75 125.7778 270.96875 125.7778Q270.26562 125.7778 269.85938 126.07468L269.57812 126.30905L268.70312 126.0903ZM275.34375 129.80905Q275.34375 129.5278 275.5 129.3403Q275.67188 129.1528 276.0 129.1528Q276.34375 129.1528 276.51562 129.3403Q276.6875 129.5278 276.6875 129.80905Q276.6875 130.07468 276.51562 130.26218Q276.34375 130.43405 276.0 130.43405Q275.67188 130.43405 275.5 130.26218Q275.34375 130.07468 275.34375 129.80905ZM281.76562 130.37155L280.6875 130.37155L280.6875 123.1528L278.5 123.94968L278.5 122.9653L281.60938 121.79343L281.76562 121.79343L281.76562 130.37155ZM290.39062 124.05905Q290.39062 124.69968 290.04688 125.19968Q289.70312 125.69968 289.14062 125.98093Q289.79688 126.26218 290.1875 126.82468Q290.57812 127.37155 290.57812 128.07468Q290.57812 129.16843 289.82812 129.8403Q289.09375 130.49655 287.875 130.49655Q286.64062 130.49655 285.89062 129.8403Q285.15625 129.16843 285.15625 128.07468Q285.15625 127.37155 285.53125 126.82468Q285.90625 126.26218 286.57812 125.98093Q286.01562 125.69968 285.6875 125.19968Q285.35938 124.69968 285.35938 124.05905Q285.35938 122.98093 286.04688 122.35593Q286.73438 121.7153 287.875 121.7153Q289.0 121.7153 289.6875 122.35593Q290.39062 122.98093 290.39062 124.05905ZM289.5 128.04343Q289.5 127.32468 289.04688 126.88718Q288.59375 126.43405 287.85938 126.43405Q287.125 126.43405 286.67188 126.88718Q286.23438 127.32468 286.23438 128.05905Q286.23438 128.7778 286.67188 129.19968Q287.10938 129.60593 287.875 129.60593Q288.625 129.60593 289.0625 129.18405Q289.5 128.76218 289.5 128.04343ZM287.875 122.60593Q287.23438 122.60593 286.82812 123.01218Q286.4375 123.4028 286.4375 124.0903Q286.4375 124.73093 286.82812 125.13718Q287.21875 125.54343 287.85938 125.54343Q288.51562 125.54343 288.90625 125.13718Q289.29688 124.73093 289.29688 124.0903Q289.29688 123.43405 288.89062 123.0278Q288.48438 122.60593 287.875 122.60593Z" fill-rule="nonzero"/><path fill="#ffffff" d="M266.79688 130.37155L261.20312 130.37155L261.20312 129.5903L264.15625 126.30905Q264.8125 125.55905 265.0625 125.10593Q265.3125 124.63718 265.3125 124.13718Q265.3125 123.4653 264.90625 123.04343Q264.51562 122.60593 263.82812 122.60593Q263.03125 122.60593 262.57812 123.07468Q262.125 123.5278 262.125 124.35593L261.04688 124.35593Q261.04688 123.16843 261.79688 122.44968Q262.5625 121.7153 263.82812 121.7153Q265.03125 121.7153 265.71875 122.3403Q266.40625 122.9653 266.40625 124.01218Q266.40625 125.26218 264.79688 127.01218L262.51562 129.48093L266.79688 129.48093L266.79688 130.37155ZM268.70312 126.0903L269.14062 121.8403L273.51562 121.8403L273.51562 122.8403L270.0625 122.8403L269.79688 125.16843Q270.4375 124.79343 271.23438 124.79343Q272.39062 124.79343 273.07812 125.57468Q273.76562 126.3403 273.76562 127.6528Q273.76562 128.9653 273.04688 129.73093Q272.34375 130.49655 271.0625 130.49655Q269.9375 130.49655 269.21875 129.87155Q268.5 129.23093 268.40625 128.12155L269.42188 128.12155Q269.53125 128.85593 269.95312 129.23093Q270.375 129.60593 271.0625 129.60593Q271.8125 129.60593 272.25 129.0903Q272.6875 128.57468 272.6875 127.66843Q272.6875 126.80905 272.21875 126.29343Q271.75 125.7778 270.96875 125.7778Q270.26562 125.7778 269.85938 126.07468L269.57812 126.30905L268.70312 126.0903ZM275.34375 129.80905Q275.34375 129.5278 275.5 129.3403Q275.67188 129.1528 276.0 129.1528Q276.34375 129.1528 276.51562 129.3403Q276.6875 129.5278 276.6875 129.80905Q276.6875 130.07468 276.51562 130.26218Q276.34375 130.43405 276.0 130.43405Q275.67188 130.43405 275.5 130.26218Q275.34375 130.07468 275.34375 129.80905ZM281.76562 130.37155L280.6875 130.37155L280.6875 123.1528L278.5 123.94968L278.5 122.9653L281.60938 121.79343L281.76562 121.79343L281.76562 130.37155ZM290.39062 124.05905Q290.39062 124.69968 290.04688 125.19968Q289.70312 125.69968 289.14062 125.98093Q289.79688 126.26218 290.1875 126.82468Q290.57812 127.37155 290.57812 128.07468Q290.57812 129.16843 289.82812 129.8403Q289.09375 130.49655 287.875 130.49655Q286.64062 130.49655 285.89062 129.8403Q285.15625 129.16843 285.15625 128.07468Q285.15625 127.37155 285.53125 126.82468Q285.90625 126.26218 286.57812 125.98093Q286.01562 125.69968 285.6875 125.19968Q285.35938 124.69968 285.35938 124.05905Q285.35938 122.98093 286.04688 122.35593Q286.73438 121.7153 287.875 121.7153Q289.0 121.7153 289.6875 122.35593Q290.39062 122.98093 290.39062 124.05905ZM289.5 128.04343Q289.5 127.32468 289.04688 126.88718Q288.59375 126.43405 287.85938 126.43405Q287.125 126.43405 286.67188 126.88718Q286.23438 127.32468 286.23438 128.05905Q286.23438 128.7778 286.67188 129.19968Q287.10938 129.60593 287.875 129.60593Q288.625 129.60593 289.0625 129.18405Q289.5 128.76218 289.5 128.04343ZM287.875 122.60593Q287.23438 122.60593 286.82812 123.01218Q286.4375 123.4028 286.4375 124.0903Q286.4375 124.73093 286.82812 125.13718Q287.21875 125.54343 287.85938 125.54343Q288.51562 125.54343 288.90625 125.13718Q289.29688 124.73093 289.29688 124.0903Q289.29688 123.43405 288.89062 123.0278Q288.48438 122.60593 287.875 122.60593Z" fill-rule="nonzero"/><path stroke="#a64d79" stroke-width="3.0" stroke-linejoin="round" stroke-linecap="round" d="M377.79688 121.648094L372.20312 121.648094L372.20312 120.866844L375.15625 117.585594Q375.8125 116.835594 376.0625 116.38247Q376.3125 115.91372 376.3125 115.41372Q376.3125 114.741844 375.90625 114.31997Q375.51562 113.88247 374.82812 113.88247Q374.03125 113.88247 373.57812 114.35122Q373.125 114.804344 373.125 115.63247L372.04688 115.63247Q372.04688 114.44497 372.79688 113.72622Q373.5625 112.991844 374.82812 112.991844Q376.03125 112.991844 376.71875 113.616844Q377.40625 114.241844 377.40625 115.28872Q377.40625 116.53872 375.79688 118.28872L373.51562 120.75747L377.79688 120.75747L377.79688 121.648094ZM383.46875 113.116844L383.46875 114.023094L383.26562 114.023094Q382.0 114.054344 381.25 114.78872Q380.5 115.50747 380.375 116.81997Q381.0625 116.054344 382.21875 116.054344Q383.32812 116.054344 384.0 116.835594Q384.67188 117.616844 384.67188 118.866844Q384.67188 120.179344 383.95312 120.97622Q383.23438 121.773094 382.01562 121.773094Q380.79688 121.773094 380.03125 120.835594Q379.28125 119.88247 379.28125 118.398094L379.28125 117.991844Q379.28125 115.63247 380.28125 114.38247Q381.28125 113.13247 383.26562 113.116844L383.46875 113.116844ZM382.04688 116.960594Q381.48438 116.960594 381.01562 117.28872Q380.54688 117.616844 380.35938 118.13247L380.35938 118.523094Q380.35938 119.585594 380.82812 120.22622Q381.3125 120.866844 382.01562 120.866844Q382.75 120.866844 383.17188 120.335594Q383.59375 119.78872 383.59375 118.91372Q383.59375 118.03872 383.17188 117.50747Q382.75 116.960594 382.04688 116.960594ZM386.34375 121.085594Q386.34375 120.804344 386.5 120.616844Q386.67188 120.429344 387.0 120.429344Q387.34375 120.429344 387.51562 120.616844Q387.6875 120.804344 387.6875 121.085594Q387.6875 121.35122 387.51562 121.53872Q387.34375 121.710594 387.0 121.710594Q386.67188 121.710594 386.5 121.53872Q386.34375 121.35122 386.34375 121.085594ZM393.78125 118.78872L394.96875 118.78872L394.96875 119.66372L393.78125 119.66372L393.78125 121.648094L392.70312 121.648094L392.70312 119.66372L388.8125 119.66372L388.8125 119.023094L392.625 113.116844L393.78125 113.116844L393.78125 118.78872ZM390.04688 118.78872L392.70312 118.78872L392.70312 114.60122L392.5625 114.835594L390.04688 118.78872ZM397.78125 116.85122L398.59375 116.85122Q399.375 116.835594 399.8125 116.44497Q400.25 116.054344 400.25 115.38247Q400.25 113.88247 398.75 113.88247Q398.04688 113.88247 397.625 114.28872Q397.21875 114.69497 397.21875 115.35122L396.125 115.35122Q396.125 114.335594 396.85938 113.66372Q397.60938 112.991844 398.75 112.991844Q399.95312 112.991844 400.64062 113.63247Q401.32812 114.273094 401.32812 115.41372Q401.32812 115.97622 400.96875 116.491844Q400.60938 117.00747 399.98438 117.273094Q400.6875 117.491844 401.0625 118.00747Q401.45312 118.523094 401.45312 119.273094Q401.45312 120.41372 400.70312 121.10122Q399.95312 121.773094 398.75 121.773094Q397.5625 121.773094 396.79688 121.116844Q396.04688 120.460594 396.04688 119.398094L397.14062 119.398094Q397.14062 120.06997 397.57812 120.47622Q398.01562 120.88247 398.76562 120.88247Q399.54688 120.88247 399.95312 120.47622Q400.375 120.054344 400.375 119.28872Q400.375 118.554344 399.92188 118.16372Q399.46875 117.75747 398.59375 117.741844L397.78125 117.741844L397.78125 116.85122Z" fill-rule="nonzero"/><path fill="#ffffff" d="M377.79688 121.648094L372.20312 121.648094L372.20312 120.866844L375.15625 117.585594Q375.8125 116.835594 376.0625 116.38247Q376.3125 115.91372 376.3125 115.41372Q376.3125 114.741844 375.90625 114.31997Q375.51562 113.88247 374.82812 113.88247Q374.03125 113.88247 373.57812 114.35122Q373.125 114.804344 373.125 115.63247L372.04688 115.63247Q372.04688 114.44497 372.79688 113.72622Q373.5625 112.991844 374.82812 112.991844Q376.03125 112.991844 376.71875 113.616844Q377.40625 114.241844 377.40625 115.28872Q377.40625 116.53872 375.79688 118.28872L373.51562 120.75747L377.79688 120.75747L377.79688 121.648094ZM383.46875 113.116844L383.46875 114.023094L383.26562 114.023094Q382.0 114.054344 381.25 114.78872Q380.5 115.50747 380.375 116.81997Q381.0625 116.054344 382.21875 116.054344Q383.32812 116.054344 384.0 116.835594Q384.67188 117.616844 384.67188 118.866844Q384.67188 120.179344 383.95312 120.97622Q383.23438 121.773094 382.01562 121.773094Q380.79688 121.773094 380.03125 120.835594Q379.28125 119.88247 379.28125 118.398094L379.28125 117.991844Q379.28125 115.63247 380.28125 114.38247Q381.28125 113.13247 383.26562 113.116844L383.46875 113.116844ZM382.04688 116.960594Q381.48438 116.960594 381.01562 117.28872Q380.54688 117.616844 380.35938 118.13247L380.35938 118.523094Q380.35938 119.585594 380.82812 120.22622Q381.3125 120.866844 382.01562 120.866844Q382.75 120.866844 383.17188 120.335594Q383.59375 119.78872 383.59375 118.91372Q383.59375 118.03872 383.17188 117.50747Q382.75 116.960594 382.04688 116.960594ZM386.34375 121.085594Q386.34375 120.804344 386.5 120.616844Q386.67188 120.429344 387.0 120.429344Q387.34375 120.429344 387.51562 120.616844Q387.6875 120.804344 387.6875 121.085594Q387.6875 121.35122 387.51562 121.53872Q387.34375 121.710594 387.0 121.710594Q386.67188 121.710594 386.5 121.53872Q386.34375 121.35122 386.34375 121.085594ZM393.78125 118.78872L394.96875 118.78872L394.96875 119.66372L393.78125 119.66372L393.78125 121.648094L392.70312 121.648094L392.70312 119.66372L388.8125 119.66372L388.8125 119.023094L392.625 113.116844L393.78125 113.116844L393.78125 118.78872ZM390.04688 118.78872L392.70312 118.78872L392.70312 114.60122L392.5625 114.835594L390.04688 118.78872ZM397.78125 116.85122L398.59375 116.85122Q399.375 116.835594 399.8125 116.44497Q400.25 116.054344 400.25 115.38247Q400.25 113.88247 398.75 113.88247Q398.04688 113.88247 397.625 114.28872Q397.21875 114.69497 397.21875 115.35122L396.125 115.35122Q396.125 114.335594 396.85938 113.66372Q397.60938 112.991844 398.75 112.991844Q399.95312 112.991844 400.64062 113.63247Q401.32812 114.273094 401.32812 115.41372Q401.32812 115.97622 400.96875 116.491844Q400.60938 117.00747 399.98438 117.273094Q400.6875 117.491844 401.0625 118.00747Q401.45312 118.523094 401.45312 119.273094Q401.45312 120.41372 400.70312 121.10122Q399.95312 121.773094 398.75 121.773094Q397.5625 121.773094 396.79688 121.116844Q396.04688 120.460594 396.04688 119.398094L397.14062 119.398094Q397.14062 120.06997 397.57812 120.47622Q398.01562 120.88247 398.76562 120.88247Q399.54688 120.88247 399.95312 120.47622Q400.375 120.054344 400.375 119.28872Q400.375 118.554344 399.92188 118.16372Q399.46875 117.75747 398.59375 117.741844L397.78125 117.741844L397.78125 116.85122Z" fill-rule="nonzero"/><path stroke="#c27ba0" stroke-width="3.0" stroke-linejoin="round" stroke-linecap="round" d="M488.79688 133.62137L483.20312 133.62137L483.20312 132.84012L486.15625 129.55887Q486.8125 128.80887 487.0625 128.35574Q487.3125 127.887 487.3125 127.387Q487.3125 126.715126 486.90625 126.29325Q486.51562 125.85575 485.82812 125.85575Q485.03125 125.85575 484.57812 126.3245Q484.125 126.777626 484.125 127.60575L483.04688 127.60575Q483.04688 126.41825 483.79688 125.6995Q484.5625 124.965126 485.82812 124.965126Q487.03125 124.965126 487.71875 125.590126Q488.40625 126.215126 488.40625 127.262Q488.40625 128.512 486.79688 130.262L484.51562 132.73074L488.79688 132.73074L488.79688 133.62137ZM494.78125 130.762L495.96875 130.762L495.96875 131.637L494.78125 131.637L494.78125 133.62137L493.70312 133.62137L493.70312 131.637L489.8125 131.637L489.8125 130.99637L493.625 125.090126L494.78125 125.090126L494.78125 130.762ZM491.04688 130.762L493.70312 130.762L493.70312 126.5745L493.5625 126.808876L491.04688 130.762ZM497.34375 133.05887Q497.34375 132.77762 497.5 132.59012Q497.67188 132.40262 498.0 132.40262Q498.34375 132.40262 498.51562 132.59012Q498.6875 132.77762 498.6875 133.05887Q498.6875 133.3245 498.51562 133.512Q498.34375 133.68387 498.0 133.68387Q497.67188 133.68387 497.5 133.512Q497.34375 133.3245 497.34375 133.05887ZM505.71875 125.6995L502.1875 133.62137L501.04688 133.62137L504.5625 125.98075L499.95312 125.98075L499.95312 125.090126L505.71875 125.090126L505.71875 125.6995ZM512.7969 133.62137L507.20312 133.62137L507.20312 132.84012L510.15625 129.55887Q510.8125 128.80887 511.0625 128.35574Q511.3125 127.887 511.3125 127.387Q511.3125 126.715126 510.90625 126.29325Q510.51562 125.85575 509.82812 125.85575Q509.03125 125.85575 508.57812 126.3245Q508.125 126.777626 508.125 127.60575L507.04688 127.60575Q507.04688 126.41825 507.79688 125.6995Q508.5625 124.965126 509.82812 124.965126Q511.03125 124.965126 511.71875 125.590126Q512.40625 126.215126 512.40625 127.262Q512.40625 128.512 510.79688 130.262L508.51562 132.73074L512.7969 132.73074L512.7969 133.62137Z" fill-rule="nonzero"/><path fill="#000000" d="M488.79688 133.62137L483.20312 133.62137L483.20312 132.84012L486.15625 129.55887Q486.8125 128.80887 487.0625 128.35574Q487.3125 127.88699 487.3125 127.38699Q487.3125 126.71512 486.90625 126.29324Q486.51562 125.85574 485.82812 125.85574Q485.03125 125.85574 484.57812 126.32449Q484.125 126.77762 484.125 127.60574L483.04688 127.60574Q483.04688 126.41824 483.79688 125.69949Q484.5625 124.96512 485.82812 124.96512Q487.03125 124.96512 487.71875 125.59012Q488.40625 126.21512 488.40625 127.26199Q488.40625 128.512 486.79688 130.262L484.51562 132.73074L488.79688 132.73074L488.79688 133.62137ZM494.78125 130.762L495.96875 130.762L495.96875 131.637L494.78125 131.637L494.78125 133.62137L493.70312 133.62137L493.70312 131.637L489.8125 131.637L489.8125 130.99637L493.625 125.09012L494.78125 125.09012L494.78125 130.762ZM491.04688 130.762L493.70312 130.762L493.70312 126.57449L493.5625 126.80887L491.04688 130.762ZM497.34375 133.05887Q497.34375 132.77762 497.5 132.59012Q497.67188 132.40262 498.0 132.40262Q498.34375 132.40262 498.51562 132.59012Q498.6875 132.77762 498.6875 133.05887Q498.6875 133.3245 498.51562 133.512Q498.34375 133.68387 498.0 133.68387Q497.67188 133.68387 497.5 133.512Q497.34375 133.3245 497.34375 133.05887ZM505.71875 125.69949L502.1875 133.62137L501.04688 133.62137L504.5625 125.98074L499.95312 125.98074L499.95312 125.09012L505.71875 125.09012L505.71875 125.69949ZM512.7969 133.62137L507.20312 133.62137L507.20312 132.84012L510.15625 129.55887Q510.8125 128.80887 511.0625 128.35574Q511.3125 127.88699 511.3125 127.38699Q511.3125 126.71512 510.90625 126.29324Q510.51562 125.85574 509.82812 125.85574Q509.03125 125.85574 508.57812 126.32449Q508.125 126.77762 508.125 127.60574L507.04688 127.60574Q507.04688 126.41824 507.79688 125.69949Q508.5625 124.96512 509.82812 124.96512Q511.03125 124.96512 511.71875 125.59012Q512.40625 126.21512 512.40625 127.26199Q512.40625 128.512 510.79688 130.262L508.51562 132.73074L512.7969 132.73074L512.7969 133.62137Z" fill-rule="nonzero"/><path fill="#741b47" d="M297.76562 343.71564L301.01562 344.7Q300.6875 346.15314 300.0625 346.98126Q299.4375 347.79376 298.5 348.21564Q297.5625 348.6219 296.15625 348.6219Q294.45312 348.6219 293.35938 348.1219Q292.26562 347.6219 291.45312 346.35626Q290.65625 345.075 290.65625 343.1375Q290.65625 340.54376 292.0625 339.1219Q293.48438 337.7 296.01562 337.7Q298.0 337.7 299.15625 338.52814Q300.3125 339.34064 300.95312 341.29376L297.67188 342.02814Q297.46875 341.3719 297.32812 341.2Q297.10938 340.8875 296.79688 340.73126Q296.48438 340.575 296.07812 340.575Q295.1875 340.575 294.70312 341.29376Q294.32812 341.85626 294.32812 343.1219Q294.32812 344.6844 294.76562 345.21564Q295.20312 345.7469 295.96875 345.7469Q296.73438 345.7469 297.125 345.325Q297.51562 344.8875 297.76562 343.71564ZM301.5 344.5594Q301.5 342.77814 302.70312 341.6219Q303.90625 340.46564 305.9375 340.46564Q308.23438 340.46564 309.42188 341.825Q310.40625 342.91876 310.40625 344.5125Q310.40625 346.325 309.20312 347.48126Q308.01562 348.6219 305.9375 348.6219Q304.09375 348.6219 302.92188 347.66876Q301.5 346.46564 301.5 344.5594ZM304.84375 344.5594Q304.84375 345.41876 305.15625 345.79376Q305.48438 346.16876 305.95312 346.16876Q306.42188 346.16876 306.73438 345.8094Q307.04688 345.4344 307.04688 344.52814Q307.04688 343.6844 306.73438 343.3094Q306.42188 342.9344 305.96875 342.9344Q305.48438 342.9344 305.15625 343.325Q304.84375 343.7 304.84375 344.5594ZM310.84375 340.6219L314.0 340.6219L314.0 341.29376Q314.10938 341.15314 314.76562 340.8094Q315.42188 340.46564 316.34375 340.46564Q317.625 340.46564 318.34375 341.2469Q319.07812 342.0125 319.07812 343.5594L319.07812 348.45L315.71875 348.45L315.71875 344.16876Q315.71875 343.60626 315.54688 343.40314Q315.375 343.2 315.04688 343.2Q314.67188 343.2 314.42188 343.4969Q314.1875 343.77814 314.1875 344.6844L314.1875 348.45L310.84375 348.45L310.84375 340.6219ZM323.76562 337.7L323.76562 340.6219L325.29688 340.6219L325.29688 343.21564L323.76562 343.21564L323.76562 345.5125Q323.76562 345.91876 323.8125 345.9969Q323.85938 346.075 324.04688 346.075Q324.3125 346.075 325.15625 345.8094L325.42188 348.325Q324.10938 348.6219 323.1875 348.6219Q322.0625 348.6219 321.5 348.3094Q320.9375 347.9969 320.67188 347.3875Q320.40625 346.77814 320.40625 345.4969L320.40625 343.21564L319.39062 343.21564L319.39062 340.6219L320.40625 340.6219L320.40625 339.40314L323.76562 337.7ZM334.46875 345.5125L328.92188 345.5125Q328.9375 345.77814 329.17188 346.04376Q329.5 346.41876 330.01562 346.41876Q330.34375 346.41876 330.65625 346.2469Q330.84375 346.1375 331.15625 345.73126L334.5 346.0594Q333.59375 347.59064 332.64062 348.10626Q331.70312 348.6219 329.95312 348.6219Q328.45312 348.6219 327.54688 348.1844Q326.65625 347.73126 326.07812 346.77814Q325.5 345.825 325.5 344.5594Q325.5 342.73126 326.67188 341.60626Q327.84375 340.46564 329.875 340.46564Q331.5 340.46564 332.46875 340.98126Q333.4375 341.48126 333.95312 342.45Q334.46875 343.41876 334.46875 344.91876L334.46875 345.5125ZM331.04688 343.6219Q331.0 343.21564 330.71875 342.95Q330.45312 342.66876 329.98438 342.66876Q329.46875 342.66876 329.15625 343.09064Q328.9375 343.35626 328.92188 343.6219L331.04688 343.6219ZM334.84375 340.6219L338.0 340.6219L338.0 341.29376Q338.10938 341.15314 338.76562 340.8094Q339.42188 340.46564 340.34375 340.46564Q341.625 340.46564 342.34375 341.2469Q343.07812 342.0125 343.07812 343.5594L343.07812 348.45L339.71875 348.45L339.71875 344.16876Q339.71875 343.60626 339.54688 343.40314Q339.375 343.2 339.04688 343.2Q338.67188 343.2 338.42188 343.4969Q338.1875 343.77814 338.1875 344.6844L338.1875 348.45L334.84375 348.45L334.84375 340.6219ZM347.76562 337.7L347.76562 340.6219L349.29688 340.6219L349.29688 343.21564L347.76562 343.21564L347.76562 345.5125Q347.76562 345.91876 347.8125 345.9969Q347.85938 346.075 348.04688 346.075Q348.3125 346.075 349.15625 345.8094L349.42188 348.325Q348.10938 348.6219 347.1875 348.6219Q346.0625 348.6219 345.5 348.3094Q344.9375 347.9969 344.67188 347.3875Q344.40625 346.77814 344.40625 345.4969L344.40625 343.21564L343.39062 343.21564L343.39062 340.6219L344.40625 340.6219L344.40625 339.40314L347.76562 337.7ZM354.32812 337.8719L364.29688 337.8719L364.29688 340.90314L361.14062 340.90314L361.14062 348.45L357.48438 348.45L357.48438 340.90314L354.32812 340.90314L354.32812 337.8719ZM363.89062 340.6219L367.45312 340.6219L368.73438 344.7625L369.92188 340.6219L373.28125 340.6219L370.26562 348.7625Q369.75 350.15314 369.1875 350.66876Q368.39062 351.40314 366.79688 351.40314Q366.17188 351.40314 364.6875 351.2L364.39062 348.60626Q365.35938 348.91876 366.04688 348.91876Q366.45312 348.91876 366.6875 348.7469Q366.92188 348.575 367.0625 348.1844L363.89062 340.6219ZM373.85938 351.21564L373.85938 340.6219L377.01562 340.6219L377.01562 341.1844Q377.09375 341.09064 377.60938 340.8094Q378.28125 340.46564 379.07812 340.46564Q380.67188 340.46564 381.53125 341.66876Q382.40625 342.8719 382.40625 344.60626Q382.40625 346.52814 381.45312 347.575Q380.51562 348.6219 379.0625 348.6219Q378.35938 348.6219 377.78125 348.3719Q377.20312 348.1219 377.1875 348.04376L377.23438 351.21564L373.85938 351.21564ZM377.20312 344.5594Q377.20312 345.3094 377.48438 345.6375Q377.78125 345.96564 378.20312 345.96564Q378.5625 345.96564 378.8125 345.66876Q379.0625 345.35626 379.0625 344.4969Q379.0625 343.71564 378.79688 343.40314Q378.53125 343.075 378.17188 343.075Q377.76562 343.075 377.48438 343.40314Q377.20312 343.73126 377.20312 344.5594ZM391.46875 345.5125L385.92188 345.5125Q385.9375 345.77814 386.17188 346.04376Q386.5 346.41876 387.01562 346.41876Q387.34375 346.41876 387.65625 346.2469Q387.84375 346.1375 388.15625 345.73126L391.5 346.0594Q390.59375 347.59064 389.64062 348.10626Q388.70312 348.6219 386.95312 348.6219Q385.45312 348.6219 384.54688 348.1844Q383.65625 347.73126 383.07812 346.77814Q382.5 345.825 382.5 344.5594Q382.5 342.73126 383.67188 341.60626Q384.84375 340.46564 386.875 340.46564Q388.5 340.46564 389.46875 340.98126Q390.4375 341.48126 390.95312 342.45Q391.46875 343.41876 391.46875 344.91876L391.46875 345.5125ZM388.04688 343.6219Q388.0 343.21564 387.71875 342.95Q387.45312 342.66876 386.98438 342.66876Q386.46875 342.66876 386.15625 343.09064Q385.9375 343.35626 385.92188 343.6219L388.04688 343.6219Z" fill-rule="nonzero"/><path fill="#741b47" d="M29.893763 257.41772L29.893763 260.5271L31.550013 261.0271L31.550013 264.79272L20.971888 260.80835L20.971888 257.05835L31.550013 253.07396L31.550013 256.91772L29.893763 257.41772ZM27.159388 258.23022L24.800013 258.9646L27.159388 259.69897L27.159388 258.23022ZM23.721888 253.80833L23.721888 250.29271L27.675013 249.07396L23.721888 247.82396L23.721888 244.38646L31.550013 247.71458L31.550013 250.55833L23.721888 253.80833ZM28.612513 235.21458L28.612513 240.76146Q28.878138 240.74583 29.143763 240.51146Q29.518763 240.18333 29.518763 239.66771Q29.518763 239.33958 29.346888 239.02708Q29.237513 238.83958 28.831263 238.52708L29.159388 235.18333Q30.690638 236.08958 31.206263 237.04271Q31.721888 237.98021 31.721888 239.73021Q31.721888 241.23021 31.284388 242.13646Q30.831263 243.02708 29.878138 243.60521Q28.925013 244.18333 27.659388 244.18333Q25.831263 244.18333 24.706263 243.01146Q23.565638 241.83958 23.565638 239.80833Q23.565638 238.18333 24.081263 237.21458Q24.581263 236.24583 25.550013 235.73021Q26.518763 235.21458 28.018763 235.21458L28.612513 235.21458ZM26.721888 238.63646Q26.315638 238.68333 26.050013 238.96458Q25.768763 239.23021 25.768763 239.69896Q25.768763 240.21458 26.190638 240.52708Q26.456263 240.74583 26.721888 240.76146L26.721888 238.63646ZM23.721888 234.80833L23.721888 231.65208L24.331263 231.73021Q24.237513 231.77708 23.909388 231.30833Q23.565638 230.83958 23.565638 230.16771Q23.565638 229.48021 24.096888 228.46458L26.565638 229.54271Q26.284388 230.23021 26.284388 230.46458Q26.284388 230.85521 26.612513 231.07396Q27.175013 231.44896 28.831263 231.44896L31.550013 231.44896L31.550013 234.80833L23.721888 234.80833ZM26.659388 225.83958L26.331263 229.02708Q25.268763 228.79271 24.815638 228.48021Q24.362513 228.15208 24.034388 227.57396Q23.815638 227.13646 23.690638 226.44896Q23.565638 225.74583 23.565638 224.93333Q23.565638 223.65208 23.721888 222.85521Q23.862513 222.04271 24.346888 221.46458Q24.721888 221.07396 25.346888 220.83958Q25.956263 220.60521 26.518763 220.60521L29.721888 220.60521Q30.206263 220.60521 30.471888 220.55833Q30.721888 220.49583 31.550013 220.08958L31.550013 223.32396Q31.096888 223.57396 30.925013 223.63646Q30.753138 223.68333 30.706263 223.55833Q31.143763 223.83958 31.393763 224.43333Q31.721888 225.21458 31.721888 226.26146Q31.721888 227.66771 31.034388 228.43333Q30.346888 229.18333 29.346888 229.18333Q28.409388 229.18333 27.800013 228.62083Q27.206263 228.07396 26.909388 226.68333Q26.596888 225.12083 26.487513 224.68333Q26.362513 224.23021 26.237513 223.88646Q26.034388 223.88646 25.909388 224.02708Q25.784388 224.15208 25.784388 224.57396Q25.784388 225.16771 25.956263 225.43333Q26.081263 225.62083 26.659388 225.83958ZM28.221888 223.88646Q28.300013 224.10521 28.456263 224.74583Q28.659388 225.51146 28.831263 225.68333Q28.971888 225.83958 29.143763 225.83958Q29.346888 225.83958 29.487513 225.69896Q29.612513 225.54271 29.612513 225.21458Q29.612513 224.82396 29.425013 224.49583Q29.237513 224.15208 28.987513 224.02708Q28.721888 223.88646 28.268763 223.88646L28.221888 223.88646ZM23.721888 214.79271L23.721888 211.62083L30.862513 211.62083L31.190638 211.62083Q31.940638 211.62083 32.61251 211.94896Q33.284386 212.26146 33.70626 212.79271Q34.14376 213.32396 34.315636 214.12083Q34.503136 214.90208 34.503136 215.88646Q34.503136 218.16771 33.76876 219.07396Q33.05001 219.98021 31.800013 219.98021Q31.643763 219.98021 31.128138 219.94896L31.471888 216.77708Q31.940638 216.65208 32.01876 216.52708Q32.190636 216.27708 32.190636 215.90208Q32.190636 215.43333 31.956263 215.21458Q31.721888 214.99583 31.034388 214.99583L30.550013 214.94896Q30.628138 214.93333 30.878138 215.38646Q31.253138 216.08958 31.253138 216.91771Q31.253138 218.51146 29.862513 219.49583Q28.893763 220.18333 27.315638 220.18333Q25.518763 220.18333 24.550013 219.29271Q23.565638 218.38646 23.565638 216.93333Q23.565638 216.02708 23.893763 215.41771Q24.206263 214.79271 24.206263 214.79271L23.721888 214.79271ZM27.534388 216.83958Q28.206263 216.83958 28.503138 216.58958Q28.800013 216.33958 28.800013 215.91771Q28.800013 215.51146 28.487513 215.24583Q28.175013 214.96458 27.487513 214.96458Q26.815638 214.96458 26.487513 215.26146Q26.143763 215.54271 26.143763 215.96458Q26.143763 216.35521 26.440638 216.60521Q26.721888 216.83958 27.534388 216.83958ZM28.612513 202.21458L28.612513 207.76146Q28.878138 207.74583 29.143763 207.51146Q29.518763 207.18333 29.518763 206.66771Q29.518763 206.33958 29.346888 206.02708Q29.237513 205.83958 28.831263 205.52708L29.159388 202.18333Q30.690638 203.08958 31.206263 204.04271Q31.721888 204.98021 31.721888 206.73021Q31.721888 208.23021 31.284388 209.13646Q30.831263 210.02708 29.878138 210.60521Q28.925013 211.18333 27.659388 211.18333Q25.831263 211.18333 24.706263 210.01146Q23.565638 208.83958 23.565638 206.80833Q23.565638 205.18333 24.081263 204.21458Q24.581263 203.24583 25.550013 202.73021Q26.518763 202.21458 28.018763 202.21458L28.612513 202.21458ZM26.721888 205.63646Q26.315638 205.68333 26.050013 205.96458Q25.768763 206.23021 25.768763 206.69896Q25.768763 207.21458 26.190638 207.52708Q26.456263 207.74583 26.721888 207.76146L26.721888 205.63646ZM20.971888 196.66771L20.971888 187.80833L23.675013 187.80833L23.675013 192.99583L24.690638 192.99583L24.690638 188.18333L27.300013 188.18333L27.300013 192.99583L28.721888 192.99583L28.721888 187.65208L31.550013 187.65208L31.550013 196.66771L20.971888 196.66771ZM23.721888 186.83958L23.721888 183.68333L24.393763 183.68333Q24.253138 183.57396 23.909388 182.91771Q23.565638 182.26146 23.565638 181.33958Q23.565638 180.05833 24.346888 179.33958Q25.112513 178.60521 26.659388 178.60521L31.550013 178.60521L31.550013 181.96458L27.268763 181.96458Q26.706263 181.96458 26.503138 182.13646Q26.300013 182.30833 26.300013 182.63646Q26.300013 183.01146 26.596888 183.26146Q26.878138 183.49583 27.784388 183.49583L31.550013 183.49583L31.550013 186.83958L23.721888 186.83958ZM23.721888 172.79271L23.721888 169.62083L30.862513 169.62083L31.190638 169.62083Q31.940638 169.62083 32.61251 169.94896Q33.284386 170.26146 33.70626 170.79271Q34.14376 171.32396 34.315636 172.12083Q34.503136 172.90208 34.503136 173.88646Q34.503136 176.16771 33.76876 177.07396Q33.05001 177.98021 31.800013 177.98021Q31.643763 177.98021 31.128138 177.94896L31.471888 174.77708Q31.940638 174.65208 32.01876 174.52708Q32.190636 174.27708 32.190636 173.90208Q32.190636 173.43333 31.956263 173.21458Q31.721888 172.99583 31.034388 172.99583L30.550013 172.94896Q30.628138 172.93333 30.878138 173.38646Q31.253138 174.08958 31.253138 174.91771Q31.253138 176.51146 29.862513 177.49583Q28.893763 178.18333 27.315638 178.18333Q25.518763 178.18333 24.550013 177.29271Q23.565638 176.38646 23.565638 174.93333Q23.565638 174.02708 23.893763 173.41771Q24.206263 172.79271 24.206263 172.79271L23.721888 172.79271ZM27.534388 174.83958Q28.206263 174.83958 28.503138 174.58958Q28.800013 174.33958 28.800013 173.91771Q28.800013 173.51146 28.487513 173.24583Q28.175013 172.96458 27.487513 172.96458Q26.815638 172.96458 26.487513 173.26146Q26.143763 173.54271 26.143763 173.96458Q26.143763 174.35521 26.440638 174.60521Q26.721888 174.83958 27.534388 174.83958ZM26.659388 165.83958L26.331263 169.02708Q25.268763 168.79271 24.815638 168.48021Q24.362513 168.15208 24.034388 167.57396Q23.815638 167.13646 23.690638 166.44896Q23.565638 165.74583 23.565638 164.93333Q23.565638 163.65208 23.721888 162.85521Q23.862513 162.04271 24.346888 161.46458Q24.721888 161.07396 25.346888 160.83958Q25.956263 160.60521 26.518763 160.60521L29.721888 160.60521Q30.206263 160.60521 30.471888 160.55833Q30.721888 160.49583 31.550013 160.08958L31.550013 163.32396Q31.096888 163.57396 30.925013 163.63646Q30.753138 163.68333 30.706263 163.55833Q31.143763 163.83958 31.393763 164.43333Q31.721888 165.21458 31.721888 166.26146Q31.721888 167.66771 31.034388 168.43333Q30.346888 169.18333 29.346888 169.18333Q28.409388 169.18333 27.800013 168.62083Q27.206263 168.07396 26.909388 166.68333Q26.596888 165.12083 26.487513 164.68333Q26.362513 164.23021 26.237513 163.88646Q26.034388 163.88646 25.909388 164.02708Q25.784388 164.15208 25.784388 164.57396Q25.784388 165.16771 25.956263 165.43333Q26.081263 165.62083 26.659388 165.83958ZM28.221888 163.88646Q28.300013 164.10521 28.456263 164.74583Q28.659388 165.51146 28.831263 165.68333Q28.971888 165.83958 29.143763 165.83958Q29.346888 165.83958 29.487513 165.69896Q29.612513 165.54271 29.612513 165.21458Q29.612513 164.82396 29.425013 164.49583Q29.237513 164.15208 28.987513 164.02708Q28.721888 163.88646 28.268763 163.88646L28.221888 163.88646ZM23.721888 154.79271L23.721888 151.62083L30.862513 151.62083L31.190638 151.62083Q31.940638 151.62083 32.61251 151.94896Q33.284386 152.26146 33.70626 152.79271Q34.14376 153.32396 34.315636 154.12083Q34.503136 154.90208 34.503136 155.88646Q34.503136 158.16771 33.76876 159.07396Q33.05001 159.98021 31.800013 159.98021Q31.643763 159.98021 31.128138 159.94896L31.471888 156.77708Q31.940638 156.65208 32.01876 156.52708Q32.190636 156.27708 32.190636 155.90208Q32.190636 155.43333 31.956263 155.21458Q31.721888 154.99583 31.034388 154.99583L30.550013 154.94896Q30.628138 154.93333 30.878138 155.38646Q31.253138 156.08958 31.253138 156.91771Q31.253138 158.51146 29.862513 159.49583Q28.893763 160.18333 27.315638 160.18333Q25.518763 160.18333 24.550013 159.29271Q23.565638 158.38646 23.565638 156.93333Q23.565638 156.02708 23.893763 155.41771Q24.206263 154.79271 24.206263 154.79271L23.721888 154.79271ZM27.534388 156.83958Q28.206263 156.83958 28.503138 156.58958Q28.800013 156.33958 28.800013 155.91771Q28.800013 155.51146 28.487513 155.24583Q28.175013 154.96458 27.487513 154.96458Q26.815638 154.96458 26.487513 155.26146Q26.143763 155.54271 26.143763 155.96458Q26.143763 156.35521 26.440638 156.60521Q26.721888 156.83958 27.534388 156.83958ZM28.612513 142.21458L28.612513 147.76146Q28.878138 147.74583 29.143763 147.51146Q29.518763 147.18333 29.518763 146.66771Q29.518763 146.33958 29.346888 146.02708Q29.237513 145.83958 28.831263 145.52708L29.159388 142.18333Q30.690638 143.08958 31.206263 144.04271Q31.721888 144.98021 31.721888 146.73021Q31.721888 148.23021 31.284388 149.13646Q30.831263 150.02708 29.878138 150.60521Q28.925013 151.18333 27.659388 151.18333Q25.831263 151.18333 24.706263 150.01146Q23.565638 148.83958 23.565638 146.80833Q23.565638 145.18333 24.081263 144.21458Q24.581263 143.24583 25.550013 142.73021Q26.518763 142.21458 28.018763 142.21458L28.612513 142.21458ZM26.721888 145.63646Q26.315638 145.68333 26.050013 145.96458Q25.768763 146.23021 25.768763 146.69896Q25.768763 147.21458 26.190638 147.52708Q26.456263 147.74583 26.721888 147.76146L26.721888 145.63646ZM23.721888 141.82396L23.721888 138.66771L24.300013 138.66771Q24.175013 138.55833 23.878138 137.93333Q23.565638 137.30833 23.565638 136.43333Q23.565638 135.48021 23.909388 134.91771Q24.253138 134.33958 24.581263 134.16771Q24.128138 133.74583 23.846888 133.15208Q23.565638 132.55833 23.565638 131.69896Q23.565638 130.40208 24.346888 129.66771Q25.128138 128.93333 26.706263 128.93333L31.550013 128.93333L31.550013 132.29271L27.128138 132.29271Q26.737513 132.29271 26.565638 132.41771Q26.300013 132.62083 26.300013 132.90208Q26.300013 133.26146 26.581263 133.49583Q26.846888 133.71458 27.518763 133.71458L31.550013 133.71458L31.550013 137.05833L27.268763 137.05833Q26.831263 137.05833 26.706263 137.10521Q26.518763 137.16771 26.409388 137.32396Q26.300013 137.46458 26.300013 137.65208Q26.300013 138.01146 26.581263 138.24583Q26.846888 138.46458 27.565638 138.46458L31.550013 138.46458L31.550013 141.82396L23.721888 141.82396ZM28.612513 119.214584L28.612513 124.76146Q28.878138 124.745834 29.143763 124.51146Q29.518763 124.183334 29.518763 123.66771Q29.518763 123.339584 29.346888 123.027084Q29.237513 122.839584 28.831263 122.527084L29.159388 119.183334Q30.690638 120.089584 31.206263 121.04271Q31.721888 121.98021 31.721888 123.73021Q31.721888 125.23021 31.284388 126.13646Q30.831263 127.027084 29.878138 127.60521Q28.925013 128.18333 27.659388 128.18333Q25.831263 128.18333 24.706263 127.01146Q23.565638 125.839584 23.565638 123.808334Q23.565638 122.183334 24.081263 121.214584Q24.581263 120.245834 25.550013 119.73021Q26.518763 119.214584 28.018763 119.214584L28.612513 119.214584ZM26.721888 122.63646Q26.315638 122.683334 26.050013 122.964584Q25.768763 123.23021 25.768763 123.69896Q25.768763 124.214584 26.190638 124.527084Q26.456263 124.745834 26.721888 124.76146L26.721888 122.63646ZM23.721888 118.839584L23.721888 115.683334L24.393763 115.683334Q24.253138 115.57396 23.909388 114.91771Q23.565638 114.26146 23.565638 113.339584Q23.565638 112.058334 24.346888 111.339584Q25.112513 110.60521 26.659388 110.60521L31.550013 110.60521L31.550013 113.964584L27.268763 113.964584Q26.706263 113.964584 26.503138 114.13646Q26.300013 114.308334 26.300013 114.63646Q26.300013 115.01146 26.596888 115.26146Q26.878138 115.495834 27.784388 115.495834L31.550013 115.495834L31.550013 118.839584L23.721888 118.839584ZM20.800013 105.91771L23.721888 105.91771L23.721888 104.38646L26.315638 104.38646L26.315638 105.91771L28.612513 105.91771Q29.018763 105.91771 29.096888 105.870834Q29.175013 105.82396 29.175013 105.63646Q29.175013 105.370834 28.909388 104.527084L31.425013 104.26146Q31.721888 105.57396 31.721888 106.495834Q31.721888 107.620834 31.409388 108.183334Q31.096888 108.745834 30.487513 109.01146Q29.878138 109.277084 28.596888 109.277084L26.315638 109.277084L26.315638 110.29271L23.721888 110.29271L23.721888 109.277084L22.503138 109.277084L20.800013 105.91771Z" fill-rule="nonzero"/><path fill="#000000" d="M64.05 271.21564Q64.05 269.6844 64.3625 268.7625Q64.675 267.825 65.28438 267.325Q65.90938 266.825 66.84688 266.825Q67.53438 266.825 68.05 267.10626Q68.58125 267.3875 68.925 267.91876Q69.26875 268.4344 69.45625 269.1844Q69.64375 269.9344 69.64375 271.21564Q69.64375 272.73126 69.33125 273.65314Q69.03438 274.575 68.40938 275.09064Q67.8 275.59064 66.84688 275.59064Q65.6125 275.59064 64.89375 274.7Q64.05 273.6375 64.05 271.21564ZM65.12813 271.21564Q65.12813 273.325 65.62813 274.02814Q66.12813 274.73126 66.84688 274.73126Q67.58125 274.73126 68.06563 274.02814Q68.56563 273.325 68.56563 271.21564Q68.56563 269.09064 68.06563 268.40314Q67.58125 267.7 66.83125 267.7Q66.1125 267.7 65.675 268.3094Q65.12813 269.09064 65.12813 271.21564ZM71.64375 275.45L71.64375 274.2469L72.84688 274.2469L72.84688 275.45L71.64375 275.45ZM74.05 271.21564Q74.05 269.6844 74.3625 268.7625Q74.675 267.825 75.28438 267.325Q75.90938 266.825 76.84688 266.825Q77.53438 266.825 78.05 267.10626Q78.58125 267.3875 78.925 267.91876Q79.26875 268.4344 79.45625 269.1844Q79.64375 269.9344 79.64375 271.21564Q79.64375 272.73126 79.33125 273.65314Q79.03438 274.575 78.40938 275.09064Q77.8 275.59064 76.84688 275.59064Q75.6125 275.59064 74.89375 274.7Q74.05 273.6375 74.05 271.21564ZM75.12813 271.21564Q75.12813 273.325 75.62813 274.02814Q76.12813 274.73126 76.84688 274.73126Q77.58125 274.73126 78.06563 274.02814Q78.56563 273.325 78.56563 271.21564Q78.56563 269.09064 78.06563 268.40314Q77.58125 267.7 76.83125 267.7Q76.1125 267.7 75.675 268.3094Q75.12813 269.09064 75.12813 271.21564ZM81.05 271.21564Q81.05 269.6844 81.3625 268.7625Q81.675 267.825 82.28438 267.325Q82.90938 266.825 83.84688 266.825Q84.53438 266.825 85.05 267.10626Q85.58125 267.3875 85.925 267.91876Q86.26875 268.4344 86.45625 269.1844Q86.64375 269.9344 86.64375 271.21564Q86.64375 272.73126 86.33125 273.65314Q86.03438 274.575 85.40938 275.09064Q84.8 275.59064 83.84688 275.59064Q82.6125 275.59064 81.89375 274.7Q81.05 273.6375 81.05 271.21564ZM82.12813 271.21564Q82.12813 273.325 82.62813 274.02814Q83.12813 274.73126 83.84688 274.73126Q84.58125 274.73126 85.06563 274.02814Q85.56563 273.325 85.56563 271.21564Q85.56563 269.09064 85.06563 268.40314Q84.58125 267.7 83.83125 267.7Q83.1125 267.7 82.675 268.3094Q82.12813 269.09064 82.12813 271.21564Z" fill-rule="nonzero"/><path fill="#000000" d="M61.01875 205.60556L59.971874 205.60556L59.971874 198.88681Q59.58125 199.24619 58.95625 199.62119Q58.346874 199.98056 57.8625 200.15244L57.8625 199.13681Q58.7375 198.71494 59.39375 198.13681Q60.065624 197.54306 60.346874 196.98056L61.01875 196.98056L61.01875 205.60556ZM64.05 201.37119Q64.05 199.83994 64.3625 198.91806Q64.675 197.98056 65.28438 197.48056Q65.90938 196.98056 66.84688 196.98056Q67.53438 196.98056 68.05 197.26181Q68.58125 197.54306 68.925 198.07431Q69.26875 198.58994 69.45625 199.33994Q69.64375 200.08994 69.64375 201.37119Q69.64375 202.88681 69.33125 203.80869Q69.03438 204.73056 68.40938 205.24619Q67.8 205.74619 66.84688 205.74619Q65.6125 205.74619 64.89375 204.85556Q64.05 203.79306 64.05 201.37119ZM65.12813 201.37119Q65.12813 203.48056 65.62813 204.18369Q66.12813 204.88681 66.84688 204.88681Q67.58125 204.88681 68.06563 204.18369Q68.56563 203.48056 68.56563 201.37119Q68.56563 199.24619 68.06563 198.55869Q67.58125 197.85556 66.83125 197.85556Q66.1125 197.85556 65.675 198.46494Q65.12813 199.24619 65.12813 201.37119ZM71.64375 205.60556L71.64375 204.40244L72.84688 204.40244L72.84688 205.60556L71.64375 205.60556ZM74.05 201.37119Q74.05 199.83994 74.3625 198.91806Q74.675 197.98056 75.28438 197.48056Q75.90938 196.98056 76.84688 196.98056Q77.53438 196.98056 78.05 197.26181Q78.58125 197.54306 78.925 198.07431Q79.26875 198.58994 79.45625 199.33994Q79.64375 200.08994 79.64375 201.37119Q79.64375 202.88681 79.33125 203.80869Q79.03438 204.73056 78.40938 205.24619Q77.8 205.74619 76.84688 205.74619Q75.6125 205.74619 74.89375 204.85556Q74.05 203.79306 74.05 201.37119ZM75.12813 201.37119Q75.12813 203.48056 75.62813 204.18369Q76.12813 204.88681 76.84688 204.88681Q77.58125 204.88681 78.06563 204.18369Q78.56563 203.48056 78.56563 201.37119Q78.56563 199.24619 78.06563 198.55869Q77.58125 197.85556 76.83125 197.85556Q76.1125 197.85556 75.675 198.46494Q75.12813 199.24619 75.12813 201.37119ZM81.05 201.37119Q81.05 199.83994 81.3625 198.91806Q81.675 197.98056 82.28438 197.48056Q82.90938 196.98056 83.84688 196.98056Q84.53438 196.98056 85.05 197.26181Q85.58125 197.54306 85.925 198.07431Q86.26875 198.58994 86.45625 199.33994Q86.64375 200.08994 86.64375 201.37119Q86.64375 202.88681 86.33125 203.80869Q86.03438 204.73056 85.40938 205.24619Q84.8 205.74619 83.84688 205.74619Q82.6125 205.74619 81.89375 204.85556Q81.05 203.79306 81.05 201.37119ZM82.12813 201.37119Q82.12813 203.48056 82.62813 204.18369Q83.12813 204.88681 83.84688 204.88681Q84.58125 204.88681 85.06563 204.18369Q85.56563 203.48056 85.56563 201.37119Q85.56563 199.24619 85.06563 198.55869Q84.58125 197.85556 83.83125 197.85556Q83.1125 197.85556 82.675 198.46494Q82.12813 199.24619 82.12813 201.37119Z" fill-rule="nonzero"/><path fill="#000000" d="M62.596874 134.74548L62.596874 135.76111L56.909374 135.76111Q56.909374 135.38611 57.034374 135.02673Q57.253124 134.44861 57.721874 133.88611Q58.20625 133.32361 59.1125 132.58923Q60.51875 131.43298 61.003124 130.76111Q61.503124 130.08923 61.503124 129.49548Q61.503124 128.87048 61.05 128.44861Q60.596874 128.01111 59.878124 128.01111Q59.1125 128.01111 58.659374 128.46423Q58.20625 128.91736 58.190624 129.72986L57.1125 129.62048Q57.221874 128.40173 57.940624 127.77673Q58.675 127.13611 59.909374 127.13611Q61.14375 127.13611 61.8625 127.82361Q62.58125 128.51111 62.58125 129.52673Q62.58125 130.04236 62.3625 130.54236Q62.159374 131.02673 61.659374 131.58923Q61.175 132.13611 60.05 133.08923Q59.096874 133.88611 58.815624 134.18298Q58.55 134.46423 58.378124 134.74548L62.596874 134.74548ZM64.05 131.52673Q64.05 129.99548 64.3625 129.07361Q64.675 128.13611 65.28438 127.63611Q65.90938 127.13611 66.84688 127.13611Q67.53438 127.13611 68.05 127.41736Q68.58125 127.69861 68.925 128.22986Q69.26875 128.74548 69.45625 129.49548Q69.64375 130.24548 69.64375 131.52673Q69.64375 133.04236 69.33125 133.96423Q69.03438 134.88611 68.40938 135.40173Q67.8 135.90173 66.84688 135.90173Q65.6125 135.90173 64.89375 135.01111Q64.05 133.94861 64.05 131.52673ZM65.12813 131.52673Q65.12813 133.63611 65.62813 134.33923Q66.12813 135.04236 66.84688 135.04236Q67.58125 135.04236 68.06563 134.33923Q68.56563 133.63611 68.56563 131.52673Q68.56563 129.40173 68.06563 128.71423Q67.58125 128.01111 66.83125 128.01111Q66.1125 128.01111 65.675 128.62048Q65.12813 129.40173 65.12813 131.52673ZM71.64375 135.76111L71.64375 134.55798L72.84688 134.55798L72.84688 135.76111L71.64375 135.76111ZM74.05 131.52673Q74.05 129.99548 74.3625 129.07361Q74.675 128.13611 75.28438 127.63611Q75.90938 127.13611 76.84688 127.13611Q77.53438 127.13611 78.05 127.41736Q78.58125 127.69861 78.925 128.22986Q79.26875 128.74548 79.45625 129.49548Q79.64375 130.24548 79.64375 131.52673Q79.64375 133.04236 79.33125 133.96423Q79.03438 134.88611 78.40938 135.40173Q77.8 135.90173 76.84688 135.90173Q75.6125 135.90173 74.89375 135.01111Q74.05 133.94861 74.05 131.52673ZM75.12813 131.52673Q75.12813 133.63611 75.62813 134.33923Q76.12813 135.04236 76.84688 135.04236Q77.58125 135.04236 78.06563 134.33923Q78.56563 133.63611 78.56563 131.52673Q78.56563 129.40173 78.06563 128.71423Q77.58125 128.01111 76.83125 128.01111Q76.1125 128.01111 75.675 128.62048Q75.12813 129.40173 75.12813 131.52673ZM81.05 131.52673Q81.05 129.99548 81.3625 129.07361Q81.675 128.13611 82.28438 127.63611Q82.90938 127.13611 83.84688 127.13611Q84.53438 127.13611 85.05 127.41736Q85.58125 127.69861 85.925 128.22986Q86.26875 128.74548 86.45625 129.49548Q86.64375 130.24548 86.64375 131.52673Q86.64375 133.04236 86.33125 133.96423Q86.03438 134.88611 85.40938 135.40173Q84.8 135.90173 83.84688 135.90173Q82.6125 135.90173 81.89375 135.01111Q81.05 133.94861 81.05 131.52673ZM82.12813 131.52673Q82.12813 133.63611 82.62813 134.33923Q83.12813 135.04236 83.84688 135.04236Q84.58125 135.04236 85.06563 134.33923Q85.56563 133.63611 85.56563 131.52673Q85.56563 129.40173 85.06563 128.71423Q84.58125 128.01111 83.83125 128.01111Q83.1125 128.01111 82.675 128.62048Q82.12813 129.40173 82.12813 131.52673Z" fill-rule="nonzero"/><path fill="#000000" d="M57.05 63.65104L58.1125 63.510414Q58.284374 64.40104 58.721874 64.80729Q59.159374 65.197914 59.784374 65.197914Q60.534374 65.197914 61.05 64.68229Q61.565624 64.166664 61.565624 63.40104Q61.565624 62.68229 61.08125 62.21354Q60.6125 61.729164 59.878124 61.729164Q59.58125 61.729164 59.128124 61.854164L59.253124 60.916664Q59.3625 60.93229 59.425 60.93229Q60.096874 60.93229 60.628124 60.58854Q61.175 60.229164 61.175 59.49479Q61.175 58.916664 60.784374 58.541664Q60.39375 58.15104 59.76875 58.15104Q59.159374 58.15104 58.7375 58.541664Q58.33125 58.93229 58.221874 59.697914L57.159374 59.510414Q57.346874 58.46354 58.034374 57.885414Q58.721874 57.291664 59.7375 57.291664Q60.440624 57.291664 61.034374 57.604164Q61.628124 57.90104 61.940624 58.416664Q62.253124 58.93229 62.253124 59.52604Q62.253124 60.072914 61.95625 60.541664Q61.659374 60.99479 61.08125 61.260414Q61.83125 61.43229 62.253124 61.99479Q62.675 62.541664 62.675 63.385414Q62.675 64.510414 61.846874 65.291664Q61.034374 66.072914 59.784374 66.072914Q58.659374 66.072914 57.909374 65.40104Q57.159374 64.71354 57.05 63.65104ZM64.05 61.68229Q64.05 60.15104 64.3625 59.229164Q64.675 58.291664 65.28438 57.791664Q65.90938 57.291664 66.84688 57.291664Q67.53438 57.291664 68.05 57.572914Q68.58125 57.854164 68.925 58.385414Q69.26875 58.90104 69.45625 59.65104Q69.64375 60.40104 69.64375 61.68229Q69.64375 63.197914 69.33125 64.11979Q69.03438 65.041664 68.40938 65.55729Q67.8 66.05729 66.84688 66.05729Q65.6125 66.05729 64.89375 65.166664Q64.05 64.104164 64.05 61.68229ZM65.12813 61.68229Q65.12813 63.791664 65.62813 64.49479Q66.12813 65.197914 66.84688 65.197914Q67.58125 65.197914 68.06563 64.49479Q68.56563 63.791664 68.56563 61.68229Q68.56563 59.55729 68.06563 58.86979Q67.58125 58.166664 66.83125 58.166664Q66.1125 58.166664 65.675 58.77604Q65.12813 59.55729 65.12813 61.68229ZM71.64375 65.916664L71.64375 64.71354L72.84688 64.71354L72.84688 65.916664L71.64375 65.916664ZM74.05 61.68229Q74.05 60.15104 74.3625 59.229164Q74.675 58.291664 75.28438 57.791664Q75.90938 57.291664 76.84688 57.291664Q77.53438 57.291664 78.05 57.572914Q78.58125 57.854164 78.925 58.385414Q79.26875 58.90104 79.45625 59.65104Q79.64375 60.40104 79.64375 61.68229Q79.64375 63.197914 79.33125 64.11979Q79.03438 65.041664 78.40938 65.55729Q77.8 66.05729 76.84688 66.05729Q75.6125 66.05729 74.89375 65.166664Q74.05 64.104164 74.05 61.68229ZM75.12813 61.68229Q75.12813 63.791664 75.62813 64.49479Q76.12813 65.197914 76.84688 65.197914Q77.58125 65.197914 78.06563 64.49479Q78.56563 63.791664 78.56563 61.68229Q78.56563 59.55729 78.06563 58.86979Q77.58125 58.166664 76.83125 58.166664Q76.1125 58.166664 75.675 58.77604Q75.12813 59.55729 75.12813 61.68229ZM81.05 61.68229Q81.05 60.15104 81.3625 59.229164Q81.675 58.291664 82.28438 57.791664Q82.90938 57.291664 83.84688 57.291664Q84.53438 57.291664 85.05 57.572914Q85.58125 57.854164 85.925 58.385414Q86.26875 58.90104 86.45625 59.65104Q86.64375 60.40104 86.64375 61.68229Q86.64375 63.197914 86.33125 64.11979Q86.03438 65.041664 85.40938 65.55729Q84.8 66.05729 83.84688 66.05729Q82.6125 66.05729 81.89375 65.166664Q81.05 64.104164 81.05 61.68229ZM82.12813 61.68229Q82.12813 63.791664 82.62813 64.49479Q83.12813 65.197914 83.84688 65.197914Q84.58125 65.197914 85.06563 64.49479Q85.56563 63.791664 85.56563 61.68229Q85.56563 59.55729 85.06563 58.86979Q84.58125 58.166664 83.83125 58.166664Q83.1125 58.166664 82.675 58.77604Q82.12813 59.55729 82.12813 61.68229Z" fill-rule="nonzero"/><path fill="#000000" d="M149.70259 311.45L149.70259 302.85626L152.48384 302.85626Q154.06197 302.85626 154.54634 302.98126Q155.28072 303.1844 155.78072 303.84064Q156.28072 304.48126 156.28072 305.4969Q156.28072 306.29376 155.98384 306.84064Q155.70259 307.3719 155.26509 307.6844Q154.82759 307.98126 154.35884 308.09064Q153.74947 308.21564 152.56197 308.21564L151.43697 308.21564L151.43697 311.45L149.70259 311.45ZM151.43697 304.3094L151.43697 306.7469L152.39009 306.7469Q153.40572 306.7469 153.74947 306.6219Q154.10884 306.48126 154.29634 306.2Q154.49947 305.90314 154.49947 305.52814Q154.49947 305.0594 154.21822 304.7625Q153.93697 304.45 153.51509 304.3719Q153.21822 304.3094 152.28072 304.3094L151.43697 304.3094ZM159.32759 302.85626L159.32759 306.0125Q160.12447 305.09064 161.23384 305.09064Q161.79634 305.09064 162.24947 305.3094Q162.71822 305.5125 162.95259 305.84064Q163.18697 306.16876 163.26509 306.575Q163.34322 306.96564 163.34322 307.79376L163.34322 311.45L161.70259 311.45L161.70259 308.16876Q161.70259 307.1844 161.60884 306.91876Q161.51509 306.65314 161.28072 306.4969Q161.04634 306.34064 160.68697 306.34064Q160.28072 306.34064 159.95259 306.54376Q159.62447 306.7469 159.46822 307.15314Q159.32759 307.54376 159.32759 308.325L159.32759 311.45L157.68697 311.45L157.68697 302.85626L159.32759 302.85626ZM164.31197 308.2469Q164.31197 307.4344 164.71822 306.66876Q165.12447 305.8875 165.85884 305.4969Q166.59322 305.09064 167.51509 305.09064Q168.92134 305.09064 169.82759 306.0125Q170.73384 306.91876 170.73384 308.325Q170.73384 309.73126 169.81197 310.66876Q168.90572 311.59064 167.53072 311.59064Q166.67134 311.59064 165.89009 311.2Q165.12447 310.8094 164.71822 310.075Q164.31197 309.325 164.31197 308.2469ZM165.99947 308.34064Q165.99947 309.2625 166.43697 309.7625Q166.87447 310.2469 167.51509 310.2469Q168.17134 310.2469 168.59322 309.7625Q169.03072 309.2625 169.03072 308.325Q169.03072 307.41876 168.59322 306.9344Q168.17134 306.4344 167.51509 306.4344Q166.87447 306.4344 166.43697 306.9344Q165.99947 307.41876 165.99947 308.34064ZM174.54634 305.23126L174.54634 306.54376L173.42134 306.54376L173.42134 309.04376Q173.42134 309.8094 173.45259 309.9344Q173.48384 310.0594 173.59322 310.15314Q173.71822 310.23126 173.87447 310.23126Q174.10884 310.23126 174.53072 310.0594L174.67134 311.34064Q174.10884 311.59064 173.37447 311.59064Q172.93697 311.59064 172.57759 311.45Q172.21822 311.29376 172.04634 311.0594Q171.89009 310.8094 171.81197 310.41876Q171.76509 310.1219 171.76509 309.2469L171.76509 306.54376L171.01509 306.54376L171.01509 305.23126L171.76509 305.23126L171.76509 303.9969L173.42134 303.02814L173.42134 305.23126L174.54634 305.23126ZM175.31197 308.2469Q175.31197 307.4344 175.71822 306.66876Q176.12447 305.8875 176.85884 305.4969Q177.59322 305.09064 178.51509 305.09064Q179.92134 305.09064 180.82759 306.0125Q181.73384 306.91876 181.73384 308.325Q181.73384 309.73126 180.81197 310.66876Q179.90572 311.59064 178.53072 311.59064Q177.67134 311.59064 176.89009 311.2Q176.12447 310.8094 175.71822 310.075Q175.31197 309.325 175.31197 308.2469ZM176.99947 308.34064Q176.99947 309.2625 177.43697 309.7625Q177.87447 310.2469 178.51509 310.2469Q179.17134 310.2469 179.59322 309.7625Q180.03072 309.2625 180.03072 308.325Q180.03072 307.41876 179.59322 306.9344Q179.17134 306.4344 178.51509 306.4344Q177.87447 306.4344 177.43697 306.9344Q176.99947 307.41876 176.99947 308.34064Z" fill-rule="nonzero"/><path fill="#000000" d="M263.1717 311.45L260.1092 302.85626L261.9842 302.85626L264.15607 309.21564L266.26544 302.85626L268.1092 302.85626L265.03107 311.45L263.1717 311.45ZM268.96857 304.3875L268.96857 302.85626L270.62482 302.85626L270.62482 304.3875L268.96857 304.3875ZM268.96857 311.45L268.96857 305.23126L270.62482 305.23126L270.62482 311.45L268.96857 311.45ZM277.6717 311.45L276.15607 311.45L276.15607 310.52814Q275.76544 311.075 275.24982 311.34064Q274.7342 311.59064 274.20294 311.59064Q273.12482 311.59064 272.3592 310.73126Q271.6092 309.85626 271.6092 308.3094Q271.6092 306.73126 272.34357 305.91876Q273.09357 305.09064 274.2342 305.09064Q275.26544 305.09064 276.03107 305.95L276.03107 302.85626L277.6717 302.85626L277.6717 311.45ZM273.28107 308.2Q273.28107 309.2 273.56232 309.6375Q273.95294 310.29376 274.6717 310.29376Q275.2342 310.29376 275.62482 309.8094Q276.03107 309.325 276.03107 308.35626Q276.03107 307.29376 275.64044 306.825Q275.26544 306.34064 274.65607 306.34064Q274.07794 306.34064 273.6717 306.8094Q273.28107 307.27814 273.28107 308.2ZM282.57794 309.46564L284.21857 309.7469Q283.90607 310.65314 283.21857 311.1219Q282.53107 311.59064 281.51544 311.59064Q279.89044 311.59064 279.1092 310.52814Q278.4842 309.6844 278.4842 308.3875Q278.4842 306.84064 279.2967 305.96564Q280.1092 305.09064 281.34357 305.09064Q282.7342 305.09064 283.53107 306.0125Q284.34357 306.91876 284.2967 308.8094L280.1717 308.8094Q280.20294 309.54376 280.57794 309.95Q280.95294 310.35626 281.53107 310.35626Q281.90607 310.35626 282.1717 310.15314Q282.43732 309.9344 282.57794 309.46564ZM282.6717 307.8094Q282.65607 307.09064 282.2967 306.71564Q281.95294 306.34064 281.43732 306.34064Q280.90607 306.34064 280.5467 306.73126Q280.20294 307.1375 280.20294 307.8094L282.6717 307.8094ZM285.59357 308.2469Q285.59357 307.4344 285.99982 306.66876Q286.40607 305.8875 287.14044 305.4969Q287.87482 305.09064 288.7967 305.09064Q290.20294 305.09064 291.1092 306.0125Q292.01544 306.91876 292.01544 308.325Q292.01544 309.73126 291.09357 310.66876Q290.18732 311.59064 288.81232 311.59064Q287.95294 311.59064 287.1717 311.2Q286.40607 310.8094 285.99982 310.075Q285.59357 309.325 285.59357 308.2469ZM287.28107 308.34064Q287.28107 309.2625 287.71857 309.7625Q288.15607 310.2469 288.7967 310.2469Q289.45294 310.2469 289.87482 309.7625Q290.31232 309.2625 290.31232 308.325Q290.31232 307.41876 289.87482 306.9344Q289.45294 306.4344 288.7967 306.4344Q288.15607 306.4344 287.71857 306.9344Q287.28107 307.41876 287.28107 308.34064Z" fill-rule="nonzero"/><path fill="#000000" d="M383.2658 308.29376L383.2658 306.84064L387.00018 306.84064L387.00018 310.2625Q386.4533 310.79376 385.42206 311.2Q384.3908 311.59064 383.3283 311.59064Q381.98456 311.59064 380.96893 311.02814Q379.96893 310.46564 379.46893 309.41876Q378.96893 308.35626 378.96893 307.1219Q378.96893 305.77814 379.53143 304.7469Q380.09393 303.7 381.17206 303.1375Q382.00018 302.71564 383.23456 302.71564Q384.8283 302.71564 385.71893 303.3875Q386.62518 304.0594 386.8908 305.23126L385.17206 305.5594Q384.98456 304.9344 384.48456 304.575Q383.98456 304.2 383.23456 304.2Q382.09393 304.2 381.42206 304.91876Q380.75018 305.6375 380.75018 307.0594Q380.75018 308.59064 381.42206 309.35626Q382.10956 310.10626 383.21893 310.10626Q383.7658 310.10626 384.31268 309.90314Q384.85956 309.6844 385.25018 309.3875L385.25018 308.29376L383.2658 308.29376ZM387.21893 311.45L387.21893 302.85626L388.9533 302.85626L388.9533 311.45L387.21893 311.45ZM390.28143 311.45L390.28143 302.85626L396.17206 302.85626L396.17206 304.3094L392.0158 304.3094L392.0158 306.34064L395.59393 306.34064L395.59393 307.79376L392.0158 307.79376L392.0158 311.45L390.28143 311.45Z" fill-rule="nonzero"/><path fill="#000000" d="M490.29742 311.45L488.4068 311.45L487.6568 309.4969L484.2193 309.4969L483.51617 311.45L481.67242 311.45L485.01617 302.85626L486.85992 302.85626L490.29742 311.45ZM487.0943 308.04376L485.92242 304.85626L484.75055 308.04376L487.0943 308.04376ZM494.62555 311.45L494.62555 310.5125Q494.29742 311.0125 493.73492 311.3094Q493.18805 311.59064 492.56305 311.59064Q491.93805 311.59064 491.43805 311.325Q490.93805 311.04376 490.7193 310.54376Q490.50055 310.04376 490.50055 309.16876L490.50055 305.23126L492.14117 305.23126L492.14117 308.09064Q492.14117 309.40314 492.23492 309.7Q492.32867 309.9969 492.56305 310.16876Q492.81305 310.34064 493.17242 310.34064Q493.5943 310.34064 493.92242 310.10626Q494.26617 309.8719 494.39117 309.52814Q494.51617 309.1844 494.51617 307.85626L494.51617 305.23126L496.1568 305.23126L496.1568 311.45L494.62555 311.45ZM503.23492 311.45L501.7193 311.45L501.7193 310.52814Q501.32867 311.075 500.81305 311.34064Q500.29742 311.59064 499.76617 311.59064Q498.68805 311.59064 497.92242 310.73126Q497.17242 309.85626 497.17242 308.3094Q497.17242 306.73126 497.9068 305.91876Q498.6568 305.09064 499.79742 305.09064Q500.82867 305.09064 501.5943 305.95L501.5943 302.85626L503.23492 302.85626L503.23492 311.45ZM498.8443 308.2Q498.8443 309.2 499.12555 309.6375Q499.51617 310.29376 500.23492 310.29376Q500.79742 310.29376 501.18805 309.8094Q501.5943 309.325 501.5943 308.35626Q501.5943 307.29376 501.20367 306.825Q500.82867 306.34064 500.2193 306.34064Q499.64117 306.34064 499.23492 306.8094Q498.8443 307.27814 498.8443 308.2ZM504.5318 304.3875L504.5318 302.85626L506.18805 302.85626L506.18805 304.3875L504.5318 304.3875ZM504.5318 311.45L504.5318 305.23126L506.18805 305.23126L506.18805 311.45L504.5318 311.45ZM507.1568 308.2469Q507.1568 307.4344 507.56305 306.66876Q507.9693 305.8875 508.70367 305.4969Q509.43805 305.09064 510.35992 305.09064Q511.76617 305.09064 512.6724 306.0125Q513.5787 306.91876 513.5787 308.325Q513.5787 309.73126 512.6568 310.66876Q511.75055 311.59064 510.37555 311.59064Q509.51617 311.59064 508.73492 311.2Q507.9693 310.8094 507.56305 310.075Q507.1568 309.325 507.1568 308.2469ZM508.8443 308.34064Q508.8443 309.2625 509.2818 309.7625Q509.7193 310.2469 510.35992 310.2469Q511.01617 310.2469 511.43805 309.7625Q511.87555 309.2625 511.87555 308.325Q511.87555 307.41876 511.43805 306.9344Q511.01617 306.4344 510.35992 306.4344Q509.7193 306.4344 509.2818 306.9344Q508.8443 307.41876 508.8443 308.34064Z" fill-rule="nonzero"/><path fill="#741b47" d="M77.453125 22.425L90.125 22.425L90.125 26.284374L82.703125 26.284374L82.703125 27.753124L89.59375 27.753124L89.59375 31.4875L82.703125 31.4875L82.703125 33.4875L90.34375 33.4875L90.34375 37.55L77.453125 37.55L77.453125 22.425ZM91.203125 26.3625L95.71875 26.3625L95.71875 27.3Q95.875 27.096874 96.8125 26.6125Q97.75 26.128124 99.0625 26.128124Q100.875 26.128124 101.921875 27.2375Q102.984375 28.346874 102.984375 30.55L102.984375 37.55L98.171875 37.55L98.171875 31.440624Q98.171875 30.6125 97.921875 30.346874Q97.671875 30.065624 97.203125 30.065624Q96.671875 30.065624 96.328125 30.4875Q95.984375 30.89375 95.984375 32.159374L95.984375 37.55L91.203125 37.55L91.203125 26.3625ZM111.421875 26.3625L115.953125 26.3625L115.953125 36.565624L115.96875 37.01875Q115.96875 38.096874 115.5 39.065624Q115.046875 40.034374 114.28125 40.628124Q113.53125 41.2375 112.40625 41.4875Q111.28125 41.753124 109.859375 41.753124Q106.59375 41.753124 105.296875 40.70625Q104.0 39.659374 104.0 37.909374Q104.0 37.690624 104.03125 36.925L108.609375 37.440624Q108.78125 38.1125 108.953125 38.221874Q109.296875 38.45625 109.828125 38.45625Q110.515625 38.45625 110.828125 38.1125Q111.140625 37.784374 111.140625 36.8L111.203125 36.14375Q111.21875 36.253124 110.5625 36.596874Q109.546875 37.128124 108.390625 37.128124Q106.109375 37.128124 104.703125 35.14375Q103.71875 33.7375 103.71875 31.503124Q103.71875 28.925 105.0 27.534374Q106.296875 26.128124 108.359375 26.128124Q109.65625 26.128124 110.53125 26.596874Q111.40625 27.05 111.453125 27.14375L111.421875 26.3625ZM108.484375 31.8Q108.484375 32.76875 108.859375 33.190624Q109.234375 33.596874 109.828125 33.596874Q110.375 33.596874 110.765625 33.159374Q111.171875 32.721874 111.171875 31.753124Q111.171875 30.76875 110.75 30.3Q110.328125 29.83125 109.75 29.83125Q109.1875 29.83125 108.828125 30.253124Q108.484375 30.659374 108.484375 31.8ZM121.515625 30.565624L116.953125 30.096874Q117.265625 28.565624 117.71875 27.925Q118.171875 27.284374 119.015625 26.815624Q119.625 26.471874 120.640625 26.3Q121.65625 26.128124 122.796875 26.128124Q124.609375 26.128124 125.765625 26.346874Q126.9375 26.565624 127.734375 27.253124Q128.32812 27.784374 128.64062 28.675Q128.96875 29.55 128.96875 30.3625L128.96875 34.940624Q128.96875 35.628124 129.04688 36.003124Q129.14062 36.3625 129.71875 37.55L125.078125 37.55Q124.734375 36.89375 124.65625 36.659374Q124.578125 36.409374 124.75 36.346874Q124.34375 36.971874 123.5 37.315624Q122.375 37.784374 120.90625 37.784374Q118.890625 37.784374 117.796875 36.815624Q116.71875 35.846874 116.71875 34.39375Q116.71875 33.065624 117.515625 32.190624Q118.28125 31.315624 120.296875 30.909374Q122.515625 30.4875 123.15625 30.315624Q123.8125 30.128124 124.265625 29.940624Q124.265625 29.659374 124.078125 29.4875Q123.90625 29.3 123.3125 29.3Q122.453125 29.3 122.0625 29.55Q121.8125 29.721874 121.515625 30.565624ZM124.265625 32.8Q123.984375 32.909374 123.078125 33.128124Q121.96875 33.425 121.71875 33.675Q121.515625 33.8625 121.515625 34.1125Q121.515625 34.39375 121.71875 34.58125Q121.921875 34.76875 122.390625 34.76875Q122.953125 34.76875 123.421875 34.503124Q123.890625 34.221874 124.078125 33.8625Q124.265625 33.503124 124.265625 32.8625L124.265625 32.8ZM137.42188 26.3625L141.95312 26.3625L141.95312 36.565624L141.96875 37.01875Q141.96875 38.096874 141.5 39.065624Q141.04688 40.034374 140.28125 40.628124Q139.53125 41.2375 138.40625 41.4875Q137.28125 41.753124 135.85938 41.753124Q132.59375 41.753124 131.29688 40.70625Q130.0 39.659374 130.0 37.909374Q130.0 37.690624 130.03125 36.925L134.60938 37.440624Q134.78125 38.1125 134.95312 38.221874Q135.29688 38.45625 135.82812 38.45625Q136.51562 38.45625 136.82812 38.1125Q137.14062 37.784374 137.14062 36.8L137.20312 36.14375Q137.21875 36.253124 136.5625 36.596874Q135.54688 37.128124 134.39062 37.128124Q132.10938 37.128124 130.70312 35.14375Q129.71875 33.7375 129.71875 31.503124Q129.71875 28.925 131.0 27.534374Q132.29688 26.128124 134.35938 26.128124Q135.65625 26.128124 136.53125 26.596874Q137.40625 27.05 137.45312 27.14375L137.42188 26.3625ZM134.48438 31.8Q134.48438 32.76875 134.85938 33.190624Q135.23438 33.596874 135.82812 33.596874Q136.375 33.596874 136.76562 33.159374Q137.17188 32.721874 137.17188 31.753124Q137.17188 30.76875 136.75 30.3Q136.32812 29.83125 135.75 29.83125Q135.1875 29.83125 134.82812 30.253124Q134.48438 30.659374 134.48438 31.8ZM155.53125 33.346874L147.60938 33.346874Q147.65625 33.721874 147.98438 34.096874Q148.4375 34.64375 149.17188 34.64375Q149.65625 34.64375 150.07812 34.39375Q150.34375 34.253124 150.79688 33.675L155.5625 34.1125Q154.29688 36.315624 152.92188 37.05Q151.5625 37.784374 149.09375 37.784374Q146.9375 37.784374 145.65625 37.159374Q144.375 36.534374 143.53125 35.175Q142.70312 33.8 142.70312 31.971874Q142.70312 29.378124 144.375 27.753124Q146.04688 26.128124 148.96875 26.128124Q151.29688 26.128124 152.6875 26.8625Q154.07812 27.58125 154.79688 28.971874Q155.53125 30.346874 155.53125 32.4875L155.53125 33.346874ZM150.625 30.628124Q150.57812 30.08125 150.17188 29.690624Q149.78125 29.3 149.14062 29.3Q148.39062 29.3 147.95312 29.89375Q147.65625 30.26875 147.60938 30.628124L150.625 30.628124ZM156.23438 26.3625L160.75 26.3625L160.75 27.175Q160.90625 27.003124 161.79688 26.565624Q162.6875 26.128124 163.9375 26.128124Q165.28125 26.128124 166.10938 26.628124Q166.9375 27.128124 167.17188 27.58125Q167.76562 26.940624 168.60938 26.534374Q169.46875 26.128124 170.6875 26.128124Q172.53125 26.128124 173.57812 27.253124Q174.64062 28.3625 174.64062 30.628124L174.64062 37.55L169.84375 37.55L169.84375 31.2375Q169.84375 30.675 169.65625 30.440624Q169.375 30.065624 168.98438 30.065624Q168.46875 30.065624 168.14062 30.45625Q167.82812 30.83125 167.82812 31.784374L167.82812 37.55L163.03125 37.55L163.03125 31.425Q163.03125 30.815624 162.96875 30.628124Q162.89062 30.3625 162.67188 30.20625Q162.46875 30.034374 162.1875 30.034374Q161.6875 30.034374 161.35938 30.425Q161.03125 30.815624 161.03125 31.846874L161.03125 37.55L156.23438 37.55L156.23438 26.3625ZM188.53125 33.346874L180.60938 33.346874Q180.65625 33.721874 180.98438 34.096874Q181.4375 34.64375 182.17188 34.64375Q182.65625 34.64375 183.07812 34.39375Q183.34375 34.253124 183.79688 33.675L188.5625 34.1125Q187.29688 36.315624 185.92188 37.05Q184.5625 37.784374 182.09375 37.784374Q179.9375 37.784374 178.65625 37.159374Q177.375 36.534374 176.53125 35.175Q175.70312 33.8 175.70312 31.971874Q175.70312 29.378124 177.375 27.753124Q179.04688 26.128124 181.96875 26.128124Q184.29688 26.128124 185.6875 26.8625Q187.07812 27.58125 187.79688 28.971874Q188.53125 30.346874 188.53125 32.4875L188.53125 33.346874ZM183.625 30.628124Q183.57812 30.08125 183.17188 29.690624Q182.78125 29.3 182.14062 29.3Q181.39062 29.3 180.95312 29.89375Q180.65625 30.26875 180.60938 30.628124L183.625 30.628124ZM189.20312 26.3625L193.71875 26.3625L193.71875 27.3Q193.875 27.096874 194.8125 26.6125Q195.75 26.128124 197.0625 26.128124Q198.875 26.128124 199.92188 27.2375Q200.98438 28.346874 200.98438 30.55L200.98438 37.55L196.17188 37.55L196.17188 31.440624Q196.17188 30.6125 195.92188 30.346874Q195.67188 30.065624 195.20312 30.065624Q194.67188 30.065624 194.32812 30.4875Q193.98438 30.89375 193.98438 32.159374L193.98438 37.55L189.20312 37.55L189.20312 26.3625ZM207.8125 22.175L207.8125 26.3625L210.0 26.3625L210.0 30.08125L207.8125 30.08125L207.8125 33.346874Q207.8125 33.909374 207.89062 34.034374Q207.95312 34.159374 208.21875 34.159374Q208.59375 34.159374 209.78125 33.784374L210.17188 37.3625Q208.3125 37.784374 206.98438 37.784374Q205.39062 37.784374 204.57812 37.346874Q203.78125 36.909374 203.39062 36.034374Q203.01562 35.14375 203.01562 33.33125L203.01562 30.08125L201.54688 30.08125L201.54688 26.3625L203.01562 26.3625L203.01562 24.6125L207.8125 22.175ZM218.46875 22.425L223.70312 22.425L223.70312 33.20625L230.60938 33.20625L230.60938 37.55L218.46875 37.55L218.46875 22.425ZM243.53125 33.346874L235.60938 33.346874Q235.65625 33.721874 235.98438 34.096874Q236.4375 34.64375 237.17188 34.64375Q237.65625 34.64375 238.07812 34.39375Q238.34375 34.253124 238.79688 33.675L243.5625 34.1125Q242.29688 36.315624 240.92188 37.05Q239.5625 37.784374 237.09375 37.784374Q234.9375 37.784374 233.65625 37.159374Q232.375 36.534374 231.53125 35.175Q230.70312 33.8 230.70312 31.971874Q230.70312 29.378124 232.375 27.753124Q234.04688 26.128124 236.96875 26.128124Q239.29688 26.128124 240.6875 26.8625Q242.07812 27.58125 242.79688 28.971874Q243.53125 30.346874 243.53125 32.4875L243.53125 33.346874ZM238.625 30.628124Q238.57812 30.08125 238.17188 29.690624Q237.78125 29.3 237.14062 29.3Q236.39062 29.3 235.95312 29.89375Q235.65625 30.26875 235.60938 30.628124L238.625 30.628124ZM242.8125 26.3625L247.85938 26.3625L249.57812 31.971874L251.35938 26.3625L256.28125 26.3625L251.53125 37.55L247.48438 37.55L242.8125 26.3625ZM268.53125 33.346874L260.60938 33.346874Q260.65625 33.721874 260.98438 34.096874Q261.4375 34.64375 262.17188 34.64375Q262.65625 34.64375 263.07812 34.39375Q263.34375 34.253124 263.79688 33.675L268.5625 34.1125Q267.29688 36.315624 265.92188 37.05Q264.5625 37.784374 262.09375 37.784374Q259.9375 37.784374 258.65625 37.159374Q257.375 36.534374 256.53125 35.175Q255.70312 33.8 255.70312 31.971874Q255.70312 29.378124 257.375 27.753124Q259.04688 26.128124 261.96875 26.128124Q264.29688 26.128124 265.6875 26.8625Q267.07812 27.58125 267.79688 28.971874Q268.53125 30.346874 268.53125 32.4875L268.53125 33.346874ZM263.625 30.628124Q263.57812 30.08125 263.17188 29.690624Q262.78125 29.3 262.14062 29.3Q261.39062 29.3 260.95312 29.89375Q260.65625 30.26875 260.60938 30.628124L263.625 30.628124ZM269.34375 22.425L274.14062 22.425L274.14062 37.55L269.34375 37.55L269.34375 22.425ZM288.4375 26.3625L290.32812 26.3625L290.32812 30.08125L288.4375 30.08125L288.4375 37.55L283.64062 37.55L283.64062 30.08125L282.15625 30.08125L282.15625 26.3625L283.64062 26.3625L283.64062 26.3Q283.64062 25.64375 283.79688 24.815624Q283.95312 23.971874 284.39062 23.409374Q284.82812 22.846874 285.59375 22.51875Q286.35938 22.175 287.73438 22.175Q288.8125 22.175 291.26562 22.4875L290.67188 25.675Q289.59375 25.51875 289.1875 25.51875Q288.78125 25.51875 288.65625 25.6125Q288.53125 25.70625 288.46875 25.95625Q288.4375 26.128124 288.4375 26.3625ZM290.71875 31.9875Q290.71875 29.440624 292.4375 27.784374Q294.17188 26.128124 297.04688 26.128124Q300.34375 26.128124 302.0625 28.08125Q303.4375 29.64375 303.4375 31.925Q303.4375 34.4875 301.73438 36.14375Q300.03125 37.784374 297.0625 37.784374Q294.42188 37.784374 292.75 36.425Q290.71875 34.721874 290.71875 31.9875ZM295.51562 31.971874Q295.51562 33.20625 295.96875 33.753124Q296.42188 34.284374 297.07812 34.284374Q297.75 34.284374 298.1875 33.753124Q298.64062 33.221874 298.64062 31.940624Q298.64062 30.753124 298.1875 30.221874Q297.73438 29.675 297.10938 29.675Q296.42188 29.675 295.96875 30.221874Q295.51562 30.753124 295.51562 31.971874ZM304.23438 26.3625L308.78125 26.3625L308.65625 27.2375Q308.57812 27.096874 309.25 26.6125Q309.92188 26.128124 310.89062 26.128124Q311.85938 26.128124 313.34375 26.89375L311.79688 30.440624Q310.79688 30.034374 310.46875 30.034374Q309.90625 30.034374 309.59375 30.503124Q309.04688 31.3 309.04688 33.659374L309.04688 37.55L304.23438 37.55L304.23438 26.3625ZM320.45312 22.425L333.125 22.425L333.125 26.284374L325.70312 26.284374L325.70312 27.753124L332.59375 27.753124L332.59375 31.4875L325.70312 31.4875L325.70312 33.4875L333.34375 33.4875L333.34375 37.55L320.45312 37.55L320.45312 22.425ZM338.51562 30.565624L333.95312 30.096874Q334.26562 28.565624 334.71875 27.925Q335.17188 27.284374 336.01562 26.815624Q336.625 26.471874 337.64062 26.3Q338.65625 26.128124 339.79688 26.128124Q341.60938 26.128124 342.76562 26.346874Q343.9375 26.565624 344.73438 27.253124Q345.32812 27.784374 345.64062 28.675Q345.96875 29.55 345.96875 30.3625L345.96875 34.940624Q345.96875 35.628124 346.04688 36.003124Q346.14062 36.3625 346.71875 37.55L342.07812 37.55Q341.73438 36.89375 341.65625 36.659374Q341.57812 36.409374 341.75 36.346874Q341.34375 36.971874 340.5 37.315624Q339.375 37.784374 337.90625 37.784374Q335.89062 37.784374 334.79688 36.815624Q333.71875 35.846874 333.71875 34.39375Q333.71875 33.065624 334.51562 32.190624Q335.28125 31.315624 337.29688 30.909374Q339.51562 30.4875 340.15625 30.315624Q340.8125 30.128124 341.26562 29.940624Q341.26562 29.659374 341.07812 29.4875Q340.90625 29.3 340.3125 29.3Q339.45312 29.3 339.0625 29.55Q338.8125 29.721874 338.51562 30.565624ZM341.26562 32.8Q340.98438 32.909374 340.07812 33.128124Q338.96875 33.425 338.71875 33.675Q338.51562 33.8625 338.51562 34.1125Q338.51562 34.39375 338.71875 34.58125Q338.92188 34.76875 339.39062 34.76875Q339.95312 34.76875 340.42188 34.503124Q340.89062 34.221874 341.07812 33.8625Q341.26562 33.503124 341.26562 32.8625L341.26562 32.8ZM355.0625 32.659374L359.64062 33.159374Q359.1875 34.89375 358.40625 35.83125Q357.64062 36.753124 356.4375 37.284374Q355.25 37.8 353.45312 37.8Q351.75 37.8 350.57812 37.471874Q349.40625 37.128124 348.54688 36.39375Q347.70312 35.64375 347.20312 34.64375Q346.71875 33.628124 346.71875 32.003124Q346.71875 30.315624 347.3125 29.159374Q347.75 28.315624 348.5 27.64375Q349.25 26.971874 350.04688 26.64375Q351.28125 26.128124 353.17188 26.128124Q355.84375 26.128124 357.28125 27.1125Q358.71875 28.096874 359.45312 30.440624L354.875 31.05Q354.64062 30.190624 354.29688 29.940624Q353.95312 29.675 353.29688 29.675Q352.5 29.675 351.98438 30.253124Q351.48438 30.83125 351.48438 32.1125Q351.48438 33.2375 351.96875 33.784374Q352.46875 34.315624 353.23438 34.315624Q353.875 34.315624 354.29688 34.003124Q354.73438 33.675 355.0625 32.659374ZM360.20312 22.425L364.98438 22.425L364.98438 27.096874Q365.15625 26.909374 366.03125 26.51875Q366.90625 26.128124 368.09375 26.128124Q369.875 26.128124 370.92188 27.2375Q371.98438 28.346874 371.98438 30.55L371.98438 37.55L367.17188 37.55L367.17188 31.440624Q367.17188 30.6125 366.92188 30.346874Q366.67188 30.065624 366.20312 30.065624Q365.67188 30.065624 365.32812 30.4875Q364.98438 30.89375 364.98438 32.159374L364.98438 37.55L360.20312 37.55L360.20312 22.425ZM390.10938 30.784374L394.76562 32.190624Q394.26562 34.26875 393.35938 35.440624Q392.46875 36.6125 391.14062 37.20625Q389.8125 37.8 387.79688 37.8Q385.375 37.8 383.79688 37.08125Q382.21875 36.346874 381.07812 34.55Q379.95312 32.7375 379.95312 29.95625Q379.95312 26.221874 381.95312 24.20625Q383.96875 22.175 387.59375 22.175Q390.42188 22.175 392.07812 23.346874Q393.73438 24.51875 394.67188 27.33125L389.95312 28.39375Q389.65625 27.440624 389.48438 27.175Q389.17188 26.753124 388.71875 26.534374Q388.26562 26.3 387.70312 26.3Q386.40625 26.3 385.73438 27.315624Q385.1875 28.128124 385.1875 29.925Q385.1875 32.175 385.79688 32.925Q386.42188 33.675 387.54688 33.675Q388.625 33.675 389.17188 33.065624Q389.73438 32.45625 390.10938 30.784374ZM395.71875 31.9875Q395.71875 29.440624 397.4375 27.784374Q399.17188 26.128124 402.04688 26.128124Q405.34375 26.128124 407.0625 28.08125Q408.4375 29.64375 408.4375 31.925Q408.4375 34.4875 406.73438 36.14375Q405.03125 37.784374 402.0625 37.784374Q399.42188 37.784374 397.75 36.425Q395.71875 34.721874 395.71875 31.9875ZM400.51562 31.971874Q400.51562 33.20625 400.96875 33.753124Q401.42188 34.284374 402.07812 34.284374Q402.75 34.284374 403.1875 33.753124Q403.64062 33.221874 403.64062 31.940624Q403.64062 30.753124 403.1875 30.221874Q402.73438 29.675 402.10938 29.675Q401.42188 29.675 400.96875 30.221874Q400.51562 30.753124 400.51562 31.971874ZM409.20312 26.3625L413.71875 26.3625L413.71875 27.3Q413.875 27.096874 414.8125 26.6125Q415.75 26.128124 417.0625 26.128124Q418.875 26.128124 419.92188 27.2375Q420.98438 28.346874 420.98438 30.55L420.98438 37.55L416.17188 37.55L416.17188 31.440624Q416.17188 30.6125 415.92188 30.346874Q415.67188 30.065624 415.20312 30.065624Q414.67188 30.065624 414.32812 30.4875Q413.98438 30.89375 413.98438 32.159374L413.98438 37.55L409.20312 37.55L409.20312 26.3625ZM427.8125 22.175L427.8125 26.3625L430.0 26.3625L430.0 30.08125L427.8125 30.08125L427.8125 33.346874Q427.8125 33.909374 427.89062 34.034374Q427.95312 34.159374 428.21875 34.159374Q428.59375 34.159374 429.78125 33.784374L430.17188 37.3625Q428.3125 37.784374 426.98438 37.784374Q425.39062 37.784374 424.57812 37.346874Q423.78125 36.909374 423.39062 36.034374Q423.01562 35.14375 423.01562 33.33125L423.01562 30.08125L421.54688 30.08125L421.54688 26.3625L423.01562 26.3625L423.01562 24.6125L427.8125 22.175ZM443.53125 33.346874L435.60938 33.346874Q435.65625 33.721874 435.98438 34.096874Q436.4375 34.64375 437.17188 34.64375Q437.65625 34.64375 438.07812 34.39375Q438.34375 34.253124 438.79688 33.675L443.5625 34.1125Q442.29688 36.315624 440.92188 37.05Q439.5625 37.784374 437.09375 37.784374Q434.9375 37.784374 433.65625 37.159374Q432.375 36.534374 431.53125 35.175Q430.70312 33.8 430.70312 31.971874Q430.70312 29.378124 432.375 27.753124Q434.04688 26.128124 436.96875 26.128124Q439.29688 26.128124 440.6875 26.8625Q442.07812 27.58125 442.79688 28.971874Q443.53125 30.346874 443.53125 32.4875L443.53125 33.346874ZM438.625 30.628124Q438.57812 30.08125 438.17188 29.690624Q437.78125 29.3 437.14062 29.3Q436.39062 29.3 435.95312 29.89375Q435.65625 30.26875 435.60938 30.628124L438.625 30.628124ZM444.20312 26.3625L448.71875 26.3625L448.71875 27.3Q448.875 27.096874 449.8125 26.6125Q450.75 26.128124 452.0625 26.128124Q453.875 26.128124 454.92188 27.2375Q455.98438 28.346874 455.98438 30.55L455.98438 37.55L451.17188 37.55L451.17188 31.440624Q451.17188 30.6125 450.92188 30.346874Q450.67188 30.065624 450.20312 30.065624Q449.67188 30.065624 449.32812 30.4875Q448.98438 30.89375 448.98438 32.159374L448.98438 37.55L444.20312 37.55L444.20312 26.3625ZM462.8125 22.175L462.8125 26.3625L465.0 26.3625L465.0 30.08125L462.8125 30.08125L462.8125 33.346874Q462.8125 33.909374 462.89062 34.034374Q462.95312 34.159374 463.21875 34.159374Q463.59375 34.159374 464.78125 33.784374L465.17188 37.3625Q463.3125 37.784374 461.98438 37.784374Q460.39062 37.784374 459.57812 37.346874Q458.78125 36.909374 458.39062 36.034374Q458.01562 35.14375 458.01562 33.33125L458.01562 30.08125L456.54688 30.08125L456.54688 26.3625L458.01562 26.3625L458.01562 24.6125L462.8125 22.175ZM472.45312 22.425L486.71875 22.425L486.71875 26.76875L482.20312 26.76875L482.20312 37.55L476.96875 37.55L476.96875 26.76875L472.45312 26.76875L472.45312 22.425ZM485.84375 26.3625L490.95312 26.3625L492.78125 32.253124L494.46875 26.3625L499.26562 26.3625L494.95312 38.003124Q494.21875 39.9875 493.40625 40.70625Q492.26562 41.753124 489.98438 41.753124Q489.09375 41.753124 486.95312 41.471874L486.54688 37.76875Q487.9375 38.20625 488.9375 38.20625Q489.5 38.20625 489.82812 37.95625Q490.17188 37.721874 490.375 37.159374L485.84375 26.3625ZM499.21875 41.503124L499.21875 26.3625L503.75 26.3625L503.75 27.14375Q503.85938 27.003124 504.57812 26.64375Q505.53125 26.128124 506.6875 26.128124Q508.96875 26.128124 510.20312 27.8625Q511.45312 29.596874 511.45312 32.065624Q511.45312 34.815624 510.09375 36.3Q508.73438 37.784374 506.67188 37.784374Q505.67188 37.784374 504.82812 37.440624Q504.0 37.096874 503.98438 36.9875L504.04688 41.503124L499.21875 41.503124ZM504.01562 31.9875Q504.01562 33.065624 504.42188 33.534374Q504.82812 34.003124 505.4375 34.003124Q505.9375 34.003124 506.29688 33.565624Q506.65625 33.128124 506.65625 31.89375Q506.65625 30.784374 506.28125 30.33125Q505.90625 29.8625 505.39062 29.8625Q504.8125 29.8625 504.40625 30.33125Q504.01562 30.8 504.01562 31.9875ZM524.53125 33.346874L516.6094 33.346874Q516.65625 33.721874 516.9844 34.096874Q517.4375 34.64375 518.1719 34.64375Q518.65625 34.64375 519.0781 34.39375Q519.34375 34.253124 519.7969 33.675L524.5625 34.1125Q523.2969 36.315624 521.9219 37.05Q520.5625 37.784374 518.09375 37.784374Q515.9375 37.784374 514.65625 37.159374Q513.375 36.534374 512.53125 35.175Q511.70312 33.8 511.70312 31.971874Q511.70312 29.378124 513.375 27.753124Q515.0469 26.128124 517.96875 26.128124Q520.2969 26.128124 521.6875 26.8625Q523.0781 27.58125 523.7969 28.971874Q524.53125 30.346874 524.53125 32.4875L524.53125 33.346874ZM519.625 30.628124Q519.5781 30.08125 519.1719 29.690624Q518.78125 29.3 518.1406 29.3Q517.3906 29.3 516.9531 29.89375Q516.65625 30.26875 516.6094 30.628124L519.625 30.628124Z" fill-rule="nonzero"/></svg>