<svg version="1.1" viewBox="0.0 0.0 600.0 371.0" fill="none" stroke="none" stroke-linecap="square" stroke-miterlimit="10" width="600" height="371" xmlns:xlink="http://www.w3.org/1999/xlink" xmlns="http://www.w3.org/2000/svg"><path fill="#efefef" d="M0 0L600.0 0L600.0 371.0L0 371.0L0 0Z" fill-rule="nonzero"/><path fill="#efefef" d="M18.55 54.916668L476.61444 54.916668L476.61444 352.44998L18.55 352.44998L18.55 54.916668Z" fill-rule="nonzero"/><path stroke="#bcbcbc" stroke-width="1.0" stroke-linecap="butt" d="M248.0 204.0C248.0 204.0 248.0 204.0 248.0 204.0C248.0 204.0 248.0 204.0 248.0 204.0C248.0 204.0 248.0 204.0 248.0 204.0C248.0 204.0 248.0 204.0 248.0 204.0" fill-rule="nonzero"/><path fill="#000000" d="M228.0625 197.35938Q228.0625 199.26562 227.40625 200.20312Q226.76562 201.125 225.375 201.125Q224.01562 201.125 223.35938 200.21875Q222.70312 199.3125 222.67188 197.5L222.67188 196.0625Q222.67188 194.17188 223.3125 193.26562Q223.96875 192.34375 225.35938 192.34375Q226.73438 192.34375 227.39062 193.23438Q228.04688 194.10938 228.0625 195.95312L228.0625 197.35938ZM226.96875 195.875Q226.96875 194.5 226.57812 193.875Q226.20312 193.23438 225.35938 193.23438Q224.53125 193.23438 224.14062 193.875Q223.76562 194.5 223.76562 195.79688L223.76562 197.53125Q223.76562 198.90625 224.15625 199.57812Q224.5625 200.23438 225.375 200.23438Q226.17188 200.23438 226.5625 199.60938Q226.95312 198.98438 226.96875 197.65625L226.96875 195.875ZM229.84375 200.4375Q229.84375 200.15625 230.0 199.96875Q230.17188 199.78125 230.5 199.78125Q230.84375 199.78125 231.01562 199.96875Q231.1875 200.15625 231.1875 200.4375Q231.1875 200.70312 231.01562 200.89062Q230.84375 201.0625 230.5 201.0625Q230.17188 201.0625 230.0 200.89062Q229.84375 200.70312 229.84375 200.4375ZM238.0625 197.35938Q238.0625 199.26562 237.40625 200.20312Q236.76562 201.125 235.375 201.125Q234.01562 201.125 233.35938 200.21875Q232.70312 199.3125 232.67188 197.5L232.67188 196.0625Q232.67188 194.17188 233.3125 193.26562Q233.96875 192.34375 235.35938 192.34375Q236.73438 192.34375 237.39062 193.23438Q238.04688 194.10938 238.0625 195.95312L238.0625 197.35938ZM236.96875 195.875Q236.96875 194.5 236.57812 193.875Q236.20312 193.23438 235.35938 193.23438Q234.53125 193.23438 234.14062 193.875Q233.76562 194.5 233.76562 195.79688L233.76562 197.53125Q233.76562 198.90625 234.15625 199.57812Q234.5625 200.23438 235.375 200.23438Q236.17188 200.23438 236.5625 199.60938Q236.95312 198.98438 236.96875 197.65625L236.96875 195.875ZM245.0625 197.35938Q245.0625 199.26562 244.40625 200.20312Q243.76562 201.125 242.375 201.125Q241.01562 201.125 240.35938 200.21875Q239.70312 199.3125 239.67188 197.5L239.67188 196.0625Q239.67188 194.17188 240.3125 193.26562Q240.96875 192.34375 242.35938 192.34375Q243.73438 192.34375 244.39062 193.23438Q245.04688 194.10938 245.0625 195.95312L245.0625 197.35938ZM243.96875 195.875Q243.96875 194.5 243.57812 193.875Q243.20312 193.23438 242.35938 193.23438Q241.53125 193.23438 241.14062 193.875Q240.76562 194.5 240.76562 195.79688L240.76562 197.53125Q240.76562 198.90625 241.15625 199.57812Q241.5625 200.23438 242.375 200.23438Q243.17188 200.23438 243.5625 199.60938Q243.95312 198.98438 243.96875 197.65625L243.96875 195.875Z" fill-rule="nonzero"/><path stroke="#bcbcbc" stroke-width="1.0" stroke-linecap="butt" d="M286.9222 204.0C286.9222 182.50385 269.49615 165.07777 248.0 165.07777C226.50385 165.07777 209.07777 182.50385 209.07777 204.0C209.07777 225.49615 226.50385 242.92223 248.0 242.92223C269.49615 242.92223 286.9222 225.49615 286.9222 204.0" fill-rule="nonzero"/><path fill="#000000" d="M226.26562 162.07777L225.1875 162.07777L225.1875 154.85902L223.0 155.6559L223.0 154.67152L226.10938 153.49965L226.26562 153.49965L226.26562 162.07777ZM229.84375 161.51527Q229.84375 161.23402 230.0 161.04652Q230.17188 160.85902 230.5 160.85902Q230.84375 160.85902 231.01562 161.04652Q231.1875 161.23402 231.1875 161.51527Q231.1875 161.7809 231.01562 161.9684Q230.84375 162.14027 230.5 162.14027Q230.17188 162.14027 230.0 161.9684Q229.84375 161.7809 229.84375 161.51527ZM238.0625 158.43715Q238.0625 160.3434 237.40625 161.2809Q236.76562 162.20277 235.375 162.20277Q234.01562 162.20277 233.35938 161.29652Q232.70312 160.39027 232.67188 158.57777L232.67188 157.14027Q232.67188 155.24965 233.3125 154.3434Q233.96875 153.42152 235.35938 153.42152Q236.73438 153.42152 237.39062 154.31215Q238.04688 155.18715 238.0625 157.0309L238.0625 158.43715ZM236.96875 156.95277Q236.96875 155.57777 236.57812 154.95277Q236.20312 154.31215 235.35938 154.31215Q234.53125 154.31215 234.14062 154.95277Q233.76562 155.57777 233.76562 156.87465L233.76562 158.60902Q233.76562 159.98402 234.15625 160.6559Q234.5625 161.31215 235.375 161.31215Q236.17188 161.31215 236.5625 160.68715Q236.95312 160.06215 236.96875 158.73402L236.96875 156.95277ZM245.0625 158.43715Q245.0625 160.3434 244.40625 161.2809Q243.76562 162.20277 242.375 162.20277Q241.01562 162.20277 240.35938 161.29652Q239.70312 160.39027 239.67188 158.57777L239.67188 157.14027Q239.67188 155.24965 240.3125 154.3434Q240.96875 153.42152 242.35938 153.42152Q243.73438 153.42152 244.39062 154.31215Q245.04688 155.18715 245.0625 157.0309L245.0625 158.43715ZM243.96875 156.95277Q243.96875 155.57777 243.57812 154.95277Q243.20312 154.31215 242.35938 154.31215Q241.53125 154.31215 241.14062 154.95277Q240.76562 155.57777 240.76562 156.87465L240.76562 158.60902Q240.76562 159.98402 241.15625 160.6559Q241.5625 161.31215 242.375 161.31215Q243.17188 161.31215 243.5625 160.68715Q243.95312 160.06215 243.96875 158.73402L243.96875 156.95277Z" fill-rule="nonzero"/><path stroke="#bcbcbc" stroke-width="1.0" stroke-linecap="butt" d="M325.84445 204.0C325.84445 161.0077 290.9923 126.155556 248.0 126.155556C205.0077 126.155556 170.15555 161.0077 170.15555 204.0C170.15555 246.9923 205.0077 281.84445 248.0 281.84445C290.9923 281.84445 325.84445 246.9923 325.84445 204.0" fill-rule="nonzero"/><path fill="#000000" d="M228.29688 123.155556L222.70312 123.155556L222.70312 122.374306L225.65625 119.093056Q226.3125 118.343056 226.5625 117.88993Q226.8125 117.42118 226.8125 116.92118Q226.8125 116.249306 226.40625 115.82743Q226.01562 115.38993 225.32812 115.38993Q224.53125 115.38993 224.07812 115.85868Q223.625 116.311806 223.625 117.13993L222.54688 117.13993Q222.54688 115.95243 223.29688 115.23368Q224.0625 114.499306 225.32812 114.499306Q226.53125 114.499306 227.21875 115.124306Q227.90625 115.749306 227.90625 116.79618Q227.90625 118.04618 226.29688 119.79618L224.01562 122.26493L228.29688 122.26493L228.29688 123.155556ZM229.84375 122.593056Q229.84375 122.311806 230.0 122.124306Q230.17188 121.936806 230.5 121.936806Q230.84375 121.936806 231.01562 122.124306Q231.1875 122.311806 231.1875 122.593056Q231.1875 122.85868 231.01562 123.04618Q230.84375 123.218056 230.5 123.218056Q230.17188 123.218056 230.0 123.04618Q229.84375 122.85868 229.84375 122.593056ZM238.0625 119.51493Q238.0625 121.42118 237.40625 122.35868Q236.76562 123.280556 235.375 123.280556Q234.01562 123.280556 233.35938 122.374306Q232.70312 121.468056 232.67188 119.655556L232.67188 118.218056Q232.67188 116.32743 233.3125 115.42118Q233.96875 114.499306 235.35938 114.499306Q236.73438 114.499306 237.39062 115.38993Q238.04688 116.26493 238.0625 118.10868L238.0625 119.51493ZM236.96875 118.030556Q236.96875 116.655556 236.57812 116.030556Q236.20312 115.38993 235.35938 115.38993Q234.53125 115.38993 234.14062 116.030556Q233.76562 116.655556 233.76562 117.95243L233.76562 119.686806Q233.76562 121.061806 234.15625 121.73368Q234.5625 122.38993 235.375 122.38993Q236.17188 122.38993 236.5625 121.76493Q236.95312 121.13993 236.96875 119.811806L236.96875 118.030556ZM245.0625 119.51493Q245.0625 121.42118 244.40625 122.35868Q243.76562 123.280556 242.375 123.280556Q241.01562 123.280556 240.35938 122.374306Q239.70312 121.468056 239.67188 119.655556L239.67188 118.218056Q239.67188 116.32743 240.3125 115.42118Q240.96875 114.499306 242.35938 114.499306Q243.73438 114.499306 244.39062 115.38993Q245.04688 116.26493 245.0625 118.10868L245.0625 119.51493ZM243.96875 118.030556Q243.96875 116.655556 243.57812 116.030556Q243.20312 115.38993 242.35938 115.38993Q241.53125 115.38993 241.14062 116.030556Q240.76562 116.655556 240.76562 117.95243L240.76562 119.686806Q240.76562 121.061806 241.15625 121.73368Q241.5625 122.38993 242.375 122.38993Q243.17188 122.38993 243.5625 121.76493Q243.95312 121.13993 243.96875 119.811806L243.96875 118.030556Z" fill-rule="nonzero"/><path stroke="#bcbcbc" stroke-width="1.0" stroke-linecap="butt" d="M364.76666 204.0C364.76666 139.51155 312.48846 87.23333 248.0 87.23333C183.51155 87.23333 131.23334 139.51155 131.23334 204.0C131.23334 268.48846 183.51155 320.76666 248.0 320.76666C312.48846 320.76666 364.76666 268.48846 364.76666 204.0" fill-rule="nonzero"/><path fill="#000000" d="M224.28125 79.436455L225.09375 79.436455Q225.875 79.42083 226.3125 79.030205Q226.75 78.63958 226.75 77.967705Q226.75 76.467705 225.25 76.467705Q224.54688 76.467705 224.125 76.873955Q223.71875 77.280205 223.71875 77.936455L222.625 77.936455Q222.625 76.92083 223.35938 76.248955Q224.10938 75.57708 225.25 75.57708Q226.45312 75.57708 227.14062 76.217705Q227.82812 76.85833 227.82812 77.998955Q227.82812 78.561455 227.46875 79.07708Q227.10938 79.592705 226.48438 79.85833Q227.1875 80.07708 227.5625 80.592705Q227.95312 81.10833 227.95312 81.85833Q227.95312 82.998955 227.20312 83.686455Q226.45312 84.35833 225.25 84.35833Q224.0625 84.35833 223.29688 83.70208Q222.54688 83.04583 222.54688 81.98333L223.64062 81.98333Q223.64062 82.655205 224.07812 83.061455Q224.51562 83.467705 225.26562 83.467705Q226.04688 83.467705 226.45312 83.061455Q226.875 82.63958 226.875 81.873955Q226.875 81.13958 226.42188 80.748955Q225.96875 80.342705 225.09375 80.32708L224.28125 80.32708L224.28125 79.436455ZM229.84375 83.67083Q229.84375 83.38958 230.0 83.20208Q230.17188 83.01458 230.5 83.01458Q230.84375 83.01458 231.01562 83.20208Q231.1875 83.38958 231.1875 83.67083Q231.1875 83.936455 231.01562 84.123955Q230.84375 84.29583 230.5 84.29583Q230.17188 84.29583 230.0 84.123955Q229.84375 83.936455 229.84375 83.67083ZM238.0625 80.592705Q238.0625 82.498955 237.40625 83.436455Q236.76562 84.35833 235.375 84.35833Q234.01562 84.35833 233.35938 83.45208Q232.70312 82.54583 232.67188 80.73333L232.67188 79.29583Q232.67188 77.405205 233.3125 76.498955Q233.96875 75.57708 235.35938 75.57708Q236.73438 75.57708 237.39062 76.467705Q238.04688 77.342705 238.0625 79.186455L238.0625 80.592705ZM236.96875 79.10833Q236.96875 77.73333 236.57812 77.10833Q236.20312 76.467705 235.35938 76.467705Q234.53125 76.467705 234.14062 77.10833Q233.76562 77.73333 233.76562 79.030205L233.76562 80.76458Q233.76562 82.13958 234.15625 82.811455Q234.5625 83.467705 235.375 83.467705Q236.17188 83.467705 236.5625 82.842705Q236.95312 82.217705 236.96875 80.88958L236.96875 79.10833ZM245.0625 80.592705Q245.0625 82.498955 244.40625 83.436455Q243.76562 84.35833 242.375 84.35833Q241.01562 84.35833 240.35938 83.45208Q239.70312 82.54583 239.67188 80.73333L239.67188 79.29583Q239.67188 77.405205 240.3125 76.498955Q240.96875 75.57708 242.35938 75.57708Q243.73438 75.57708 244.39062 76.467705Q245.04688 77.342705 245.0625 79.186455L245.0625 80.592705ZM243.96875 79.10833Q243.96875 77.73333 243.57812 77.10833Q243.20312 76.467705 242.35938 76.467705Q241.53125 76.467705 241.14062 77.10833Q240.76562 77.73333 240.76562 79.030205L240.76562 80.76458Q240.76562 82.13958 241.15625 82.811455Q241.5625 83.467705 242.375 83.467705Q243.17188 83.467705 243.5625 82.842705Q243.95312 82.217705 243.96875 80.88958L243.96875 79.10833Z" fill-rule="nonzero"/><path stroke="#bcbcbc" stroke-width="1.0" stroke-linecap="butt" d="M248.0 204.0L248.0 87.0" fill-rule="nonzero"/><path fill="#000000" d="M250.5625 65.859375Q250.5625 67.765625 249.90625 68.703125Q249.26562 69.625 247.875 69.625Q246.51562 69.625 245.85938 68.71875Q245.20312 67.8125 245.17188 66.0L245.17188 64.5625Q245.17188 62.671875 245.8125 61.765625Q246.46875 60.84375 247.85938 60.84375Q249.23438 60.84375 249.89062 61.734375Q250.54688 62.609375 250.5625 64.453125L250.5625 65.859375ZM249.46875 64.375Q249.46875 63.0 249.07812 62.375Q248.70312 61.734375 247.85938 61.734375Q247.03125 61.734375 246.64062 62.375Q246.26562 63.0 246.26562 64.296875L246.26562 66.03125Q246.26562 67.40625 246.65625 68.078125Q247.0625 68.734375 247.875 68.734375Q248.67188 68.734375 249.0625 68.109375Q249.45312 67.484375 249.46875 66.15625L249.46875 64.375Z" fill-rule="nonzero"/><path stroke="#bcbcbc" stroke-width="1.0" stroke-linecap="butt" d="M248.0 204.0L278.0 91.0" fill-rule="nonzero"/><path fill="#000000" d="M284.76562 73.5L283.6875 73.5L283.6875 66.28125L281.5 67.078125L281.5 66.09375L284.60938 64.921875L284.76562 64.921875L284.76562 73.5Z" fill-rule="nonzero"/><path stroke="#bcbcbc" stroke-width="1.0" stroke-linecap="butt" d="M248.0 204.0L306.0 103.0" fill-rule="nonzero"/><path fill="#000000" d="M320.79688 87.5L315.20312 87.5L315.20312 86.71875L318.15625 83.4375Q318.8125 82.6875 319.0625 82.234375Q319.3125 81.765625 319.3125 81.265625Q319.3125 80.59375 318.90625 80.171875Q318.51562 79.734375 317.82812 79.734375Q317.03125 79.734375 316.57812 80.203125Q316.125 80.65625 316.125 81.484375L315.04688 81.484375Q315.04688 80.296875 315.79688 79.578125Q316.5625 78.84375 317.82812 78.84375Q319.03125 78.84375 319.71875 79.46875Q320.40625 80.09375 320.40625 81.140625Q320.40625 82.390625 318.79688 84.140625L316.51562 86.609375L320.79688 86.609375L320.79688 87.5Z" fill-rule="nonzero"/><path stroke="#bcbcbc" stroke-width="1.0" stroke-linecap="butt" d="M248.0 204.0L331.0 121.0" fill-rule="nonzero"/><path fill="#000000" d="M344.78125 105.703125L345.59375 105.703125Q346.375 105.6875 346.8125 105.296875Q347.25 104.90625 347.25 104.234375Q347.25 102.734375 345.75 102.734375Q345.04688 102.734375 344.625 103.140625Q344.21875 103.546875 344.21875 104.203125L343.125 104.203125Q343.125 103.1875 343.85938 102.515625Q344.60938 101.84375 345.75 101.84375Q346.95312 101.84375 347.64062 102.484375Q348.32812 103.125 348.32812 104.265625Q348.32812 104.828125 347.96875 105.34375Q347.60938 105.859375 346.98438 106.125Q347.6875 106.34375 348.0625 106.859375Q348.45312 107.375 348.45312 108.125Q348.45312 109.265625 347.70312 109.953125Q346.95312 110.625 345.75 110.625Q344.5625 110.625 343.79688 109.96875Q343.04688 109.3125 343.04688 108.25L344.14062 108.25Q344.14062 108.921875 344.57812 109.328125Q345.01562 109.734375 345.76562 109.734375Q346.54688 109.734375 346.95312 109.328125Q347.375 108.90625 347.375 108.140625Q347.375 107.40625 346.92188 107.015625Q346.46875 106.609375 345.59375 106.59375L344.78125 106.59375L344.78125 105.703125Z" fill-rule="nonzero"/><path stroke="#bcbcbc" stroke-width="1.0" stroke-linecap="butt" d="M248.0 204.0L349.0 146.0" fill-rule="nonzero"/><path fill="#000000" d="M370.78125 135.64062L371.96875 135.64062L371.96875 136.51562L370.78125 136.51562L370.78125 138.5L369.70312 138.5L369.70312 136.51562L365.8125 136.51562L365.8125 135.875L369.625 129.96875L370.78125 129.96875L370.78125 135.64062ZM367.04688 135.64062L369.70312 135.64062L369.70312 131.45312L369.5625 131.6875L367.04688 135.64062Z" fill-rule="nonzero"/><path stroke="#bcbcbc" stroke-width="1.0" stroke-linecap="butt" d="M248.0 204.0L361.0 174.0" fill-rule="nonzero"/><path fill="#000000" d="M380.70312 168.21875L381.14062 163.96875L385.51562 163.96875L385.51562 164.96875L382.0625 164.96875L381.79688 167.29688Q382.4375 166.92188 383.23438 166.92188Q384.39062 166.92188 385.07812 167.70312Q385.76562 168.46875 385.76562 169.78125Q385.76562 171.09375 385.04688 171.85938Q384.34375 172.625 383.0625 172.625Q381.9375 172.625 381.21875 172.0Q380.5 171.35938 380.40625 170.25L381.42188 170.25Q381.53125 170.98438 381.95312 171.35938Q382.375 171.73438 383.0625 171.73438Q383.8125 171.73438 384.25 171.21875Q384.6875 170.70312 384.6875 169.79688Q384.6875 168.9375 384.21875 168.42188Q383.75 167.90625 382.96875 167.90625Q382.26562 167.90625 381.85938 168.20312L381.57812 168.4375L380.70312 168.21875Z" fill-rule="nonzero"/><path stroke="#bcbcbc" stroke-width="1.0" stroke-linecap="butt" d="M248.0 204.0L365.0 204.0" fill-rule="nonzero"/><path fill="#000000" d="M388.46875 199.96875L388.46875 200.875L388.26562 200.875Q387.0 200.90625 386.25 201.64062Q385.5 202.35938 385.375 203.67188Q386.0625 202.90625 387.21875 202.90625Q388.32812 202.90625 389.0 203.6875Q389.67188 204.46875 389.67188 205.71875Q389.67188 207.03125 388.95312 207.82812Q388.23438 208.625 387.01562 208.625Q385.79688 208.625 385.03125 207.6875Q384.28125 206.73438 384.28125 205.25L384.28125 204.84375Q384.28125 202.48438 385.28125 201.23438Q386.28125 199.98438 388.26562 199.96875L388.46875 199.96875ZM387.04688 203.8125Q386.48438 203.8125 386.01562 204.14062Q385.54688 204.46875 385.35938 204.98438L385.35938 205.375Q385.35938 206.4375 385.82812 207.07812Q386.3125 207.71875 387.01562 207.71875Q387.75 207.71875 388.17188 207.1875Q388.59375 206.64062 388.59375 205.76562Q388.59375 204.89062 388.17188 204.35938Q387.75 203.8125 387.04688 203.8125Z" fill-rule="nonzero"/><path stroke="#bcbcbc" stroke-width="1.0" stroke-linecap="butt" d="M248.0 204.0L361.0 234.0" fill-rule="nonzero"/><path fill="#000000" d="M385.71875 236.57812L382.1875 244.5L381.04688 244.5L384.5625 236.85938L379.95312 236.85938L379.95312 235.96875L385.71875 235.96875L385.71875 236.57812Z" fill-rule="nonzero"/><path stroke="#bcbcbc" stroke-width="1.0" stroke-linecap="butt" d="M248.0 204.0L349.0 262.0" fill-rule="nonzero"/><path fill="#000000" d="M371.39062 272.1875Q371.39062 272.82812 371.04688 273.32812Q370.70312 273.82812 370.14062 274.10938Q370.79688 274.39062 371.1875 274.95312Q371.57812 275.5 371.57812 276.20312Q371.57812 277.29688 370.82812 277.96875Q370.09375 278.625 368.875 278.625Q367.64062 278.625 366.89062 277.96875Q366.15625 277.29688 366.15625 276.20312Q366.15625 275.5 366.53125 274.95312Q366.90625 274.39062 367.57812 274.10938Q367.01562 273.82812 366.6875 273.32812Q366.35938 272.82812 366.35938 272.1875Q366.35938 271.10938 367.04688 270.48438Q367.73438 269.84375 368.875 269.84375Q370.0 269.84375 370.6875 270.48438Q371.39062 271.10938 371.39062 272.1875ZM370.5 276.17188Q370.5 275.45312 370.04688 275.01562Q369.59375 274.5625 368.85938 274.5625Q368.125 274.5625 367.67188 275.01562Q367.23438 275.45312 367.23438 276.1875Q367.23438 276.90625 367.67188 277.32812Q368.10938 277.73438 368.875 277.73438Q369.625 277.73438 370.0625 277.3125Q370.5 276.89062 370.5 276.17188ZM368.875 270.73438Q368.23438 270.73438 367.82812 271.14062Q367.4375 271.53125 367.4375 272.21875Q367.4375 272.85938 367.82812 273.26562Q368.21875 273.67188 368.85938 273.67188Q369.51562 273.67188 369.90625 273.26562Q370.29688 272.85938 370.29688 272.21875Q370.29688 271.5625 369.89062 271.15625Q369.48438 270.73438 368.875 270.73438Z" fill-rule="nonzero"/><path stroke="#bcbcbc" stroke-width="1.0" stroke-linecap="butt" d="M248.0 204.0L331.0 287.0" fill-rule="nonzero"/><path fill="#000000" d="M347.35938 302.75Q347.03125 303.15625 346.54688 303.40625Q346.07812 303.64062 345.51562 303.64062Q344.78125 303.64062 344.23438 303.28125Q343.6875 302.92188 343.39062 302.26562Q343.09375 301.59375 343.09375 300.79688Q343.09375 299.95312 343.40625 299.26562Q343.73438 298.57812 344.32812 298.21875Q344.9375 297.84375 345.73438 297.84375Q347.0 297.84375 347.71875 298.79688Q348.45312 299.75 348.45312 301.375L348.45312 301.6875Q348.45312 304.1875 347.46875 305.32812Q346.48438 306.46875 344.5 306.5L344.28125 306.5L344.28125 305.59375L344.51562 305.59375Q345.85938 305.5625 346.57812 304.89062Q347.29688 304.21875 347.35938 302.75ZM345.6875 302.75Q346.23438 302.75 346.6875 302.42188Q347.15625 302.07812 347.375 301.59375L347.375 301.15625Q347.375 300.09375 346.90625 299.42188Q346.4375 298.75 345.73438 298.75Q345.01562 298.75 344.57812 299.29688Q344.15625 299.84375 344.15625 300.75Q344.15625 301.625 344.5625 302.1875Q344.98438 302.75 345.6875 302.75Z" fill-rule="nonzero"/><path stroke="#bcbcbc" stroke-width="1.0" stroke-linecap="butt" d="M248.0 204.0L306.0 305.0" fill-rule="nonzero"/><path fill="#000000" d="M315.26562 329.5L314.1875 329.5L314.1875 322.28125L312.0 323.07812L312.0 322.09375L315.10938 320.92188L315.26562 320.92188L315.26562 329.5ZM324.0625 325.85938Q324.0625 327.76562 323.40625 328.70312Q322.76562 329.625 321.375 329.625Q320.01562 329.625 319.35938 328.71875Q318.70312 327.8125 318.67188 326.0L318.67188 324.5625Q318.67188 322.67188 319.3125 321.76562Q319.96875 320.84375 321.35938 320.84375Q322.73438 320.84375 323.39062 321.73438Q324.04688 322.60938 324.0625 324.45312L324.0625 325.85938ZM322.96875 324.375Q322.96875 323.0 322.57812 322.375Q322.20312 321.73438 321.35938 321.73438Q320.53125 321.73438 320.14062 322.375Q319.76562 323.0 319.76562 324.29688L319.76562 326.03125Q319.76562 327.40625 320.15625 328.07812Q320.5625 328.73438 321.375 328.73438Q322.17188 328.73438 322.5625 328.10938Q322.95312 327.48438 322.96875 326.15625L322.96875 324.375Z" fill-rule="nonzero"/><path stroke="#bcbcbc" stroke-width="1.0" stroke-linecap="butt" d="M248.0 204.0L278.0 317.0" fill-rule="nonzero"/><path fill="#000000" d="M281.26562 343.5L280.1875 343.5L280.1875 336.28125L278.0 337.07812L278.0 336.09375L281.10938 334.92188L281.26562 334.92188L281.26562 343.5ZM288.26562 343.5L287.1875 343.5L287.1875 336.28125L285.0 337.07812L285.0 336.09375L288.10938 334.92188L288.26562 334.92188L288.26562 343.5Z" fill-rule="nonzero"/><path stroke="#bcbcbc" stroke-width="1.0" stroke-linecap="butt" d="M248.0 204.0L248.0 321.0" fill-rule="nonzero"/><path fill="#000000" d="M245.26562 347.5L244.1875 347.5L244.1875 340.28125L242.0 341.07812L242.0 340.09375L245.10938 338.92188L245.26562 338.92188L245.26562 347.5ZM254.29688 347.5L248.70312 347.5L248.70312 346.71875L251.65625 343.4375Q252.3125 342.6875 252.5625 342.23438Q252.8125 341.76562 252.8125 341.26562Q252.8125 340.59375 252.40625 340.17188Q252.01562 339.73438 251.32812 339.73438Q250.53125 339.73438 250.07812 340.20312Q249.625 340.65625 249.625 341.48438L248.54688 341.48438Q248.54688 340.29688 249.29688 339.57812Q250.0625 338.84375 251.32812 338.84375Q252.53125 338.84375 253.21875 339.46875Q253.90625 340.09375 253.90625 341.14062Q253.90625 342.39062 252.29688 344.14062L250.01562 346.60938L254.29688 346.60938L254.29688 347.5Z" fill-rule="nonzero"/><path stroke="#bcbcbc" stroke-width="1.0" stroke-linecap="butt" d="M248.0 204.0L218.0 317.0" fill-rule="nonzero"/><path fill="#000000" d="M209.26562 343.5L208.1875 343.5L208.1875 336.28125L206.0 337.07812L206.0 336.09375L209.10938 334.92188L209.26562 334.92188L209.26562 343.5ZM214.28125 338.70312L215.09375 338.70312Q215.875 338.6875 216.3125 338.29688Q216.75 337.90625 216.75 337.23438Q216.75 335.73438 215.25 335.73438Q214.54688 335.73438 214.125 336.14062Q213.71875 336.54688 213.71875 337.20312L212.625 337.20312Q212.625 336.1875 213.35938 335.51562Q214.10938 334.84375 215.25 334.84375Q216.45312 334.84375 217.14062 335.48438Q217.82812 336.125 217.82812 337.26562Q217.82812 337.82812 217.46875 338.34375Q217.10938 338.85938 216.48438 339.125Q217.1875 339.34375 217.5625 339.85938Q217.95312 340.375 217.95312 341.125Q217.95312 342.26562 217.20312 342.95312Q216.45312 343.625 215.25 343.625Q214.0625 343.625 213.29688 342.96875Q212.54688 342.3125 212.54688 341.25L213.64062 341.25Q213.64062 341.92188 214.07812 342.32812Q214.51562 342.73438 215.26562 342.73438Q216.04688 342.73438 216.45312 342.32812Q216.875 341.90625 216.875 341.14062Q216.875 340.40625 216.42188 340.01562Q215.96875 339.60938 215.09375 339.59375L214.28125 339.59375L214.28125 338.70312Z" fill-rule="nonzero"/><path stroke="#bcbcbc" stroke-width="1.0" stroke-linecap="butt" d="M248.0 204.0L190.0 305.0" fill-rule="nonzero"/><path fill="#000000" d="M175.26562 329.5L174.1875 329.5L174.1875 322.28125L172.0 323.07812L172.0 322.09375L175.10938 320.92188L175.26562 320.92188L175.26562 329.5ZM183.28125 326.64062L184.46875 326.64062L184.46875 327.51562L183.28125 327.51562L183.28125 329.5L182.20312 329.5L182.20312 327.51562L178.3125 327.51562L178.3125 326.875L182.125 320.96875L183.28125 320.96875L183.28125 326.64062ZM179.54688 326.64062L182.20312 326.64062L182.20312 322.45312L182.0625 322.6875L179.54688 326.64062Z" fill-rule="nonzero"/><path stroke="#bcbcbc" stroke-width="1.0" stroke-linecap="butt" d="M248.0 204.0L165.0 287.0" fill-rule="nonzero"/><path fill="#000000" d="M147.26562 306.5L146.1875 306.5L146.1875 299.28125L144.0 300.07812L144.0 299.09375L147.10938 297.92188L147.26562 297.92188L147.26562 306.5ZM151.20312 302.21875L151.64062 297.96875L156.01562 297.96875L156.01562 298.96875L152.5625 298.96875L152.29688 301.29688Q152.9375 300.92188 153.73438 300.92188Q154.89062 300.92188 155.57812 301.70312Q156.26562 302.46875 156.26562 303.78125Q156.26562 305.09375 155.54688 305.85938Q154.84375 306.625 153.5625 306.625Q152.4375 306.625 151.71875 306.0Q151.0 305.35938 150.90625 304.25L151.92188 304.25Q152.03125 304.98438 152.45312 305.35938Q152.875 305.73438 153.5625 305.73438Q154.3125 305.73438 154.75 305.21875Q155.1875 304.70312 155.1875 303.79688Q155.1875 302.9375 154.71875 302.42188Q154.25 301.90625 153.46875 301.90625Q152.76562 301.90625 152.35938 302.20312L152.07812 302.4375L151.20312 302.21875Z" fill-rule="nonzero"/><path stroke="#bcbcbc" stroke-width="1.0" stroke-linecap="butt" d="M248.0 204.0L147.0 262.0" fill-rule="nonzero"/><path fill="#000000" d="M124.265625 278.5L123.1875 278.5L123.1875 271.28125L121.0 272.07812L121.0 271.09375L124.109375 269.92188L124.265625 269.92188L124.265625 278.5ZM131.96875 269.96875L131.96875 270.875L131.76562 270.875Q130.5 270.90625 129.75 271.64062Q129.0 272.35938 128.875 273.67188Q129.5625 272.90625 130.71875 272.90625Q131.82812 272.90625 132.5 273.6875Q133.17188 274.46875 133.17188 275.71875Q133.17188 277.03125 132.45312 277.82812Q131.73438 278.625 130.51562 278.625Q129.29688 278.625 128.53125 277.6875Q127.78125 276.73438 127.78125 275.25L127.78125 274.84375Q127.78125 272.48438 128.78125 271.23438Q129.78125 269.98438 131.76562 269.96875L131.96875 269.96875ZM130.54688 273.8125Q129.98438 273.8125 129.51562 274.14062Q129.04688 274.46875 128.85938 274.98438L128.85938 275.375Q128.85938 276.4375 129.32812 277.07812Q129.8125 277.71875 130.51562 277.71875Q131.25 277.71875 131.67188 277.1875Q132.09375 276.64062 132.09375 275.76562Q132.09375 274.89062 131.67188 274.35938Q131.25 273.8125 130.54688 273.8125Z" fill-rule="nonzero"/><path stroke="#bcbcbc" stroke-width="1.0" stroke-linecap="butt" d="M248.0 204.0L135.0 234.0" fill-rule="nonzero"/><path fill="#000000" d="M110.265625 244.5L109.1875 244.5L109.1875 237.28125L107.0 238.07812L107.0 237.09375L110.109375 235.92188L110.265625 235.92188L110.265625 244.5ZM119.21875 236.57812L115.6875 244.5L114.546875 244.5L118.0625 236.85938L113.453125 236.85938L113.453125 235.96875L119.21875 235.96875L119.21875 236.57812Z" fill-rule="nonzero"/><path stroke="#bcbcbc" stroke-width="1.0" stroke-linecap="butt" d="M248.0 204.0L131.0 204.0" fill-rule="nonzero"/><path fill="#000000" d="M106.265625 208.5L105.1875 208.5L105.1875 201.28125L103.0 202.07812L103.0 201.09375L106.109375 199.92188L106.265625 199.92188L106.265625 208.5ZM114.890625 202.1875Q114.890625 202.82812 114.546875 203.32812Q114.203125 203.82812 113.640625 204.10938Q114.296875 204.39062 114.6875 204.95312Q115.078125 205.5 115.078125 206.20312Q115.078125 207.29688 114.328125 207.96875Q113.59375 208.625 112.375 208.625Q111.140625 208.625 110.390625 207.96875Q109.65625 207.29688 109.65625 206.20312Q109.65625 205.5 110.03125 204.95312Q110.40625 204.39062 111.078125 204.10938Q110.515625 203.82812 110.1875 203.32812Q109.859375 202.82812 109.859375 202.1875Q109.859375 201.10938 110.546875 200.48438Q111.234375 199.84375 112.375 199.84375Q113.5 199.84375 114.1875 200.48438Q114.890625 201.10938 114.890625 202.1875ZM114.0 206.17188Q114.0 205.45312 113.546875 205.01562Q113.09375 204.5625 112.359375 204.5625Q111.625 204.5625 111.171875 205.01562Q110.734375 205.45312 110.734375 206.1875Q110.734375 206.90625 111.171875 207.32812Q111.609375 207.73438 112.375 207.73438Q113.125 207.73438 113.5625 207.3125Q114.0 206.89062 114.0 206.17188ZM112.375 200.73438Q111.734375 200.73438 111.328125 201.14062Q110.9375 201.53125 110.9375 202.21875Q110.9375 202.85938 111.328125 203.26562Q111.71875 203.67188 112.359375 203.67188Q113.015625 203.67188 113.40625 203.26562Q113.796875 202.85938 113.796875 202.21875Q113.796875 201.5625 113.390625 201.15625Q112.984375 200.73438 112.375 200.73438Z" fill-rule="nonzero"/><path stroke="#bcbcbc" stroke-width="1.0" stroke-linecap="butt" d="M248.0 204.0L135.0 174.0" fill-rule="nonzero"/><path fill="#000000" d="M110.265625 172.5L109.1875 172.5L109.1875 165.28125L107.0 166.07812L107.0 165.09375L110.109375 163.92188L110.265625 163.92188L110.265625 172.5ZM117.859375 168.75Q117.53125 169.15625 117.046875 169.40625Q116.578125 169.64062 116.015625 169.64062Q115.28125 169.64062 114.734375 169.28125Q114.1875 168.92188 113.890625 168.26562Q113.59375 167.59375 113.59375 166.79688Q113.59375 165.95312 113.90625 165.26562Q114.234375 164.57812 114.828125 164.21875Q115.4375 163.84375 116.234375 163.84375Q117.5 163.84375 118.21875 164.79688Q118.953125 165.75 118.953125 167.375L118.953125 167.6875Q118.953125 170.1875 117.96875 171.32812Q116.984375 172.46875 115.0 172.5L114.78125 172.5L114.78125 171.59375L115.015625 171.59375Q116.359375 171.5625 117.078125 170.89062Q117.796875 170.21875 117.859375 168.75ZM116.1875 168.75Q116.734375 168.75 117.1875 168.42188Q117.65625 168.07812 117.875 167.59375L117.875 167.15625Q117.875 166.09375 117.40625 165.42188Q116.9375 164.75 116.234375 164.75Q115.515625 164.75 115.078125 165.29688Q114.65625 165.84375 114.65625 166.75Q114.65625 167.625 115.0625 168.1875Q115.484375 168.75 116.1875 168.75Z" fill-rule="nonzero"/><path stroke="#bcbcbc" stroke-width="1.0" stroke-linecap="butt" d="M248.0 204.0L147.0 146.0" fill-rule="nonzero"/><path fill="#000000" d="M126.296875 138.5L120.703125 138.5L120.703125 137.71875L123.65625 134.4375Q124.3125 133.6875 124.5625 133.23438Q124.8125 132.76562 124.8125 132.26562Q124.8125 131.59375 124.40625 131.17188Q124.015625 130.73438 123.328125 130.73438Q122.53125 130.73438 122.078125 131.20312Q121.625 131.65625 121.625 132.48438L120.546875 132.48438Q120.546875 131.29688 121.296875 130.57812Q122.0625 129.84375 123.328125 129.84375Q124.53125 129.84375 125.21875 130.46875Q125.90625 131.09375 125.90625 132.14062Q125.90625 133.39062 124.296875 135.14062L122.015625 137.60938L126.296875 137.60938L126.296875 138.5ZM133.0625 134.85938Q133.0625 136.76562 132.40625 137.70312Q131.76562 138.625 130.375 138.625Q129.01562 138.625 128.35938 137.71875Q127.703125 136.8125 127.671875 135.0L127.671875 133.5625Q127.671875 131.67188 128.3125 130.76562Q128.96875 129.84375 130.35938 129.84375Q131.73438 129.84375 132.39062 130.73438Q133.04688 131.60938 133.0625 133.45312L133.0625 134.85938ZM131.96875 133.375Q131.96875 132.0 131.57812 131.375Q131.20312 130.73438 130.35938 130.73438Q129.53125 130.73438 129.14062 131.375Q128.76562 132.0 128.76562 133.29688L128.76562 135.03125Q128.76562 136.40625 129.15625 137.07812Q129.5625 137.73438 130.375 137.73438Q131.17188 137.73438 131.5625 137.10938Q131.95312 136.48438 131.96875 135.15625L131.96875 133.375Z" fill-rule="nonzero"/><path stroke="#bcbcbc" stroke-width="1.0" stroke-linecap="butt" d="M248.0 204.0L165.0 121.0" fill-rule="nonzero"/><path fill="#000000" d="M149.29688 110.5L143.70312 110.5L143.70312 109.71875L146.65625 106.4375Q147.3125 105.6875 147.5625 105.234375Q147.8125 104.765625 147.8125 104.265625Q147.8125 103.59375 147.40625 103.171875Q147.01562 102.734375 146.32812 102.734375Q145.53125 102.734375 145.07812 103.203125Q144.625 103.65625 144.625 104.484375L143.54688 104.484375Q143.54688 103.296875 144.29688 102.578125Q145.0625 101.84375 146.32812 101.84375Q147.53125 101.84375 148.21875 102.46875Q148.90625 103.09375 148.90625 104.140625Q148.90625 105.390625 147.29688 107.140625L145.01562 109.609375L149.29688 109.609375L149.29688 110.5ZM154.26562 110.5L153.1875 110.5L153.1875 103.28125L151.0 104.078125L151.0 103.09375L154.10938 101.921875L154.26562 101.921875L154.26562 110.5Z" fill-rule="nonzero"/><path stroke="#bcbcbc" stroke-width="1.0" stroke-linecap="butt" d="M248.0 204.0L190.0 103.0" fill-rule="nonzero"/><path fill="#000000" d="M177.29688 87.5L171.70312 87.5L171.70312 86.71875L174.65625 83.4375Q175.3125 82.6875 175.5625 82.234375Q175.8125 81.765625 175.8125 81.265625Q175.8125 80.59375 175.40625 80.171875Q175.01562 79.734375 174.32812 79.734375Q173.53125 79.734375 173.07812 80.203125Q172.625 80.65625 172.625 81.484375L171.54688 81.484375Q171.54688 80.296875 172.29688 79.578125Q173.0625 78.84375 174.32812 78.84375Q175.53125 78.84375 176.21875 79.46875Q176.90625 80.09375 176.90625 81.140625Q176.90625 82.390625 175.29688 84.140625L173.01562 86.609375L177.29688 86.609375L177.29688 87.5ZM184.29688 87.5L178.70312 87.5L178.70312 86.71875L181.65625 83.4375Q182.3125 82.6875 182.5625 82.234375Q182.8125 81.765625 182.8125 81.265625Q182.8125 80.59375 182.40625 80.171875Q182.01562 79.734375 181.32812 79.734375Q180.53125 79.734375 180.07812 80.203125Q179.625 80.65625 179.625 81.484375L178.54688 81.484375Q178.54688 80.296875 179.29688 79.578125Q180.0625 78.84375 181.32812 78.84375Q182.53125 78.84375 183.21875 79.46875Q183.90625 80.09375 183.90625 81.140625Q183.90625 82.390625 182.29688 84.140625L180.01562 86.609375L184.29688 86.609375L184.29688 87.5Z" fill-rule="nonzero"/><path stroke="#bcbcbc" stroke-width="1.0" stroke-linecap="butt" d="M248.0 204.0L218.0 91.0" fill-rule="nonzero"/><path fill="#000000" d="M211.29688 73.5L205.70312 73.5L205.70312 72.71875L208.65625 69.4375Q209.3125 68.6875 209.5625 68.234375Q209.8125 67.765625 209.8125 67.265625Q209.8125 66.59375 209.40625 66.171875Q209.01562 65.734375 208.32812 65.734375Q207.53125 65.734375 207.07812 66.203125Q206.625 66.65625 206.625 67.484375L205.54688 67.484375Q205.54688 66.296875 206.29688 65.578125Q207.0625 64.84375 208.32812 64.84375Q209.53125 64.84375 210.21875 65.46875Q210.90625 66.09375 210.90625 67.140625Q210.90625 68.390625 209.29688 70.140625L207.01562 72.609375L211.29688 72.609375L211.29688 73.5ZM214.28125 68.703125L215.09375 68.703125Q215.875 68.6875 216.3125 68.296875Q216.75 67.90625 216.75 67.234375Q216.75 65.734375 215.25 65.734375Q214.54688 65.734375 214.125 66.140625Q213.71875 66.546875 213.71875 67.203125L212.625 67.203125Q212.625 66.1875 213.35938 65.515625Q214.10938 64.84375 215.25 64.84375Q216.45312 64.84375 217.14062 65.484375Q217.82812 66.125 217.82812 67.265625Q217.82812 67.828125 217.46875 68.34375Q217.10938 68.859375 216.48438 69.125Q217.1875 69.34375 217.5625 69.859375Q217.95312 70.375 217.95312 71.125Q217.95312 72.265625 217.20312 72.953125Q216.45312 73.625 215.25 73.625Q214.0625 73.625 213.29688 72.96875Q212.54688 72.3125 212.54688 71.25L213.64062 71.25Q213.64062 71.921875 214.07812 72.328125Q214.51562 72.734375 215.26562 72.734375Q216.04688 72.734375 216.45312 72.328125Q216.875 71.90625 216.875 71.140625Q216.875 70.40625 216.42188 70.015625Q215.96875 69.609375 215.09375 69.59375L214.28125 69.59375L214.28125 68.703125Z" fill-rule="nonzero"/><path stroke="#bcbcbc" stroke-width="1.0" stroke-linecap="butt" d="M248.0 204.0L248.0 87.0" fill-rule="nonzero"/><path stroke="#4c1130" stroke-width="1.0" stroke-linecap="butt" d="M248.0 83.0C259.0 83.0 269.0 84.0 280.0 86.0C287.0 97.0 292.0 109.0 296.0 120.0C305.0 123.0 313.0 127.0 321.0 131.0C331.0 135.0 340.0 140.0 349.0 146.0C351.0 156.0 351.0 166.0 351.0 176.0C356.0 185.0 361.0 194.0 366.0 204.0C360.0 214.0 354.0 223.0 348.0 231.0C345.0 239.0 342.0 248.0 337.0 256.0C338.0 267.0 336.0 278.0 334.0 290.0C325.0 295.0 315.0 300.0 306.0 304.0C297.0 308.0 287.0 312.0 278.0 315.0C267.0 310.0 257.0 304.0 248.0 298.0C240.0 300.0 231.0 303.0 221.0 304.0C212.0 302.0 204.0 299.0 195.0 296.0C186.0 293.0 176.0 289.0 168.0 284.0C159.0 278.0 152.0 272.0 144.0 264.0C141.0 254.0 139.0 244.0 137.0 234.0C144.0 222.0 152.0 212.0 160.0 204.0C154.0 196.0 149.0 187.0 145.0 176.0C147.0 167.0 151.0 159.0 155.0 150.0C154.0 138.0 155.0 126.0 157.0 113.0C170.0 111.0 182.0 110.0 194.0 110.0C202.0 105.0 210.0 101.0 219.0 97.0C228.0 92.0 238.0 87.0 248.0 83.0Z" fill-rule="nonzero"/><path stroke="#a64d79" stroke-width="1.0" stroke-linecap="butt" d="M248.0 104.0C257.0 98.0 267.0 94.0 278.0 90.0C287.0 96.0 296.0 102.0 303.0 108.0C311.0 113.0 319.0 120.0 326.0 126.0C334.0 132.0 341.0 139.0 348.0 146.0C352.0 155.0 356.0 165.0 358.0 175.0C365.0 183.0 372.0 193.0 377.0 204.0C369.0 215.0 360.0 224.0 350.0 231.0C350.0 241.0 350.0 252.0 348.0 262.0C339.0 268.0 329.0 272.0 319.0 275.0C315.0 284.0 309.0 292.0 303.0 299.0C296.0 307.0 288.0 314.0 279.0 321.0C268.0 318.0 258.0 314.0 248.0 309.0C238.0 314.0 228.0 318.0 217.0 321.0C207.0 316.0 198.0 311.0 190.0 304.0C184.0 295.0 179.0 286.0 175.0 277.0C171.0 269.0 167.0 261.0 164.0 252.0C153.0 248.0 141.0 243.0 129.0 236.0C135.0 224.0 142.0 213.0 149.0 204.0C143.0 195.0 138.0 185.0 134.0 173.0C142.0 165.0 150.0 158.0 159.0 152.0C163.0 145.0 168.0 137.0 174.0 130.0C179.0 122.0 184.0 113.0 191.0 105.0C198.0 97.0 206.0 89.0 215.0 83.0C228.0 89.0 239.0 96.0 248.0 104.0Z" fill-rule="nonzero"/><path stroke="#c27ba0" stroke-width="1.0" stroke-linecap="butt" d="M248.0 99.0C257.0 100.0 266.0 101.0 275.0 104.0C284.0 105.0 293.0 107.0 303.0 109.0C313.0 112.0 323.0 115.0 333.0 119.0C336.0 131.0 337.0 142.0 337.0 152.0C346.0 158.0 354.0 166.0 361.0 174.0C363.0 184.0 364.0 194.0 364.0 204.0C363.0 214.0 360.0 224.0 357.0 233.0C353.0 242.0 349.0 251.0 343.0 259.0C340.0 268.0 336.0 278.0 331.0 287.0C323.0 294.0 316.0 300.0 307.0 306.0C297.0 309.0 287.0 311.0 277.0 312.0C267.0 312.0 257.0 310.0 248.0 307.0C239.0 312.0 228.0 315.0 218.0 318.0C208.0 313.0 200.0 308.0 191.0 302.0C185.0 294.0 180.0 285.0 175.0 277.0C168.0 271.0 162.0 264.0 156.0 257.0C154.0 248.0 153.0 239.0 153.0 230.0C146.0 222.0 140.0 213.0 135.0 204.0C138.0 194.0 142.0 185.0 147.0 177.0C147.0 167.0 149.0 158.0 151.0 148.0C156.0 139.0 161.0 131.0 168.0 124.0C179.0 121.0 190.0 121.0 200.0 121.0C204.0 110.0 210.0 99.0 217.0 88.0C228.0 91.0 238.0 95.0 248.0 99.0Z" fill-rule="nonzero"/><path stroke="#ead1dc" stroke-width="1.0" stroke-linecap="butt" d="M248.0 85.0C258.0 87.0 268.0 90.0 277.0 94.0C286.0 99.0 294.0 105.0 301.0 112.0C310.0 115.0 319.0 120.0 327.0 125.0C331.0 135.0 333.0 145.0 334.0 155.0C338.0 162.0 342.0 170.0 345.0 178.0C353.0 185.0 361.0 194.0 369.0 204.0C364.0 214.0 358.0 223.0 352.0 232.0C348.0 240.0 343.0 248.0 338.0 256.0C334.0 265.0 330.0 273.0 325.0 281.0C316.0 285.0 307.0 288.0 297.0 290.0C290.0 294.0 282.0 299.0 274.0 302.0C267.0 310.0 258.0 316.0 248.0 322.0C238.0 317.0 229.0 312.0 221.0 305.0C213.0 301.0 205.0 296.0 198.0 291.0C188.0 290.0 177.0 288.0 166.0 286.0C162.0 276.0 158.0 267.0 155.0 258.0C156.0 247.0 158.0 237.0 161.0 227.0C152.0 221.0 143.0 213.0 134.0 204.0C135.0 194.0 137.0 184.0 140.0 175.0C145.0 166.0 150.0 158.0 157.0 151.0C162.0 144.0 168.0 137.0 175.0 131.0C178.0 120.0 182.0 110.0 187.0 99.0C198.0 98.0 209.0 98.0 220.0 98.0C228.0 93.0 238.0 89.0 248.0 85.0Z" fill-rule="nonzero"/><path stroke="#0b5394" stroke-width="1.0" stroke-linecap="butt" d="M248.0 97.0C257.0 99.0 266.0 102.0 274.0 105.0C284.0 104.0 294.0 104.0 305.0 105.0C315.0 108.0 325.0 112.0 335.0 117.0C337.0 130.0 337.0 142.0 336.0 153.0C342.0 160.0 347.0 168.0 352.0 176.0C354.0 185.0 354.0 195.0 354.0 204.0C356.0 213.0 356.0 223.0 357.0 233.0C356.0 243.0 355.0 254.0 352.0 264.0C345.0 272.0 337.0 279.0 329.0 285.0C318.0 287.0 307.0 289.0 297.0 289.0C289.0 292.0 281.0 295.0 273.0 298.0C265.0 299.0 256.0 300.0 248.0 300.0C239.0 304.0 230.0 307.0 220.0 310.0C212.0 303.0 205.0 296.0 199.0 289.0C189.0 288.0 180.0 286.0 170.0 282.0C164.0 274.0 159.0 266.0 155.0 258.0C153.0 248.0 152.0 239.0 152.0 230.0C143.0 222.0 135.0 214.0 127.0 204.0C137.0 194.0 147.0 186.0 158.0 180.0C152.0 169.0 148.0 157.0 145.0 145.0C153.0 137.0 161.0 131.0 170.0 126.0C179.0 122.0 189.0 120.0 198.0 118.0C204.0 109.0 210.0 101.0 218.0 93.0C228.0 93.0 238.0 95.0 248.0 97.0Z" fill-rule="nonzero"/><path stroke="#6fa8dc" stroke-width="1.0" stroke-linecap="butt" d="M248.0 98.0C257.0 101.0 265.0 105.0 273.0 110.0C282.0 111.0 290.0 113.0 299.0 116.0C304.0 123.0 309.0 131.0 312.0 140.0C323.0 141.0 334.0 144.0 345.0 148.0C352.0 156.0 358.0 164.0 364.0 173.0C363.0 184.0 362.0 194.0 359.0 204.0C361.0 214.0 362.0 224.0 362.0 235.0C358.0 244.0 352.0 253.0 347.0 261.0C341.0 269.0 335.0 277.0 328.0 284.0C320.0 290.0 311.0 294.0 302.0 298.0C293.0 301.0 284.0 303.0 275.0 304.0C266.0 306.0 257.0 307.0 248.0 308.0C239.0 305.0 231.0 302.0 223.0 298.0C214.0 299.0 204.0 298.0 195.0 296.0C186.0 292.0 178.0 288.0 170.0 282.0C159.0 279.0 148.0 274.0 138.0 268.0C138.0 255.0 140.0 243.0 143.0 232.0C138.0 223.0 133.0 214.0 129.0 204.0C130.0 194.0 132.0 184.0 135.0 174.0C142.0 166.0 150.0 158.0 158.0 152.0C167.0 147.0 176.0 144.0 185.0 141.0C184.0 127.0 184.0 113.0 187.0 98.0C199.0 98.0 210.0 99.0 220.0 100.0C229.0 99.0 239.0 98.0 248.0 98.0Z" fill-rule="nonzero"/><path stroke="#b4a7d6" stroke-width="1.0" stroke-linecap="butt" d="M248.0 96.0C257.0 99.0 266.0 102.0 274.0 106.0C281.0 114.0 287.0 121.0 291.0 129.0C301.0 128.0 311.0 129.0 321.0 131.0C328.0 137.0 333.0 144.0 339.0 152.0C344.0 159.0 348.0 168.0 351.0 176.0C354.0 185.0 356.0 195.0 357.0 204.0C359.0 214.0 361.0 224.0 361.0 234.0C359.0 244.0 357.0 255.0 353.0 265.0C348.0 274.0 343.0 284.0 336.0 292.0C322.0 292.0 309.0 291.0 296.0 288.0C291.0 297.0 285.0 306.0 277.0 314.0C267.0 310.0 257.0 305.0 248.0 299.0C240.0 300.0 231.0 301.0 222.0 301.0C213.0 300.0 204.0 298.0 195.0 295.0C188.0 290.0 181.0 284.0 174.0 278.0C166.0 273.0 158.0 267.0 151.0 260.0C149.0 250.0 149.0 240.0 150.0 230.0C148.0 222.0 148.0 213.0 148.0 204.0C148.0 195.0 150.0 187.0 152.0 178.0C151.0 169.0 151.0 159.0 152.0 149.0C157.0 141.0 164.0 133.0 170.0 126.0C180.0 123.0 189.0 120.0 199.0 118.0C205.0 111.0 212.0 104.0 220.0 98.0C229.0 96.0 239.0 96.0 248.0 96.0Z" fill-rule="nonzero"/><path stroke="#4c1130" stroke-width="4.0" stroke-linecap="butt" d="M496.45 61.916668L508.45 61.916668" fill-rule="nonzero"/><path fill="#1a1a1a" d="M516.9969 63.15104L518.0594 63.05729Q518.1375 63.71354 518.41876 64.11979Q518.7 64.52604 519.27814 64.791664Q519.8719 65.041664 520.60626 65.041664Q521.2469 65.041664 521.7469 64.854164Q522.2469 64.65104 522.48126 64.322914Q522.73126 63.979164 522.73126 63.58854Q522.73126 63.18229 522.4969 62.885414Q522.2625 62.572914 521.73126 62.36979Q521.3719 62.229164 520.1844 61.947914Q519.0125 61.666664 518.54376 61.416664Q517.91876 61.08854 517.6219 60.61979Q517.325 60.135414 517.325 59.541664Q517.325 58.90104 517.6844 58.33854Q518.0594 57.760414 518.7625 57.479164Q519.48126 57.18229 520.34064 57.18229Q521.29376 57.18229 522.02814 57.49479Q522.7625 57.791664 523.15314 58.40104Q523.54376 58.99479 523.575 59.74479L522.48126 59.822914Q522.3875 59.010414 521.8719 58.604164Q521.3719 58.18229 520.3875 58.18229Q519.35626 58.18229 518.8875 58.55729Q518.41876 58.93229 518.41876 59.46354Q518.41876 59.93229 518.7469 60.229164Q519.075 60.52604 520.45 60.83854Q521.84064 61.15104 522.35626 61.385414Q523.10626 61.74479 523.46564 62.27604Q523.825 62.791664 523.825 63.49479Q523.825 64.18229 523.4344 64.791664Q523.04376 65.385414 522.3094 65.729164Q521.575 66.05729 520.65314 66.05729Q519.48126 66.05729 518.6844 65.729164Q517.90314 65.385414 517.45 64.697914Q517.0125 64.010414 516.9969 63.15104ZM529.325 65.916664L529.325 64.99479Q528.59064 66.05729 527.34064 66.05729Q526.79376 66.05729 526.3094 65.854164Q525.84064 65.635414 525.60626 65.322914Q525.3719 64.99479 525.27814 64.52604Q525.21564 64.229164 525.21564 63.541664L525.21564 59.697914L526.27814 59.697914L526.27814 63.15104Q526.27814 63.96354 526.34064 64.260414Q526.4344 64.666664 526.7469 64.916664Q527.075 65.15104 527.5594 65.15104Q528.02814 65.15104 528.4344 64.916664Q528.85626 64.666664 529.02814 64.24479Q529.21564 63.822914 529.21564 63.02604L529.21564 59.697914L530.2625 59.697914L530.2625 65.916664L529.325 65.916664ZM532.2469 65.916664L532.2469 59.697914L533.1844 59.697914L533.1844 60.572914Q533.8719 59.55729 535.16876 59.55729Q535.73126 59.55729 536.2 59.760414Q536.6844 59.96354 536.91876 60.291664Q537.15314 60.61979 537.2469 61.05729Q537.29376 61.354164 537.29376 62.08854L537.29376 65.916664L536.2469 65.916664L536.2469 62.135414Q536.2469 61.479164 536.1219 61.166664Q535.9969 60.854164 535.6844 60.666664Q535.3719 60.46354 534.95 60.46354Q534.27814 60.46354 533.77814 60.90104Q533.29376 61.322914 533.29376 62.510414L533.29376 65.916664L532.2469 65.916664ZM543.27814 65.916664L543.27814 65.135414Q542.6844 66.05729 541.54376 66.05729Q540.79376 66.05729 540.16876 65.65104Q539.54376 65.229164 539.2 64.49479Q538.85626 63.760414 538.85626 62.80729Q538.85626 61.885414 539.16876 61.11979Q539.48126 60.354164 540.10626 59.96354Q540.73126 59.55729 541.4969 59.55729Q542.0594 59.55729 542.4969 59.791664Q542.9344 60.02604 543.21564 60.40104L543.21564 57.322914L544.2625 57.322914L544.2625 65.916664L543.27814 65.916664ZM539.95 62.80729Q539.95 64.010414 540.45 64.604164Q540.95 65.18229 541.6375 65.18229Q542.325 65.18229 542.8094 64.61979Q543.29376 64.05729 543.29376 62.90104Q543.29376 61.61979 542.79376 61.02604Q542.3094 60.43229 541.59064 60.43229Q540.8875 60.43229 540.41876 61.010414Q539.95 61.572914 539.95 62.80729ZM550.3094 65.15104Q549.71564 65.65104 549.16876 65.854164Q548.6375 66.05729 548.0125 66.05729Q546.98126 66.05729 546.4344 65.55729Q545.8875 65.05729 545.8875 64.27604Q545.8875 63.822914 546.09064 63.447914Q546.29376 63.05729 546.6375 62.83854Q546.98126 62.604164 547.40314 62.49479Q547.7 62.40104 548.34064 62.322914Q549.60626 62.18229 550.21564 61.96354Q550.21564 61.74479 550.21564 61.697914Q550.21564 61.041664 549.91876 60.77604Q549.5125 60.43229 548.71564 60.43229Q547.98126 60.43229 547.6219 60.697914Q547.2625 60.947914 547.09064 61.604164L546.0594 61.46354Q546.2 60.80729 546.52814 60.40104Q546.85626 59.99479 547.46564 59.77604Q548.075 59.55729 548.8719 59.55729Q549.66876 59.55729 550.16876 59.74479Q550.66876 59.93229 550.90314 60.21354Q551.1375 60.49479 551.23126 60.93229Q551.27814 61.197914 551.27814 61.90104L551.27814 63.30729Q551.27814 64.77604 551.34064 65.166664Q551.41876 65.55729 551.6219 65.916664L550.5125 65.916664Q550.35626 65.58854 550.3094 65.15104ZM550.21564 62.791664Q549.6375 63.02604 548.4969 63.197914Q547.84064 63.291664 547.575 63.416664Q547.3094 63.52604 547.15314 63.74479Q547.0125 63.96354 547.0125 64.24479Q547.0125 64.666664 547.325 64.947914Q547.65314 65.229164 548.2625 65.229164Q548.8719 65.229164 549.34064 64.96354Q549.825 64.697914 550.04376 64.229164Q550.21564 63.86979 550.21564 63.18229L550.21564 62.791664ZM553.2 68.30729L553.075 67.322914Q553.41876 67.416664 553.6844 67.416664Q554.02814 67.416664 554.23126 67.291664Q554.45 67.18229 554.59064 66.979164Q554.6844 66.80729 554.91876 66.18229Q554.9344 66.104164 555.0125 65.93229L552.6375 59.697914L553.77814 59.697914L555.075 63.291664Q555.325 63.979164 555.52814 64.74479Q555.71564 64.010414 555.96564 63.322914L557.29376 59.697914L558.34064 59.697914L555.98126 66.02604Q555.59064 67.041664 555.3875 67.43229Q555.10626 67.96354 554.73126 68.197914Q554.3719 68.447914 553.8719 68.447914Q553.575 68.447914 553.2 68.30729Z" fill-rule="nonzero"/><path stroke="#a64d79" stroke-width="4.0" stroke-linecap="butt" d="M496.45 85.916664L508.45 85.916664" fill-rule="nonzero"/><path fill="#1a1a1a" d="M517.34064 89.916664L517.34064 81.322914L519.0594 81.322914L521.09064 87.40104Q521.3719 88.260414 521.4969 88.68229Q521.6375 88.21354 521.95 87.30729L524.0125 81.322914L525.54376 81.322914L525.54376 89.916664L524.45 89.916664L524.45 82.729164L521.95 89.916664L520.91876 89.916664L518.4344 82.604164L518.4344 89.916664L517.34064 89.916664ZM525.85626 86.80729Q525.85626 85.072914 526.8094 84.24479Q527.60626 83.55729 528.7625 83.55729Q530.04376 83.55729 530.85626 84.40104Q531.6844 85.229164 531.6844 86.71354Q531.6844 87.916664 531.325 88.604164Q530.96564 89.291664 530.2625 89.68229Q529.575 90.05729 528.7625 90.05729Q527.46564 90.05729 526.65314 89.229164Q525.85626 88.385414 525.85626 86.80729ZM526.9344 86.80729Q526.9344 87.99479 527.45 88.58854Q527.98126 89.18229 528.7625 89.18229Q529.5594 89.18229 530.075 88.58854Q530.59064 87.99479 530.59064 86.77604Q530.59064 85.61979 530.0594 85.02604Q529.54376 84.43229 528.7625 84.43229Q527.98126 84.43229 527.45 85.02604Q526.9344 85.604164 526.9344 86.80729ZM533.2469 89.916664L533.2469 83.697914L534.1844 83.697914L534.1844 84.572914Q534.8719 83.55729 536.16876 83.55729Q536.73126 83.55729 537.2 83.760414Q537.6844 83.96354 537.91876 84.291664Q538.15314 84.61979 538.2469 85.05729Q538.29376 85.354164 538.29376 86.08854L538.29376 89.916664L537.2469 89.916664L537.2469 86.135414Q537.2469 85.479164 537.1219 85.166664Q536.9969 84.854164 536.6844 84.666664Q536.3719 84.46354 535.95 84.46354Q535.27814 84.46354 534.77814 84.90104Q534.29376 85.322914 534.29376 86.510414L534.29376 89.916664L533.2469 89.916664ZM544.27814 89.916664L544.27814 89.135414Q543.6844 90.05729 542.54376 90.05729Q541.79376 90.05729 541.16876 89.65104Q540.54376 89.229164 540.2 88.49479Q539.85626 87.760414 539.85626 86.80729Q539.85626 85.885414 540.16876 85.11979Q540.48126 84.354164 541.10626 83.96354Q541.73126 83.55729 542.4969 83.55729Q543.0594 83.55729 543.4969 83.791664Q543.9344 84.02604 544.21564 84.40104L544.21564 81.322914L545.2625 81.322914L545.2625 89.916664L544.27814 89.916664ZM540.95 86.80729Q540.95 88.010414 541.45 88.604164Q541.95 89.18229 542.6375 89.18229Q543.325 89.18229 543.8094 88.61979Q544.29376 88.05729 544.29376 86.90104Q544.29376 85.61979 543.79376 85.02604Q543.3094 84.43229 542.59064 84.43229Q541.8875 84.43229 541.41876 85.010414Q540.95 85.572914 540.95 86.80729ZM551.3094 89.15104Q550.71564 89.65104 550.16876 89.854164Q549.6375 90.05729 549.0125 90.05729Q547.98126 90.05729 547.4344 89.55729Q546.8875 89.05729 546.8875 88.27604Q546.8875 87.822914 547.09064 87.447914Q547.29376 87.05729 547.6375 86.83854Q547.98126 86.604164 548.40314 86.49479Q548.7 86.40104 549.34064 86.322914Q550.60626 86.18229 551.21564 85.96354Q551.21564 85.74479 551.21564 85.697914Q551.21564 85.041664 550.91876 84.77604Q550.5125 84.43229 549.71564 84.43229Q548.98126 84.43229 548.6219 84.697914Q548.2625 84.947914 548.09064 85.604164L547.0594 85.46354Q547.2 84.80729 547.52814 84.40104Q547.85626 83.99479 548.46564 83.77604Q549.075 83.55729 549.8719 83.55729Q550.66876 83.55729 551.16876 83.74479Q551.66876 83.93229 551.90314 84.21354Q552.1375 84.49479 552.23126 84.93229Q552.27814 85.197914 552.27814 85.90104L552.27814 87.30729Q552.27814 88.77604 552.34064 89.166664Q552.41876 89.55729 552.6219 89.916664L551.5125 89.916664Q551.35626 89.58854 551.3094 89.15104ZM551.21564 86.791664Q550.6375 87.02604 549.4969 87.197914Q548.84064 87.291664 548.575 87.416664Q548.3094 87.52604 548.15314 87.74479Q548.0125 87.96354 548.0125 88.24479Q548.0125 88.666664 548.325 88.947914Q548.65314 89.229164 549.2625 89.229164Q549.8719 89.229164 550.34064 88.96354Q550.825 88.697914 551.04376 88.229164Q551.21564 87.86979 551.21564 87.18229L551.21564 86.791664ZM554.2 92.30729L554.075 91.322914Q554.41876 91.416664 554.6844 91.416664Q555.02814 91.416664 555.23126 91.291664Q555.45 91.18229 555.59064 90.979164Q555.6844 90.80729 555.91876 90.18229Q555.9344 90.104164 556.0125 89.93229L553.6375 83.697914L554.77814 83.697914L556.075 87.291664Q556.325 87.979164 556.52814 88.74479Q556.71564 88.010414 556.96564 87.322914L558.29376 83.697914L559.34064 83.697914L556.98126 90.02604Q556.59064 91.041664 556.3875 91.43229Q556.10626 91.96354 555.73126 92.197914Q555.3719 92.447914 554.8719 92.447914Q554.575 92.447914 554.2 92.30729Z" fill-rule="nonzero"/><path stroke="#c27ba0" stroke-width="4.0" stroke-linecap="butt" d="M496.45 109.916664L508.45 109.916664" fill-rule="nonzero"/><path fill="#1a1a1a" d="M519.5594 113.916664L519.5594 106.33854L516.73126 106.33854L516.73126 105.322914L523.54376 105.322914L523.54376 106.33854L520.7 106.33854L520.7 113.916664L519.5594 113.916664ZM528.325 113.916664L528.325 112.99479Q527.59064 114.05729 526.34064 114.05729Q525.79376 114.05729 525.3094 113.854164Q524.84064 113.635414 524.60626 113.322914Q524.3719 112.99479 524.27814 112.52604Q524.21564 112.229164 524.21564 111.541664L524.21564 107.697914L525.27814 107.697914L525.27814 111.15104Q525.27814 111.96354 525.34064 112.260414Q525.4344 112.666664 525.7469 112.916664Q526.075 113.15104 526.5594 113.15104Q527.02814 113.15104 527.4344 112.916664Q527.85626 112.666664 528.02814 112.24479Q528.21564 111.822914 528.21564 111.02604L528.21564 107.697914L529.2625 107.697914L529.2625 113.916664L528.325 113.916664ZM535.4969 111.916664L536.59064 112.041664Q536.34064 112.99479 535.6375 113.52604Q534.9344 114.05729 533.85626 114.05729Q532.4969 114.05729 531.6844 113.21354Q530.8875 112.36979 530.8875 110.854164Q530.8875 109.291664 531.7 108.43229Q532.5125 107.55729 533.79376 107.55729Q535.04376 107.55729 535.825 108.40104Q536.6219 109.24479 536.6219 110.791664Q536.6219 110.885414 536.6219 111.072914L531.98126 111.072914Q532.04376 112.104164 532.5594 112.65104Q533.075 113.18229 533.85626 113.18229Q534.4344 113.18229 534.84064 112.885414Q535.2625 112.572914 535.4969 111.916664ZM532.04376 110.21354L535.5125 110.21354Q535.45 109.416664 535.1219 109.02604Q534.60626 108.416664 533.8094 108.416664Q533.075 108.416664 532.575 108.90104Q532.09064 109.385414 532.04376 110.21354ZM537.825 112.05729L538.85626 111.90104Q538.95 112.52604 539.34064 112.854164Q539.7469 113.18229 540.48126 113.18229Q541.2 113.18229 541.54376 112.90104Q541.90314 112.604164 541.90314 112.197914Q541.90314 111.83854 541.59064 111.635414Q541.3719 111.49479 540.5125 111.27604Q539.35626 110.979164 538.90314 110.77604Q538.46564 110.55729 538.23126 110.18229Q537.9969 109.80729 537.9969 109.33854Q537.9969 108.93229 538.1844 108.572914Q538.3719 108.21354 538.7 107.979164Q538.95 107.80729 539.3719 107.68229Q539.79376 107.55729 540.29376 107.55729Q541.0125 107.55729 541.5594 107.77604Q542.1219 107.979164 542.3875 108.33854Q542.65314 108.697914 542.7469 109.291664L541.71564 109.43229Q541.65314 108.96354 541.3094 108.697914Q540.98126 108.416664 540.35626 108.416664Q539.6375 108.416664 539.325 108.666664Q539.0125 108.90104 539.0125 109.229164Q539.0125 109.43229 539.1375 109.58854Q539.27814 109.760414 539.54376 109.86979Q539.7 109.93229 540.48126 110.135414Q541.60626 110.447914 542.04376 110.635414Q542.48126 110.822914 542.73126 111.18229Q542.98126 111.541664 542.98126 112.08854Q542.98126 112.61979 542.66876 113.08854Q542.3719 113.541664 541.79376 113.80729Q541.21564 114.05729 540.48126 114.05729Q539.2625 114.05729 538.6219 113.55729Q537.9969 113.041664 537.825 112.05729ZM549.27814 113.916664L549.27814 113.135414Q548.6844 114.05729 547.54376 114.05729Q546.79376 114.05729 546.16876 113.65104Q545.54376 113.229164 545.2 112.49479Q544.85626 111.760414 544.85626 110.80729Q544.85626 109.885414 545.16876 109.11979Q545.48126 108.354164 546.10626 107.96354Q546.73126 107.55729 547.4969 107.55729Q548.0594 107.55729 548.4969 107.791664Q548.9344 108.02604 549.21564 108.40104L549.21564 105.322914L550.2625 105.322914L550.2625 113.916664L549.27814 113.916664ZM545.95 110.80729Q545.95 112.010414 546.45 112.604164Q546.95 113.18229 547.6375 113.18229Q548.325 113.18229 548.8094 112.61979Q549.29376 112.05729 549.29376 110.90104Q549.29376 109.61979 548.79376 109.02604Q548.3094 108.43229 547.59064 108.43229Q546.8875 108.43229 546.41876 109.010414Q545.95 109.572914 545.95 110.80729ZM556.3094 113.15104Q555.71564 113.65104 555.16876 113.854164Q554.6375 114.05729 554.0125 114.05729Q552.98126 114.05729 552.4344 113.55729Q551.8875 113.05729 551.8875 112.27604Q551.8875 111.822914 552.09064 111.447914Q552.29376 111.05729 552.6375 110.83854Q552.98126 110.604164 553.40314 110.49479Q553.7 110.40104 554.34064 110.322914Q555.60626 110.18229 556.21564 109.96354Q556.21564 109.74479 556.21564 109.697914Q556.21564 109.041664 555.91876 108.77604Q555.5125 108.43229 554.71564 108.43229Q553.98126 108.43229 553.6219 108.697914Q553.2625 108.947914 553.09064 109.604164L552.0594 109.46354Q552.2 108.80729 552.52814 108.40104Q552.85626 107.99479 553.46564 107.77604Q554.075 107.55729 554.8719 107.55729Q555.66876 107.55729 556.16876 107.74479Q556.66876 107.93229 556.90314 108.21354Q557.1375 108.49479 557.23126 108.93229Q557.27814 109.197914 557.27814 109.90104L557.27814 111.30729Q557.27814 112.77604 557.34064 113.166664Q557.41876 113.55729 557.6219 113.916664L556.5125 113.916664Q556.35626 113.58854 556.3094 113.15104ZM556.21564 110.791664Q555.6375 111.02604 554.4969 111.197914Q553.84064 111.291664 553.575 111.416664Q553.3094 111.52604 553.15314 111.74479Q553.0125 111.96354 553.0125 112.24479Q553.0125 112.666664 553.325 112.947914Q553.65314 113.229164 554.2625 113.229164Q554.8719 113.229164 555.34064 112.96354Q555.825 112.697914 556.04376 112.229164Q556.21564 111.86979 556.21564 111.18229L556.21564 110.791664ZM559.2 116.30729L559.075 115.322914Q559.41876 115.416664 559.6844 115.416664Q560.02814 115.416664 560.23126 115.291664Q560.45 115.18229 560.59064 114.979164Q560.6844 114.80729 560.91876 114.18229Q560.9344 114.104164 561.0125 113.93229L558.6375 107.697914L559.77814 107.697914L561.075 111.291664Q561.325 111.979164 561.52814 112.74479Q561.71564 112.010414 561.96564 111.322914L563.29376 107.697914L564.34064 107.697914L561.98126 114.02604Q561.59064 115.041664 561.3875 115.43229Q561.10626 115.96354 560.73126 116.197914Q560.3719 116.447914 559.8719 116.447914Q559.575 116.447914 559.2 116.30729Z" fill-rule="nonzero"/><path stroke="#ead1dc" stroke-width="4.0" stroke-linecap="butt" d="M496.45 133.91667L508.45 133.91667" fill-rule="nonzero"/><path fill="#1a1a1a" d="M518.8719 137.91667L516.59064 129.32292L517.7625 129.32292L519.075 134.96355Q519.27814 135.83855 519.4344 136.71355Q519.7625 135.33855 519.825 135.1198L521.45 129.32292L522.825 129.32292L524.0594 133.66667Q524.5125 135.29167 524.73126 136.71355Q524.8875 135.90105 525.15314 134.83855L526.4969 129.32292L527.6375 129.32292L525.29376 137.91667L524.1844 137.91667L522.3875 131.3698Q522.15314 130.5573 522.10626 130.3698Q521.98126 130.94792 521.85626 131.3698L520.04376 137.91667L518.8719 137.91667ZM532.4969 135.91667L533.59064 136.04167Q533.34064 136.9948 532.6375 137.52605Q531.9344 138.0573 530.85626 138.0573Q529.4969 138.0573 528.6844 137.21355Q527.8875 136.3698 527.8875 134.85417Q527.8875 133.29167 528.7 132.4323Q529.5125 131.5573 530.79376 131.5573Q532.04376 131.5573 532.825 132.40105Q533.6219 133.2448 533.6219 134.79167Q533.6219 134.88542 533.6219 135.07292L528.98126 135.07292Q529.04376 136.10417 529.5594 136.65105Q530.075 137.1823 530.85626 137.1823Q531.4344 137.1823 531.84064 136.88542Q532.2625 136.57292 532.4969 135.91667ZM529.04376 134.21355L532.5125 134.21355Q532.45 133.41667 532.1219 133.02605Q531.60626 132.41667 530.8094 132.41667Q530.075 132.41667 529.575 132.90105Q529.09064 133.38542 529.04376 134.21355ZM539.27814 137.91667L539.27814 137.13542Q538.6844 138.0573 537.54376 138.0573Q536.79376 138.0573 536.16876 137.65105Q535.54376 137.22917 535.2 136.4948Q534.85626 135.76042 534.85626 134.8073Q534.85626 133.88542 535.16876 133.1198Q535.48126 132.35417 536.10626 131.96355Q536.73126 131.5573 537.4969 131.5573Q538.0594 131.5573 538.4969 131.79167Q538.9344 132.02605 539.21564 132.40105L539.21564 129.32292L540.2625 129.32292L540.2625 137.91667L539.27814 137.91667ZM535.95 134.8073Q535.95 136.01042 536.45 136.60417Q536.95 137.1823 537.6375 137.1823Q538.325 137.1823 538.8094 136.6198Q539.29376 136.0573 539.29376 134.90105Q539.29376 133.6198 538.79376 133.02605Q538.3094 132.4323 537.59064 132.4323Q536.8875 132.4323 536.41876 133.01042Q535.95 133.57292 535.95 134.8073ZM542.2469 137.91667L542.2469 131.69792L543.1844 131.69792L543.1844 132.57292Q543.8719 131.5573 545.16876 131.5573Q545.73126 131.5573 546.2 131.76042Q546.6844 131.96355 546.91876 132.29167Q547.15314 132.6198 547.2469 133.0573Q547.29376 133.35417 547.29376 134.08855L547.29376 137.91667L546.2469 137.91667L546.2469 134.13542Q546.2469 133.47917 546.1219 133.16667Q545.9969 132.85417 545.6844 132.66667Q545.3719 132.46355 544.95 132.46355Q544.27814 132.46355 543.77814 132.90105Q543.29376 133.32292 543.29376 134.51042L543.29376 137.91667L542.2469 137.91667ZM553.4969 135.91667L554.59064 136.04167Q554.34064 136.9948 553.6375 137.52605Q552.9344 138.0573 551.85626 138.0573Q550.4969 138.0573 549.6844 137.21355Q548.8875 136.3698 548.8875 134.85417Q548.8875 133.29167 549.7 132.4323Q550.5125 131.5573 551.79376 131.5573Q553.04376 131.5573 553.825 132.40105Q554.6219 133.2448 554.6219 134.79167Q554.6219 134.88542 554.6219 135.07292L549.98126 135.07292Q550.04376 136.10417 550.5594 136.65105Q551.075 137.1823 551.85626 137.1823Q552.4344 137.1823 552.84064 136.88542Q553.2625 136.57292 553.4969 135.91667ZM550.04376 134.21355L553.5125 134.21355Q553.45 133.41667 553.1219 133.02605Q552.60626 132.41667 551.8094 132.41667Q551.075 132.41667 550.575 132.90105Q550.09064 133.38542 550.04376 134.21355ZM555.825 136.0573L556.85626 135.90105Q556.95 136.52605 557.34064 136.85417Q557.7469 137.1823 558.48126 137.1823Q559.2 137.1823 559.54376 136.90105Q559.90314 136.60417 559.90314 136.19792Q559.90314 135.83855 559.59064 135.63542Q559.3719 135.4948 558.5125 135.27605Q557.35626 134.97917 556.90314 134.77605Q556.46564 134.5573 556.23126 134.1823Q555.9969 133.8073 555.9969 133.33855Q555.9969 132.9323 556.1844 132.57292Q556.3719 132.21355 556.7 131.97917Q556.95 131.8073 557.3719 131.6823Q557.79376 131.5573 558.29376 131.5573Q559.0125 131.5573 559.5594 131.77605Q560.1219 131.97917 560.3875 132.33855Q560.65314 132.69792 560.7469 133.29167L559.71564 133.4323Q559.65314 132.96355 559.3094 132.69792Q558.98126 132.41667 558.35626 132.41667Q557.6375 132.41667 557.325 132.66667Q557.0125 132.90105 557.0125 133.22917Q557.0125 133.4323 557.1375 133.58855Q557.27814 133.76042 557.54376 133.8698Q557.7 133.9323 558.48126 134.13542Q559.60626 134.44792 560.04376 134.63542Q560.48126 134.82292 560.73126 135.1823Q560.98126 135.54167 560.98126 136.08855Q560.98126 136.6198 560.66876 137.08855Q560.3719 137.54167 559.79376 137.8073Q559.21564 138.0573 558.48126 138.0573Q557.2625 138.0573 556.6219 137.5573Q555.9969 137.04167 555.825 136.0573ZM567.27814 137.91667L567.27814 137.13542Q566.6844 138.0573 565.54376 138.0573Q564.79376 138.0573 564.16876 137.65105Q563.54376 137.22917 563.2 136.4948Q562.85626 135.76042 562.85626 134.8073Q562.85626 133.88542 563.16876 133.1198Q563.48126 132.35417 564.10626 131.96355Q564.73126 131.5573 565.4969 131.5573Q566.0594 131.5573 566.4969 131.79167Q566.9344 132.02605 567.21564 132.40105L567.21564 129.32292L568.2625 129.32292L568.2625 137.91667L567.27814 137.91667ZM563.95 134.8073Q563.95 136.01042 564.45 136.60417Q564.95 137.1823 565.6375 137.1823Q566.325 137.1823 566.8094 136.6198Q567.29376 136.0573 567.29376 134.90105Q567.29376 133.6198 566.79376 133.02605Q566.3094 132.4323 565.59064 132.4323Q564.8875 132.4323 564.41876 133.01042Q563.95 133.57292 563.95 134.8073ZM574.3094 137.15105Q573.71564 137.65105 573.16876 137.85417Q572.6375 138.0573 572.0125 138.0573Q570.98126 138.0573 570.4344 137.5573Q569.8875 137.0573 569.8875 136.27605Q569.8875 135.82292 570.09064 135.44792Q570.29376 135.0573 570.6375 134.83855Q570.98126 134.60417 571.40314 134.4948Q571.7 134.40105 572.34064 134.32292Q573.60626 134.1823 574.21564 133.96355Q574.21564 133.7448 574.21564 133.69792Q574.21564 133.04167 573.91876 132.77605Q573.5125 132.4323 572.71564 132.4323Q571.98126 132.4323 571.6219 132.69792Q571.2625 132.94792 571.09064 133.60417L570.0594 133.46355Q570.2 132.8073 570.52814 132.40105Q570.85626 131.9948 571.46564 131.77605Q572.075 131.5573 572.8719 131.5573Q573.66876 131.5573 574.16876 131.7448Q574.66876 131.9323 574.90314 132.21355Q575.1375 132.4948 575.23126 132.9323Q575.27814 133.19792 575.27814 133.90105L575.27814 135.3073Q575.27814 136.77605 575.34064 137.16667Q575.41876 137.5573 575.6219 137.91667L574.5125 137.91667Q574.35626 137.58855 574.3094 137.15105ZM574.21564 134.79167Q573.6375 135.02605 572.4969 135.19792Q571.84064 135.29167 571.575 135.41667Q571.3094 135.52605 571.15314 135.7448Q571.0125 135.96355 571.0125 136.2448Q571.0125 136.66667 571.325 136.94792Q571.65314 137.22917 572.2625 137.22917Q572.8719 137.22917 573.34064 136.96355Q573.825 136.69792 574.04376 136.22917Q574.21564 135.8698 574.21564 135.1823L574.21564 134.79167ZM577.2 140.3073L577.075 139.32292Q577.41876 139.41667 577.6844 139.41667Q578.02814 139.41667 578.23126 139.29167Q578.45 139.1823 578.59064 138.97917Q578.6844 138.8073 578.91876 138.1823Q578.9344 138.10417 579.0125 137.9323L576.6375 131.69792L577.77814 131.69792L579.075 135.29167Q579.325 135.97917 579.52814 136.7448Q579.71564 136.01042 579.96564 135.32292L581.29376 131.69792L582.34064 131.69792L579.98126 138.02605Q579.59064 139.04167 579.3875 139.4323Q579.10626 139.96355 578.73126 140.19792Q578.3719 140.44792 577.8719 140.44792Q577.575 140.44792 577.2 140.3073Z" fill-rule="nonzero"/><path stroke="#0b5394" stroke-width="4.0" stroke-linecap="butt" d="M496.45 157.91667L508.45 157.91667" fill-rule="nonzero"/><path fill="#1a1a1a" d="M519.5594 161.91667L519.5594 154.33855L516.73126 154.33855L516.73126 153.32292L523.54376 153.32292L523.54376 154.33855L520.7 154.33855L520.7 161.91667L519.5594 161.91667ZM524.2469 161.91667L524.2469 153.32292L525.29376 153.32292L525.29376 156.40105Q526.02814 155.5573 527.15314 155.5573Q527.85626 155.5573 528.35626 155.83855Q528.8719 156.10417 529.09064 156.58855Q529.3094 157.0573 529.3094 157.97917L529.3094 161.91667L528.2625 161.91667L528.2625 157.97917Q528.2625 157.1823 527.91876 156.82292Q527.575 156.46355 526.95 156.46355Q526.48126 156.46355 526.0594 156.71355Q525.65314 156.94792 525.46564 157.3698Q525.29376 157.77605 525.29376 158.51042L525.29376 161.91667L524.2469 161.91667ZM535.325 161.91667L535.325 160.9948Q534.59064 162.0573 533.34064 162.0573Q532.79376 162.0573 532.3094 161.85417Q531.84064 161.63542 531.60626 161.32292Q531.3719 160.9948 531.27814 160.52605Q531.21564 160.22917 531.21564 159.54167L531.21564 155.69792L532.27814 155.69792L532.27814 159.15105Q532.27814 159.96355 532.34064 160.26042Q532.4344 160.66667 532.7469 160.91667Q533.075 161.15105 533.5594 161.15105Q534.02814 161.15105 534.4344 160.91667Q534.85626 160.66667 535.02814 160.2448Q535.21564 159.82292 535.21564 159.02605L535.21564 155.69792L536.2625 155.69792L536.2625 161.91667L535.325 161.91667ZM538.23126 161.91667L538.23126 155.69792L539.1844 155.69792L539.1844 156.63542Q539.54376 155.97917 539.84064 155.77605Q540.15314 155.5573 540.52814 155.5573Q541.0594 155.5573 541.60626 155.88542L541.2469 156.8698Q540.85626 156.63542 540.48126 156.63542Q540.1219 156.63542 539.84064 156.85417Q539.575 157.0573 539.46564 157.4323Q539.27814 157.9948 539.27814 158.65105L539.27814 161.91667L538.23126 161.91667ZM541.825 160.0573L542.85626 159.90105Q542.95 160.52605 543.34064 160.85417Q543.7469 161.1823 544.48126 161.1823Q545.2 161.1823 545.54376 160.90105Q545.90314 160.60417 545.90314 160.19792Q545.90314 159.83855 545.59064 159.63542Q545.3719 159.4948 544.5125 159.27605Q543.35626 158.97917 542.90314 158.77605Q542.46564 158.5573 542.23126 158.1823Q541.9969 157.8073 541.9969 157.33855Q541.9969 156.9323 542.1844 156.57292Q542.3719 156.21355 542.7 155.97917Q542.95 155.8073 543.3719 155.6823Q543.79376 155.5573 544.29376 155.5573Q545.0125 155.5573 545.5594 155.77605Q546.1219 155.97917 546.3875 156.33855Q546.65314 156.69792 546.7469 157.29167L545.71564 157.4323Q545.65314 156.96355 545.3094 156.69792Q544.98126 156.41667 544.35626 156.41667Q543.6375 156.41667 543.325 156.66667Q543.0125 156.90105 543.0125 157.22917Q543.0125 157.4323 543.1375 157.58855Q543.27814 157.76042 543.54376 157.8698Q543.7 157.9323 544.48126 158.13542Q545.60626 158.44792 546.04376 158.63542Q546.48126 158.82292 546.73126 159.1823Q546.98126 159.54167 546.98126 160.08855Q546.98126 160.6198 546.66876 161.08855Q546.3719 161.54167 545.79376 161.8073Q545.21564 162.0573 544.48126 162.0573Q543.2625 162.0573 542.6219 161.5573Q541.9969 161.04167 541.825 160.0573ZM553.27814 161.91667L553.27814 161.13542Q552.6844 162.0573 551.54376 162.0573Q550.79376 162.0573 550.16876 161.65105Q549.54376 161.22917 549.2 160.4948Q548.85626 159.76042 548.85626 158.8073Q548.85626 157.88542 549.16876 157.1198Q549.48126 156.35417 550.10626 155.96355Q550.73126 155.5573 551.4969 155.5573Q552.0594 155.5573 552.4969 155.79167Q552.9344 156.02605 553.21564 156.40105L553.21564 153.32292L554.2625 153.32292L554.2625 161.91667L553.27814 161.91667ZM549.95 158.8073Q549.95 160.01042 550.45 160.60417Q550.95 161.1823 551.6375 161.1823Q552.325 161.1823 552.8094 160.6198Q553.29376 160.0573 553.29376 158.90105Q553.29376 157.6198 552.79376 157.02605Q552.3094 156.4323 551.59064 156.4323Q550.8875 156.4323 550.41876 157.01042Q549.95 157.57292 549.95 158.8073ZM560.3094 161.15105Q559.71564 161.65105 559.16876 161.85417Q558.6375 162.0573 558.0125 162.0573Q556.98126 162.0573 556.4344 161.5573Q555.8875 161.0573 555.8875 160.27605Q555.8875 159.82292 556.09064 159.44792Q556.29376 159.0573 556.6375 158.83855Q556.98126 158.60417 557.40314 158.4948Q557.7 158.40105 558.34064 158.32292Q559.60626 158.1823 560.21564 157.96355Q560.21564 157.7448 560.21564 157.69792Q560.21564 157.04167 559.91876 156.77605Q559.5125 156.4323 558.71564 156.4323Q557.98126 156.4323 557.6219 156.69792Q557.2625 156.94792 557.09064 157.60417L556.0594 157.46355Q556.2 156.8073 556.52814 156.40105Q556.85626 155.9948 557.46564 155.77605Q558.075 155.5573 558.8719 155.5573Q559.66876 155.5573 560.16876 155.7448Q560.66876 155.9323 560.90314 156.21355Q561.1375 156.4948 561.23126 156.9323Q561.27814 157.19792 561.27814 157.90105L561.27814 159.3073Q561.27814 160.77605 561.34064 161.16667Q561.41876 161.5573 561.6219 161.91667L560.5125 161.91667Q560.35626 161.58855 560.3094 161.15105ZM560.21564 158.79167Q559.6375 159.02605 558.4969 159.19792Q557.84064 159.29167 557.575 159.41667Q557.3094 159.52605 557.15314 159.7448Q557.0125 159.96355 557.0125 160.2448Q557.0125 160.66667 557.325 160.94792Q557.65314 161.22917 558.2625 161.22917Q558.8719 161.22917 559.34064 160.96355Q559.825 160.69792 560.04376 160.22917Q560.21564 159.8698 560.21564 159.1823L560.21564 158.79167ZM563.2 164.3073L563.075 163.32292Q563.41876 163.41667 563.6844 163.41667Q564.02814 163.41667 564.23126 163.29167Q564.45 163.1823 564.59064 162.97917Q564.6844 162.8073 564.91876 162.1823Q564.9344 162.10417 565.0125 161.9323L562.6375 155.69792L563.77814 155.69792L565.075 159.29167Q565.325 159.97917 565.52814 160.7448Q565.71564 160.01042 565.96564 159.32292L567.29376 155.69792L568.34064 155.69792L565.98126 162.02605Q565.59064 163.04167 565.3875 163.4323Q565.10626 163.96355 564.73126 164.19792Q564.3719 164.44792 563.8719 164.44792Q563.575 164.44792 563.2 164.3073Z" fill-rule="nonzero"/><path stroke="#6fa8dc" stroke-width="4.0" stroke-linecap="butt" d="M496.45 181.91667L508.45 181.91667" fill-rule="nonzero"/><path fill="#1a1a1a" d="M517.4344 185.91667L517.4344 177.32292L523.23126 177.32292L523.23126 178.33855L518.575 178.33855L518.575 180.9948L522.60626 180.9948L522.60626 182.01042L518.575 182.01042L518.575 185.91667L517.4344 185.91667ZM524.23126 185.91667L524.23126 179.69792L525.1844 179.69792L525.1844 180.63542Q525.54376 179.97917 525.84064 179.77605Q526.15314 179.5573 526.52814 179.5573Q527.0594 179.5573 527.60626 179.88542L527.2469 180.8698Q526.85626 180.63542 526.48126 180.63542Q526.1219 180.63542 525.84064 180.85417Q525.575 181.0573 525.46564 181.4323Q525.27814 181.9948 525.27814 182.65105L525.27814 185.91667L524.23126 185.91667ZM528.2469 178.54167L528.2469 177.32292L529.3094 177.32292L529.3094 178.54167L528.2469 178.54167ZM528.2469 185.91667L528.2469 179.69792L529.3094 179.69792L529.3094 185.91667L528.2469 185.91667ZM535.27814 185.91667L535.27814 185.13542Q534.6844 186.0573 533.54376 186.0573Q532.79376 186.0573 532.16876 185.65105Q531.54376 185.22917 531.2 184.4948Q530.85626 183.76042 530.85626 182.8073Q530.85626 181.88542 531.16876 181.1198Q531.48126 180.35417 532.10626 179.96355Q532.73126 179.5573 533.4969 179.5573Q534.0594 179.5573 534.4969 179.79167Q534.9344 180.02605 535.21564 180.40105L535.21564 177.32292L536.2625 177.32292L536.2625 185.91667L535.27814 185.91667ZM531.95 182.8073Q531.95 184.01042 532.45 184.60417Q532.95 185.1823 533.6375 185.1823Q534.325 185.1823 534.8094 184.6198Q535.29376 184.0573 535.29376 182.90105Q535.29376 181.6198 534.79376 181.02605Q534.3094 180.4323 533.59064 180.4323Q532.8875 180.4323 532.41876 181.01042Q531.95 181.57292 531.95 182.8073ZM542.3094 185.15105Q541.71564 185.65105 541.16876 185.85417Q540.6375 186.0573 540.0125 186.0573Q538.98126 186.0573 538.4344 185.5573Q537.8875 185.0573 537.8875 184.27605Q537.8875 183.82292 538.09064 183.44792Q538.29376 183.0573 538.6375 182.83855Q538.98126 182.60417 539.40314 182.4948Q539.7 182.40105 540.34064 182.32292Q541.60626 182.1823 542.21564 181.96355Q542.21564 181.7448 542.21564 181.69792Q542.21564 181.04167 541.91876 180.77605Q541.5125 180.4323 540.71564 180.4323Q539.98126 180.4323 539.6219 180.69792Q539.2625 180.94792 539.09064 181.60417L538.0594 181.46355Q538.2 180.8073 538.52814 180.40105Q538.85626 179.9948 539.46564 179.77605Q540.075 179.5573 540.8719 179.5573Q541.66876 179.5573 542.16876 179.7448Q542.66876 179.9323 542.90314 180.21355Q543.1375 180.4948 543.23126 180.9323Q543.27814 181.19792 543.27814 181.90105L543.27814 183.3073Q543.27814 184.77605 543.34064 185.16667Q543.41876 185.5573 543.6219 185.91667L542.5125 185.91667Q542.35626 185.58855 542.3094 185.15105ZM542.21564 182.79167Q541.6375 183.02605 540.4969 183.19792Q539.84064 183.29167 539.575 183.41667Q539.3094 183.52605 539.15314 183.7448Q539.0125 183.96355 539.0125 184.2448Q539.0125 184.66667 539.325 184.94792Q539.65314 185.22917 540.2625 185.22917Q540.8719 185.22917 541.34064 184.96355Q541.825 184.69792 542.04376 184.22917Q542.21564 183.8698 542.21564 183.1823L542.21564 182.79167ZM545.2 188.3073L545.075 187.32292Q545.41876 187.41667 545.6844 187.41667Q546.02814 187.41667 546.23126 187.29167Q546.45 187.1823 546.59064 186.97917Q546.6844 186.8073 546.91876 186.1823Q546.9344 186.10417 547.0125 185.9323L544.6375 179.69792L545.77814 179.69792L547.075 183.29167Q547.325 183.97917 547.52814 184.7448Q547.71564 184.01042 547.96564 183.32292L549.29376 179.69792L550.34064 179.69792L547.98126 186.02605Q547.59064 187.04167 547.3875 187.4323Q547.10626 187.96355 546.73126 188.19792Q546.3719 188.44792 545.8719 188.44792Q545.575 188.44792 545.2 188.3073Z" fill-rule="nonzero"/><path stroke="#b4a7d6" stroke-width="4.0" stroke-linecap="butt" d="M496.45 205.91667L508.45 205.91667" fill-rule="nonzero"/><path fill="#1a1a1a" d="M516.9969 207.15105L518.0594 207.0573Q518.1375 207.71355 518.41876 208.1198Q518.7 208.52605 519.27814 208.79167Q519.8719 209.04167 520.60626 209.04167Q521.2469 209.04167 521.7469 208.85417Q522.2469 208.65105 522.48126 208.32292Q522.73126 207.97917 522.73126 207.58855Q522.73126 207.1823 522.4969 206.88542Q522.2625 206.57292 521.73126 206.3698Q521.3719 206.22917 520.1844 205.94792Q519.0125 205.66667 518.54376 205.41667Q517.91876 205.08855 517.6219 204.6198Q517.325 204.13542 517.325 203.54167Q517.325 202.90105 517.6844 202.33855Q518.0594 201.76042 518.7625 201.47917Q519.48126 201.1823 520.34064 201.1823Q521.29376 201.1823 522.02814 201.4948Q522.7625 201.79167 523.15314 202.40105Q523.54376 202.9948 523.575 203.7448L522.48126 203.82292Q522.3875 203.01042 521.8719 202.60417Q521.3719 202.1823 520.3875 202.1823Q519.35626 202.1823 518.8875 202.5573Q518.41876 202.9323 518.41876 203.46355Q518.41876 203.9323 518.7469 204.22917Q519.075 204.52605 520.45 204.83855Q521.84064 205.15105 522.35626 205.38542Q523.10626 205.7448 523.46564 206.27605Q523.825 206.79167 523.825 207.4948Q523.825 208.1823 523.4344 208.79167Q523.04376 209.38542 522.3094 209.72917Q521.575 210.0573 520.65314 210.0573Q519.48126 210.0573 518.6844 209.72917Q517.90314 209.38542 517.45 208.69792Q517.0125 208.01042 516.9969 207.15105ZM529.3094 209.15105Q528.71564 209.65105 528.16876 209.85417Q527.6375 210.0573 527.0125 210.0573Q525.98126 210.0573 525.4344 209.5573Q524.8875 209.0573 524.8875 208.27605Q524.8875 207.82292 525.09064 207.44792Q525.29376 207.0573 525.6375 206.83855Q525.98126 206.60417 526.40314 206.4948Q526.7 206.40105 527.34064 206.32292Q528.60626 206.1823 529.21564 205.96355Q529.21564 205.7448 529.21564 205.69792Q529.21564 205.04167 528.91876 204.77605Q528.5125 204.4323 527.71564 204.4323Q526.98126 204.4323 526.6219 204.69792Q526.2625 204.94792 526.09064 205.60417L525.0594 205.46355Q525.2 204.8073 525.52814 204.40105Q525.85626 203.9948 526.46564 203.77605Q527.075 203.5573 527.8719 203.5573Q528.66876 203.5573 529.16876 203.7448Q529.66876 203.9323 529.90314 204.21355Q530.1375 204.4948 530.23126 204.9323Q530.27814 205.19792 530.27814 205.90105L530.27814 207.3073Q530.27814 208.77605 530.34064 209.16667Q530.41876 209.5573 530.6219 209.91667L529.5125 209.91667Q529.35626 209.58855 529.3094 209.15105ZM529.21564 206.79167Q528.6375 207.02605 527.4969 207.19792Q526.84064 207.29167 526.575 207.41667Q526.3094 207.52605 526.15314 207.7448Q526.0125 207.96355 526.0125 208.2448Q526.0125 208.66667 526.325 208.94792Q526.65314 209.22917 527.2625 209.22917Q527.8719 209.22917 528.34064 208.96355Q528.825 208.69792 529.04376 208.22917Q529.21564 207.8698 529.21564 207.1823L529.21564 206.79167ZM534.54376 208.97917L534.7 209.90105Q534.2469 209.9948 533.90314 209.9948Q533.325 209.9948 533.0125 209.82292Q532.7 209.63542 532.5594 209.33855Q532.4344 209.04167 532.4344 208.08855L532.4344 204.51042L531.66876 204.51042L531.66876 203.69792L532.4344 203.69792L532.4344 202.15105L533.48126 201.52605L533.48126 203.69792L534.54376 203.69792L534.54376 204.51042L533.48126 204.51042L533.48126 208.15105Q533.48126 208.60417 533.52814 208.72917Q533.59064 208.85417 533.71564 208.9323Q533.84064 209.01042 534.075 209.01042Q534.2625 209.01042 534.54376 208.97917ZM539.325 209.91667L539.325 208.9948Q538.59064 210.0573 537.34064 210.0573Q536.79376 210.0573 536.3094 209.85417Q535.84064 209.63542 535.60626 209.32292Q535.3719 208.9948 535.27814 208.52605Q535.21564 208.22917 535.21564 207.54167L535.21564 203.69792L536.27814 203.69792L536.27814 207.15105Q536.27814 207.96355 536.34064 208.26042Q536.4344 208.66667 536.7469 208.91667Q537.075 209.15105 537.5594 209.15105Q538.02814 209.15105 538.4344 208.91667Q538.85626 208.66667 539.02814 208.2448Q539.21564 207.82292 539.21564 207.02605L539.21564 203.69792L540.2625 203.69792L540.2625 209.91667L539.325 209.91667ZM542.23126 209.91667L542.23126 203.69792L543.1844 203.69792L543.1844 204.63542Q543.54376 203.97917 543.84064 203.77605Q544.15314 203.5573 544.52814 203.5573Q545.0594 203.5573 545.60626 203.88542L545.2469 204.8698Q544.85626 204.63542 544.48126 204.63542Q544.1219 204.63542 543.84064 204.85417Q543.575 205.0573 543.46564 205.4323Q543.27814 205.9948 543.27814 206.65105L543.27814 209.91667L542.23126 209.91667ZM550.27814 209.91667L550.27814 209.13542Q549.6844 210.0573 548.54376 210.0573Q547.79376 210.0573 547.16876 209.65105Q546.54376 209.22917 546.2 208.4948Q545.85626 207.76042 545.85626 206.8073Q545.85626 205.88542 546.16876 205.1198Q546.48126 204.35417 547.10626 203.96355Q547.73126 203.5573 548.4969 203.5573Q549.0594 203.5573 549.4969 203.79167Q549.9344 204.02605 550.21564 204.40105L550.21564 201.32292L551.2625 201.32292L551.2625 209.91667L550.27814 209.91667ZM546.95 206.8073Q546.95 208.01042 547.45 208.60417Q547.95 209.1823 548.6375 209.1823Q549.325 209.1823 549.8094 208.6198Q550.29376 208.0573 550.29376 206.90105Q550.29376 205.6198 549.79376 205.02605Q549.3094 204.4323 548.59064 204.4323Q547.8875 204.4323 547.41876 205.01042Q546.95 205.57292 546.95 206.8073ZM557.3094 209.15105Q556.71564 209.65105 556.16876 209.85417Q555.6375 210.0573 555.0125 210.0573Q553.98126 210.0573 553.4344 209.5573Q552.8875 209.0573 552.8875 208.27605Q552.8875 207.82292 553.09064 207.44792Q553.29376 207.0573 553.6375 206.83855Q553.98126 206.60417 554.40314 206.4948Q554.7 206.40105 555.34064 206.32292Q556.60626 206.1823 557.21564 205.96355Q557.21564 205.7448 557.21564 205.69792Q557.21564 205.04167 556.91876 204.77605Q556.5125 204.4323 555.71564 204.4323Q554.98126 204.4323 554.6219 204.69792Q554.2625 204.94792 554.09064 205.60417L553.0594 205.46355Q553.2 204.8073 553.52814 204.40105Q553.85626 203.9948 554.46564 203.77605Q555.075 203.5573 555.8719 203.5573Q556.66876 203.5573 557.16876 203.7448Q557.66876 203.9323 557.90314 204.21355Q558.1375 204.4948 558.23126 204.9323Q558.27814 205.19792 558.27814 205.90105L558.27814 207.3073Q558.27814 208.77605 558.34064 209.16667Q558.41876 209.5573 558.6219 209.91667L557.5125 209.91667Q557.35626 209.58855 557.3094 209.15105ZM557.21564 206.79167Q556.6375 207.02605 555.4969 207.19792Q554.84064 207.29167 554.575 207.41667Q554.3094 207.52605 554.15314 207.7448Q554.0125 207.96355 554.0125 208.2448Q554.0125 208.66667 554.325 208.94792Q554.65314 209.22917 555.2625 209.22917Q555.8719 209.22917 556.34064 208.96355Q556.825 208.69792 557.04376 208.22917Q557.21564 207.8698 557.21564 207.1823L557.21564 206.79167ZM560.2 212.3073L560.075 211.32292Q560.41876 211.41667 560.6844 211.41667Q561.02814 211.41667 561.23126 211.29167Q561.45 211.1823 561.59064 210.97917Q561.6844 210.8073 561.91876 210.1823Q561.9344 210.10417 562.0125 209.9323L559.6375 203.69792L560.77814 203.69792L562.075 207.29167Q562.325 207.97917 562.52814 208.7448Q562.71564 208.01042 562.96564 207.32292L564.29376 203.69792L565.34064 203.69792L562.98126 210.02605Q562.59064 211.04167 562.3875 211.4323Q562.10626 211.96355 561.73126 212.19792Q561.3719 212.44792 560.8719 212.44792Q560.575 212.44792 560.2 212.3073Z" fill-rule="nonzero"/><path fill="#741b47" d="M29.940624 35.190624L25.503124 35.190624L24.815624 37.55L19.378124 37.55L25.08125 22.425L30.45625 22.425L36.159374 37.55L30.64375 37.55L29.940624 35.190624ZM28.753124 31.284374L27.721874 27.925L26.690624 31.284374L28.753124 31.284374ZM35.3625 26.3625L40.409374 26.3625L42.128124 31.971874L43.909374 26.3625L48.83125 26.3625L44.08125 37.55L40.034374 37.55L35.3625 26.3625ZM61.08125 33.346874L53.159374 33.346874Q53.20625 33.721874 53.534374 34.096874Q53.9875 34.64375 54.721874 34.64375Q55.20625 34.64375 55.628124 34.39375Q55.89375 34.253124 56.346874 33.675L61.1125 34.1125Q59.846874 36.315624 58.471874 37.05Q57.1125 37.784374 54.64375 37.784374Q52.4875 37.784374 51.20625 37.159374Q49.925 36.534374 49.08125 35.175Q48.253124 33.8 48.253124 31.971874Q48.253124 29.378124 49.925 27.753124Q51.596874 26.128124 54.51875 26.128124Q56.846874 26.128124 58.2375 26.8625Q59.628124 27.58125 60.346874 28.971874Q61.08125 30.346874 61.08125 32.4875L61.08125 33.346874ZM56.175 30.628124Q56.128124 30.08125 55.721874 29.690624Q55.33125 29.3 54.690624 29.3Q53.940624 29.3 53.503124 29.89375Q53.20625 30.26875 53.159374 30.628124L56.175 30.628124ZM61.784374 26.3625L66.33125 26.3625L66.20625 27.2375Q66.12813 27.096874 66.8 26.6125Q67.47188 26.128124 68.44063 26.128124Q69.40938 26.128124 70.89375 26.89375L69.34688 30.440624Q68.34688 30.034374 68.01875 30.034374Q67.45625 30.034374 67.14375 30.503124Q66.59688 31.3 66.59688 33.659374L66.59688 37.55L61.784374 37.55L61.784374 26.3625ZM75.06563 30.565624L70.50313 30.096874Q70.81563 28.565624 71.26875 27.925Q71.72188 27.284374 72.56563 26.815624Q73.175 26.471874 74.19063 26.3Q75.20625 26.128124 76.34688 26.128124Q78.15938 26.128124 79.31563 26.346874Q80.4875 26.565624 81.28438 27.253124Q81.87813 27.784374 82.19063 28.675Q82.51875 29.55 82.51875 30.3625L82.51875 34.940624Q82.51875 35.628124 82.59688 36.003124Q82.69063 36.3625 83.26875 37.55L78.62813 37.55Q78.28438 36.89375 78.20625 36.659374Q78.12813 36.409374 78.3 36.346874Q77.89375 36.971874 77.05 37.315624Q75.925 37.784374 74.45625 37.784374Q72.44063 37.784374 71.34688 36.815624Q70.26875 35.846874 70.26875 34.39375Q70.26875 33.065624 71.06563 32.190624Q71.83125 31.315624 73.84688 30.909374Q76.06563 30.4875 76.70625 30.315624Q77.3625 30.128124 77.81563 29.940624Q77.81563 29.659374 77.62813 29.4875Q77.45625 29.3 76.8625 29.3Q76.00313 29.3 75.6125 29.55Q75.3625 29.721874 75.06563 30.565624ZM77.81563 32.8Q77.53438 32.909374 76.62813 33.128124Q75.51875 33.425 75.26875 33.675Q75.06563 33.8625 75.06563 34.1125Q75.06563 34.39375 75.26875 34.58125Q75.47188 34.76875 75.94063 34.76875Q76.50313 34.76875 76.97188 34.503124Q77.44063 34.221874 77.62813 33.8625Q77.81563 33.503124 77.81563 32.8625L77.81563 32.8ZM90.97188 26.3625L95.50313 26.3625L95.50313 36.565624L95.51875 37.01875Q95.51875 38.096874 95.05 39.065624Q94.59688 40.034374 93.83125 40.628124Q93.08125 41.2375 91.95625 41.4875Q90.83125 41.753124 89.40938 41.753124Q86.14375 41.753124 84.84688 40.70625Q83.55 39.659374 83.55 37.909374Q83.55 37.690624 83.58125 36.925L88.15938 37.440624Q88.33125 38.1125 88.50313 38.221874Q88.84688 38.45625 89.37813 38.45625Q90.06563 38.45625 90.37813 38.1125Q90.69063 37.784374 90.69063 36.8L90.75313 36.14375Q90.76875 36.253124 90.1125 36.596874Q89.09688 37.128124 87.94063 37.128124Q85.65938 37.128124 84.25313 35.14375Q83.26875 33.7375 83.26875 31.503124Q83.26875 28.925 84.55 27.534374Q85.84688 26.128124 87.90938 26.128124Q89.20625 26.128124 90.08125 26.596874Q90.95625 27.05 91.00313 27.14375L90.97188 26.3625ZM88.03438 31.8Q88.03438 32.76875 88.40938 33.190624Q88.78438 33.596874 89.37813 33.596874Q89.925 33.596874 90.31563 33.159374Q90.72188 32.721874 90.72188 31.753124Q90.72188 30.76875 90.3 30.3Q89.87813 29.83125 89.3 29.83125Q88.7375 29.83125 88.37813 30.253124Q88.03438 30.659374 88.03438 31.8ZM109.08125 33.346874L101.15938 33.346874Q101.20625 33.721874 101.53438 34.096874Q101.9875 34.64375 102.72188 34.64375Q103.20625 34.64375 103.62813 34.39375Q103.89375 34.253124 104.34688 33.675L109.1125 34.1125Q107.84688 36.315624 106.47188 37.05Q105.1125 37.784374 102.64375 37.784374Q100.4875 37.784374 99.20625 37.159374Q97.925 36.534374 97.08125 35.175Q96.25313 33.8 96.25313 31.971874Q96.25313 29.378124 97.925 27.753124Q99.59688 26.128124 102.51875 26.128124Q104.84688 26.128124 106.2375 26.8625Q107.62813 27.58125 108.34688 28.971874Q109.08125 30.346874 109.08125 32.4875L109.08125 33.346874ZM104.175 30.628124Q104.12813 30.08125 103.72188 29.690624Q103.33125 29.3 102.69063 29.3Q101.94063 29.3 101.50313 29.89375Q101.20625 30.26875 101.15938 30.628124L104.175 30.628124ZM117.00313 22.425L129.675 22.425L129.675 26.284374L122.25313 26.284374L122.25313 27.753124L129.14375 27.753124L129.14375 31.4875L122.25313 31.4875L122.25313 33.4875L129.89375 33.4875L129.89375 37.55L117.00313 37.55L117.00313 22.425ZM130.75313 26.3625L135.26875 26.3625L135.26875 27.3Q135.425 27.096874 136.3625 26.6125Q137.3 26.128124 138.6125 26.128124Q140.425 26.128124 141.47188 27.2375Q142.53438 28.346874 142.53438 30.55L142.53438 37.55L137.72188 37.55L137.72188 31.440624Q137.72188 30.6125 137.47188 30.346874Q137.22188 30.065624 136.75313 30.065624Q136.22188 30.065624 135.87813 30.4875Q135.53438 30.89375 135.53438 32.159374L135.53438 37.55L130.75313 37.55L130.75313 26.3625ZM150.97188 26.3625L155.50313 26.3625L155.50313 36.565624L155.51875 37.01875Q155.51875 38.096874 155.05 39.065624Q154.59688 40.034374 153.83125 40.628124Q153.08125 41.2375 151.95625 41.4875Q150.83125 41.753124 149.40938 41.753124Q146.14375 41.753124 144.84688 40.70625Q143.55 39.659374 143.55 37.909374Q143.55 37.690624 143.58125 36.925L148.15938 37.440624Q148.33125 38.1125 148.50313 38.221874Q148.84688 38.45625 149.37813 38.45625Q150.06563 38.45625 150.37813 38.1125Q150.69063 37.784374 150.69063 36.8L150.75313 36.14375Q150.76875 36.253124 150.1125 36.596874Q149.09688 37.128124 147.94063 37.128124Q145.65938 37.128124 144.25313 35.14375Q143.26875 33.7375 143.26875 31.503124Q143.26875 28.925 144.55 27.534374Q145.84688 26.128124 147.90938 26.128124Q149.20625 26.128124 150.08125 26.596874Q150.95625 27.05 151.00313 27.14375L150.97188 26.3625ZM148.03438 31.8Q148.03438 32.76875 148.40938 33.190624Q148.78438 33.596874 149.37813 33.596874Q149.925 33.596874 150.31563 33.159374Q150.72188 32.721874 150.72188 31.753124Q150.72188 30.76875 150.3 30.3Q149.87813 29.83125 149.3 29.83125Q148.7375 29.83125 148.37813 30.253124Q148.03438 30.659374 148.03438 31.8ZM161.06563 30.565624L156.50313 30.096874Q156.81563 28.565624 157.26875 27.925Q157.72188 27.284374 158.56563 26.815624Q159.175 26.471874 160.19063 26.3Q161.20625 26.128124 162.34688 26.128124Q164.15938 26.128124 165.31563 26.346874Q166.4875 26.565624 167.28438 27.253124Q167.87813 27.784374 168.19063 28.675Q168.51875 29.55 168.51875 30.3625L168.51875 34.940624Q168.51875 35.628124 168.59688 36.003124Q168.69063 36.3625 169.26875 37.55L164.62813 37.55Q164.28438 36.89375 164.20625 36.659374Q164.12813 36.409374 164.3 36.346874Q163.89375 36.971874 163.05 37.315624Q161.925 37.784374 160.45625 37.784374Q158.44063 37.784374 157.34688 36.815624Q156.26875 35.846874 156.26875 34.39375Q156.26875 33.065624 157.06563 32.190624Q157.83125 31.315624 159.84688 30.909374Q162.06563 30.4875 162.70625 30.315624Q163.3625 30.128124 163.81563 29.940624Q163.81563 29.659374 163.62813 29.4875Q163.45625 29.3 162.8625 29.3Q162.00313 29.3 161.6125 29.55Q161.3625 29.721874 161.06563 30.565624ZM163.81563 32.8Q163.53438 32.909374 162.62813 33.128124Q161.51875 33.425 161.26875 33.675Q161.06563 33.8625 161.06563 34.1125Q161.06563 34.39375 161.26875 34.58125Q161.47188 34.76875 161.94063 34.76875Q162.50313 34.76875 162.97188 34.503124Q163.44063 34.221874 163.62813 33.8625Q163.81563 33.503124 163.81563 32.8625L163.81563 32.8ZM176.97188 26.3625L181.50313 26.3625L181.50313 36.565624L181.51875 37.01875Q181.51875 38.096874 181.05 39.065624Q180.59688 40.034374 179.83125 40.628124Q179.08125 41.2375 177.95625 41.4875Q176.83125 41.753124 175.40938 41.753124Q172.14375 41.753124 170.84688 40.70625Q169.55 39.659374 169.55 37.909374Q169.55 37.690624 169.58125 36.925L174.15938 37.440624Q174.33125 38.1125 174.50313 38.221874Q174.84688 38.45625 175.37813 38.45625Q176.06563 38.45625 176.37813 38.1125Q176.69063 37.784374 176.69063 36.8L176.75313 36.14375Q176.76875 36.253124 176.1125 36.596874Q175.09688 37.128124 173.94063 37.128124Q171.65938 37.128124 170.25313 35.14375Q169.26875 33.7375 169.26875 31.503124Q169.26875 28.925 170.55 27.534374Q171.84688 26.128124 173.90938 26.128124Q175.20625 26.128124 176.08125 26.596874Q176.95625 27.05 177.00313 27.14375L176.97188 26.3625ZM174.03438 31.8Q174.03438 32.76875 174.40938 33.190624Q174.78438 33.596874 175.37813 33.596874Q175.925 33.596874 176.31563 33.159374Q176.72188 32.721874 176.72188 31.753124Q176.72188 30.76875 176.3 30.3Q175.87813 29.83125 175.3 29.83125Q174.7375 29.83125 174.37813 30.253124Q174.03438 30.659374 174.03438 31.8ZM195.08125 33.346874L187.15938 33.346874Q187.20625 33.721874 187.53438 34.096874Q187.9875 34.64375 188.72188 34.64375Q189.20625 34.64375 189.62813 34.39375Q189.89375 34.253124 190.34688 33.675L195.1125 34.1125Q193.84688 36.315624 192.47188 37.05Q191.1125 37.784374 188.64375 37.784374Q186.4875 37.784374 185.20625 37.159374Q183.925 36.534374 183.08125 35.175Q182.25313 33.8 182.25313 31.971874Q182.25313 29.378124 183.925 27.753124Q185.59688 26.128124 188.51875 26.128124Q190.84688 26.128124 192.2375 26.8625Q193.62813 27.58125 194.34688 28.971874Q195.08125 30.346874 195.08125 32.4875L195.08125 33.346874ZM190.175 30.628124Q190.12813 30.08125 189.72188 29.690624Q189.33125 29.3 188.69063 29.3Q187.94063 29.3 187.50313 29.89375Q187.20625 30.26875 187.15938 30.628124L190.175 30.628124ZM195.78438 26.3625L200.3 26.3625L200.3 27.175Q200.45625 27.003124 201.34688 26.565624Q202.2375 26.128124 203.4875 26.128124Q204.83125 26.128124 205.65938 26.628124Q206.4875 27.128124 206.72188 27.58125Q207.31563 26.940624 208.15938 26.534374Q209.01875 26.128124 210.2375 26.128124Q212.08125 26.128124 213.12813 27.253124Q214.19063 28.3625 214.19063 30.628124L214.19063 37.55L209.39375 37.55L209.39375 31.2375Q209.39375 30.675 209.20625 30.440624Q208.925 30.065624 208.53438 30.065624Q208.01875 30.065624 207.69063 30.45625Q207.37813 30.83125 207.37813 31.784374L207.37813 37.55L202.58125 37.55L202.58125 31.425Q202.58125 30.815624 202.51875 30.628124Q202.44063 30.3625 202.22188 30.20625Q202.01875 30.034374 201.7375 30.034374Q201.2375 30.034374 200.90938 30.425Q200.58125 30.815624 200.58125 31.846874L200.58125 37.55L195.78438 37.55L195.78438 26.3625ZM228.08125 33.346874L220.15938 33.346874Q220.20625 33.721874 220.53438 34.096874Q220.9875 34.64375 221.72188 34.64375Q222.20625 34.64375 222.62813 34.39375Q222.89375 34.253124 223.34688 33.675L228.1125 34.1125Q226.84688 36.315624 225.47188 37.05Q224.1125 37.784374 221.64375 37.784374Q219.4875 37.784374 218.20625 37.159374Q216.925 36.534374 216.08125 35.175Q215.25313 33.8 215.25313 31.971874Q215.25313 29.378124 216.925 27.753124Q218.59688 26.128124 221.51875 26.128124Q223.84688 26.128124 225.2375 26.8625Q226.62813 27.58125 227.34688 28.971874Q228.08125 30.346874 228.08125 32.4875L228.08125 33.346874ZM223.175 30.628124Q223.12813 30.08125 222.72188 29.690624Q222.33125 29.3 221.69063 29.3Q220.94063 29.3 220.50313 29.89375Q220.20625 30.26875 220.15938 30.628124L223.175 30.628124ZM228.75313 26.3625L233.26875 26.3625L233.26875 27.3Q233.425 27.096874 234.3625 26.6125Q235.3 26.128124 236.6125 26.128124Q238.425 26.128124 239.47188 27.2375Q240.53438 28.346874 240.53438 30.55L240.53438 37.55L235.72188 37.55L235.72188 31.440624Q235.72188 30.6125 235.47188 30.346874Q235.22188 30.065624 234.75313 30.065624Q234.22188 30.065624 233.87813 30.4875Q233.53438 30.89375 233.53438 32.159374L233.53438 37.55L228.75313 37.55L228.75313 26.3625ZM247.3625 22.175L247.3625 26.3625L249.55 26.3625L249.55 30.08125L247.3625 30.08125L247.3625 33.346874Q247.3625 33.909374 247.44063 34.034374Q247.50313 34.159374 247.76875 34.159374Q248.14375 34.159374 249.33125 33.784374L249.72188 37.3625Q247.8625 37.784374 246.53438 37.784374Q244.94063 37.784374 244.12813 37.346874Q243.33125 36.909374 242.94063 36.034374Q242.56563 35.14375 242.56563 33.33125L242.56563 30.08125L241.09688 30.08125L241.09688 26.3625L242.56563 26.3625L242.56563 24.6125L247.3625 22.175Z" fill-rule="nonzero"/></svg>